
CASCADE Topology V3, (c) Open Cascade
Locations 0
Curve2ds 0
Curves 120
1 1282.845703 -389.87383999999997 -300 -1 0 0 
1 865.04791299999999 -389.87383999999997 -300 0 -1 0 
1 865.04791299999999 -623.57562299999995 -300 1 0 0 
1 1282.845703 -623.57562299999995 -300 0 1 0 
1 464.669464 -38.461475 -300 -1 0 0 
1 69.245688999999999 -38.461475 -300 0 -1 0 
1 69.245688999999999 -592.35656700000004 -300 1 0 0 
1 464.669464 -592.35656700000004 -300 0 1 0 
1 507.936981 -2038.8557129999999 -300 0 1 0 
1 507.936981 -1726.4470209999999 -300 -1 0 0 
1 144.61842300000001 -1726.4470209999999 -300 0 -1 0 
1 144.61842300000001 -2038.8557129999999 -300 1 0 0 
1 1282.845703 -623.57562299999995 -150 0 0 1 
1 1282.845703 -623.57562299999995 0 -1 0 0 
1 865.04791299999999 -623.57562299999995 0 0 0 -1 
1 865.04791299999999 -623.57562299999995 -150 1 0 0 
1 1282.845703 -623.57562299999995 -300 0 0 1 
1 1282.845703 -623.57562299999995 -150 -1 0 0 
1 865.04791299999999 -623.57562299999995 -150 0 0 -1 
1 865.04791299999999 -623.57562299999995 -300 1 0 0 
1 1282.845703 -389.87383999999997 -150 0 0 1 
1 1282.845703 -389.87383999999997 0 0 -1 0 
1 1282.845703 -623.57562299999995 0 0 0 -1 
1 1282.845703 -623.57562299999995 -150 0 1 0 
1 1282.845703 -389.87383999999997 -300 0 0 1 
1 1282.845703 -389.87383999999997 -150 0 -1 0 
1 1282.845703 -623.57562299999995 -150 0 0 -1 
1 1282.845703 -623.57562299999995 -300 0 1 0 
1 865.04791299999999 -389.87383999999997 -150 0 0 1 
1 865.04791299999999 -389.87383999999997 0 1 0 0 
1 1282.845703 -389.87383999999997 0 0 0 -1 
1 1282.845703 -389.87383999999997 -150 -1 0 0 
1 865.04791299999999 -389.87383999999997 -300 0 0 1 
1 865.04791299999999 -389.87383999999997 -150 1 0 0 
1 1282.845703 -389.87383999999997 -150 0 0 -1 
1 1282.845703 -389.87383999999997 -300 -1 0 0 
1 865.04791299999999 -623.57562299999995 -150 0 0 1 
1 865.04791299999999 -623.57562299999995 0 0 1 0 
1 865.04791299999999 -389.87383999999997 0 0 0 -1 
1 865.04791299999999 -389.87383999999997 -150 0 -1 0 
1 865.04791299999999 -623.57562299999995 -300 0 0 1 
1 865.04791299999999 -623.57562299999995 -150 0 1 0 
1 865.04791299999999 -389.87383999999997 -150 0 0 -1 
1 865.04791299999999 -389.87383999999997 -300 0 -1 0 
1 464.669464 -592.35656700000004 -150 0 0 1 
1 464.669464 -592.35656700000004 0 -1 0 0 
1 69.245688999999999 -592.35656700000004 0 0 0 -1 
1 69.245688999999999 -592.35656700000004 -150 1 0 0 
1 464.669464 -592.35656700000004 -300 0 0 1 
1 464.669464 -592.35656700000004 -150 -1 0 0 
1 69.245688999999999 -592.35656700000004 -150 0 0 -1 
1 69.245688999999999 -592.35656700000004 -300 1 0 0 
1 464.669464 -38.461475 -150 0 0 1 
1 464.669464 -38.461475 0 0 -1 0 
1 464.669464 -592.35656700000004 0 0 0 -1 
1 464.669464 -592.35656700000004 -150 0 1 0 
1 464.669464 -38.461475 -300 0 0 1 
1 464.669464 -38.461475 -150 0 -1 0 
1 464.669464 -592.35656700000004 -150 0 0 -1 
1 464.669464 -592.35656700000004 -300 0 1 0 
1 69.245688999999999 -38.461475 -150 0 0 1 
1 69.245688999999999 -38.461475 0 1 0 0 
1 464.669464 -38.461475 0 0 0 -1 
1 464.669464 -38.461475 -150 -1 0 0 
1 69.245688999999999 -38.461475 -300 0 0 1 
1 69.245688999999999 -38.461475 -150 1 0 0 
1 464.669464 -38.461475 -150 0 0 -1 
1 464.669464 -38.461475 -300 -1 0 0 
1 69.245688999999999 -592.35656700000004 -150 0 0 1 
1 69.245688999999999 -592.35656700000004 0 0 1 0 
1 69.245688999999999 -38.461475 0 0 0 -1 
1 69.245688999999999 -38.461475 -150 0 -1 0 
1 69.245688999999999 -592.35656700000004 -300 0 0 1 
1 69.245688999999999 -592.35656700000004 -150 0 1 0 
1 69.245688999999999 -38.461475 -150 0 0 -1 
1 69.245688999999999 -38.461475 -300 0 -1 0 
1 144.61842300000001 -1726.4470209999999 -150 0 -1 0 
1 144.61842300000001 -2038.8557129999999 -150 0 0 1 
1 144.61842300000001 -2038.8557129999999 0 0 1 0 
1 144.61842300000001 -1726.4470209999999 0 0 0 -1 
1 144.61842300000001 -1726.4470209999999 -300 0 -1 0 
1 144.61842300000001 -2038.8557129999999 -300 0 0 1 
1 144.61842300000001 -2038.8557129999999 -150 0 1 0 
1 144.61842300000001 -1726.4470209999999 -150 0 0 -1 
1 507.936981 -1726.4470209999999 -150 -1 0 0 
1 144.61842300000001 -1726.4470209999999 -150 0 0 1 
1 144.61842300000001 -1726.4470209999999 0 1 0 0 
1 507.936981 -1726.4470209999999 0 0 0 -1 
1 507.936981 -1726.4470209999999 -300 -1 0 0 
1 144.61842300000001 -1726.4470209999999 -300 0 0 1 
1 144.61842300000001 -1726.4470209999999 -150 1 0 0 
1 507.936981 -1726.4470209999999 -150 0 0 -1 
1 507.936981 -2038.8557129999999 -150 0 1 0 
1 507.936981 -1726.4470209999999 -150 0 0 1 
1 507.936981 -1726.4470209999999 0 0 -1 0 
1 507.936981 -2038.8557129999999 0 0 0 -1 
1 507.936981 -2038.8557129999999 -300 0 1 0 
1 507.936981 -1726.4470209999999 -300 0 0 1 
1 507.936981 -1726.4470209999999 -150 0 -1 0 
1 507.936981 -2038.8557129999999 -150 0 0 -1 
1 144.61842300000001 -2038.8557129999999 -150 1 0 0 
1 507.936981 -2038.8557129999999 -150 0 0 1 
1 507.936981 -2038.8557129999999 0 -1 0 0 
1 144.61842300000001 -2038.8557129999999 0 0 0 -1 
1 144.61842300000001 -2038.8557129999999 -300 1 0 0 
1 507.936981 -2038.8557129999999 -300 0 0 1 
1 507.936981 -2038.8557129999999 -150 -1 0 0 
1 144.61842300000001 -2038.8557129999999 -150 0 0 -1 
1 1282.845703 -389.87383999999997 0 -1 0 0 
1 865.04791299999999 -389.87383999999997 0 0 -1 0 
1 865.04791299999999 -623.57562299999995 0 1 0 0 
1 1282.845703 -623.57562299999995 0 0 1 0 
1 464.669464 -38.461475 0 -1 0 0 
1 69.245688999999999 -38.461475 0 0 -1 0 
1 69.245688999999999 -592.35656700000004 0 1 0 0 
1 464.669464 -592.35656700000004 0 0 1 0 
1 507.936981 -2038.8557129999999 0 0 1 0 
1 507.936981 -1726.4470209999999 0 -1 0 0 
1 144.61842300000001 -1726.4470209999999 0 0 -1 0 
1 144.61842300000001 -2038.8557129999999 0 1 0 0 
Polygon3D 0
PolygonOnTriangulations 0
Surfaces 30
1 1073.9468080000001 -506.72473150000008 -300 0 0 1 1 0 -0 -0 1 0 
1 266.95757649999996 -315.40902099999988 -299.99999999999994 0 0 1 1 0 -0 -0 1 0 
1 326.27770200000009 -1882.6513669999999 -300 0 0 1 1 0 -0 -0 1 0 
1 1073.9468079999999 -623.57562299999995 -75 -0 -1 -0 0 0 -1 1 -0 0 
1 1073.9468079999999 -623.57562299999995 -225 -0 -1 -0 0 0 -1 1 -0 0 
1 1282.845703 -506.72473149999996 -75 1 0 0 -0 0 1 0 -1 0 
1 1282.845703 -506.72473149999996 -225.00000000000003 1 0 0 -0 0 1 0 -1 0 
1 1073.9468079999999 -389.87383999999997 -75 0 1 0 0 -0 1 1 0 -0 
1 1073.9468079999999 -389.87383999999997 -225 0 1 0 0 -0 1 1 0 -0 
1 865.04791299999999 -506.72473149999996 -75 -1 -0 -0 0 0 -1 0 -1 0 
1 865.04791299999999 -506.72473149999996 -225.00000000000003 -1 -0 -0 0 0 -1 0 -1 0 
1 266.95757649999996 -592.35656700000004 -75 -0 -1 -0 0 0 -1 1 -0 0 
1 266.95757649999996 -592.35656700000004 -225.00000000000003 -0 -1 -0 0 0 -1 1 -0 0 
1 464.669464 -315.409021 -75 1 0 0 -0 0 1 0 -1 0 
1 464.669464 -315.409021 -225 1 0 0 -0 0 1 0 -1 0 
1 266.95757650000002 -38.461475000000007 -75 0 1 0 0 -0 1 1 0 -0 
1 266.95757650000002 -38.461475000000007 -225.00000000000003 0 1 0 0 -0 1 1 0 -0 
1 69.245688999999999 -315.40902099999994 -75 -1 -0 -0 0 0 -1 0 -1 0 
1 69.245688999999999 -315.40902099999994 -225 -1 -0 -0 0 0 -1 0 -1 0 
1 144.61842300000001 -1882.6513669999999 -75 -1 -0 -0 0 0 -1 0 -1 0 
1 144.61842300000001 -1882.6513669999999 -225 -1 -0 -0 0 0 -1 0 -1 0 
1 326.27770200000003 -1726.4470210000002 -75.000000000000014 0 1 0 0 -0 1 1 0 -0 
1 326.27770200000003 -1726.4470210000002 -225.00000000000006 0 1 0 0 -0 1 1 0 -0 
1 507.936981 -1882.6513669999999 -75 1 0 0 -0 0 1 0 -1 0 
1 507.936981 -1882.6513669999999 -225 1 0 0 -0 0 1 0 -1 0 
1 326.27770200000003 -2038.8557129999999 -75.000000000000014 -0 -1 -0 0 0 -1 1 -0 0 
1 326.27770200000003 -2038.8557129999999 -225.00000000000006 -0 -1 -0 0 0 -1 1 -0 0 
1 1073.9468080000001 -506.72473150000008 0 0 0 1 1 0 -0 -0 1 0 
1 266.95757649999996 -315.40902099999988 0 0 0 1 1 0 -0 -0 1 0 
1 326.27770200000009 -1882.6513669999999 0 0 0 1 1 0 -0 -0 1 0 
Triangulations 0

TShapes 302
Ve
1e-07
1282.845703 -389.87384 -300
0 0

0101101
*
Ve
1e-07
865.047913 -389.87384 -300
0 0

0101101
*
Ed
 1e-07 1 1 0
1  1 0 0 417.79779
0

0101000
+302 0 -301 0 *
Ve
1e-07
865.047913 -623.575623 -300
0 0

0101101
*
Ed
 1e-07 1 1 0
1  2 0 0 233.701783
0

0101000
+301 0 -299 0 *
Ve
1e-07
1282.845703 -623.575623 -300
0 0

0101101
*
Ed
 1e-07 1 1 0
1  3 0 0 417.79779
0

0101000
+299 0 -297 0 *
Ed
 1e-07 1 1 0
1  4 0 0 233.701783
0

0101000
+297 0 -302 0 *
Wi

0101100
+300 0 +298 0 +296 0 +295 0 *
Fa
0  1e-07 1 0

0111000
+294 0 *
Ve
1e-07
464.669464 -38.461475 -300
0 0

0101101
*
Ve
1e-07
69.245689 -38.461475 -300
0 0

0101101
*
Ed
 1e-07 1 1 0
1  5 0 0 395.423775
0

0101000
+292 0 -291 0 *
Ve
1e-07
69.245689 -592.356567 -300
0 0

0101101
*
Ed
 1e-07 1 1 0
1  6 0 0 553.895092
0

0101000
+291 0 -289 0 *
Ve
1e-07
464.669464 -592.356567 -300
0 0

0101101
*
Ed
 1e-07 1 1 0
1  7 0 0 395.423775
0

0101000
+289 0 -287 0 *
Ed
 1e-07 1 1 0
1  8 0 0 553.895092
0

0101000
+287 0 -292 0 *
Wi

0101100
+290 0 +288 0 +286 0 +285 0 *
Fa
0  1e-07 2 0

0111000
+284 0 *
Ve
1e-07
507.936981 -2038.855713 -300
0 0

0101101
*
Ve
1e-07
507.936981 -1726.447021 -300
0 0

0101101
*
Ed
 1e-07 1 1 0
1  9 0 0 312.408692
0

0101000
+282 0 -281 0 *
Ve
1e-07
144.618423 -1726.447021 -300
0 0

0101101
*
Ed
 1e-07 1 1 0
1  10 0 0 363.318558
0

0101000
+281 0 -279 0 *
Ve
1e-07
144.618423 -2038.855713 -300
0 0

0101101
*
Ed
 1e-07 1 1 0
1  11 0 0 312.408692
0

0101000
+279 0 -277 0 *
Ed
 1e-07 1 1 0
1  12 0 0 363.318558
0

0101000
+277 0 -282 0 *
Wi

0101100
+280 0 +278 0 +276 0 +275 0 *
Fa
0  1e-07 3 0

0111000
+274 0 *
Ve
1e-07
1282.845703 -623.575623 -150
0 0

0101101
*
Ve
1e-07
1282.845703 -623.575623 0
0 0

0101101
*
Ed
 1e-07 1 1 0
1  13 0 0 150
0

0101000
+272 0 -271 0 *
Ve
1e-07
865.047913 -623.575623 0
0 0

0101101
*
Ed
 1e-07 1 1 0
1  14 0 0 417.79779
0

0101000
+271 0 -269 0 *
Ve
1e-07
865.047913 -623.575623 -150
0 0

0101101
*
Ed
 1e-07 1 1 0
1  15 0 0 150
0

0101000
+269 0 -267 0 *
Ed
 1e-07 1 1 0
1  16 0 0 417.79779
0

0101000
+267 0 -272 0 *
Wi

0101100
+270 0 +268 0 +266 0 +265 0 *
Fa
0  1e-07 4 0

0111000
+264 0 *
Ve
1e-07
1282.845703 -623.575623 -300
0 0

0101101
*
Ve
1e-07
1282.845703 -623.575623 -150
0 0

0101101
*
Ed
 1e-07 1 1 0
1  17 0 0 150
0

0101000
+262 0 -261 0 *
Ve
1e-07
865.047913 -623.575623 -150
0 0

0101101
*
Ed
 1e-07 1 1 0
1  18 0 0 417.79779
0

0101000
+261 0 -259 0 *
Ve
1e-07
865.047913 -623.575623 -300
0 0

0101101
*
Ed
 1e-07 1 1 0
1  19 0 0 150
0

0101000
+259 0 -257 0 *
Ed
 1e-07 1 1 0
1  20 0 0 417.79779
0

0101000
+257 0 -262 0 *
Wi

0101100
+260 0 +258 0 +256 0 +255 0 *
Fa
0  1e-07 5 0

0111000
+254 0 *
Ve
1e-07
1282.845703 -389.87384 -150
0 0

0101101
*
Ve
1e-07
1282.845703 -389.87384 0
0 0

0101101
*
Ed
 1e-07 1 1 0
1  21 0 0 150
0

0101000
+252 0 -251 0 *
Ve
1e-07
1282.845703 -623.575623 0
0 0

0101101
*
Ed
 1e-07 1 1 0
1  22 0 0 233.701783
0

0101000
+251 0 -249 0 *
Ve
1e-07
1282.845703 -623.575623 -150
0 0

0101101
*
Ed
 1e-07 1 1 0
1  23 0 0 150
0

0101000
+249 0 -247 0 *
Ed
 1e-07 1 1 0
1  24 0 0 233.701783
0

0101000
+247 0 -252 0 *
Wi

0101100
+250 0 +248 0 +246 0 +245 0 *
Fa
0  1e-07 6 0

0111000
+244 0 *
Ve
1e-07
1282.845703 -389.87384 -300
0 0

0101101
*
Ve
1e-07
1282.845703 -389.87384 -150
0 0

0101101
*
Ed
 1e-07 1 1 0
1  25 0 0 150
0

0101000
+242 0 -241 0 *
Ve
1e-07
1282.845703 -623.575623 -150
0 0

0101101
*
Ed
 1e-07 1 1 0
1  26 0 0 233.701783
0

0101000
+241 0 -239 0 *
Ve
1e-07
1282.845703 -623.575623 -300
0 0

0101101
*
Ed
 1e-07 1 1 0
1  27 0 0 150
0

0101000
+239 0 -237 0 *
Ed
 1e-07 1 1 0
1  28 0 0 233.701783
0

0101000
+237 0 -242 0 *
Wi

0101100
+240 0 +238 0 +236 0 +235 0 *
Fa
0  1e-07 7 0

0111000
+234 0 *
Ve
1e-07
865.047913 -389.87384 -150
0 0

0101101
*
Ve
1e-07
865.047913 -389.87384 0
0 0

0101101
*
Ed
 1e-07 1 1 0
1  29 0 0 150
0

0101000
+232 0 -231 0 *
Ve
1e-07
1282.845703 -389.87384 0
0 0

0101101
*
Ed
 1e-07 1 1 0
1  30 0 0 417.79779
0

0101000
+231 0 -229 0 *
Ve
1e-07
1282.845703 -389.87384 -150
0 0

0101101
*
Ed
 1e-07 1 1 0
1  31 0 0 150
0

0101000
+229 0 -227 0 *
Ed
 1e-07 1 1 0
1  32 0 0 417.79779
0

0101000
+227 0 -232 0 *
Wi

0101100
+230 0 +228 0 +226 0 +225 0 *
Fa
0  1e-07 8 0

0111000
+224 0 *
Ve
1e-07
865.047913 -389.87384 -300
0 0

0101101
*
Ve
1e-07
865.047913 -389.87384 -150
0 0

0101101
*
Ed
 1e-07 1 1 0
1  33 0 0 150
0

0101000
+222 0 -221 0 *
Ve
1e-07
1282.845703 -389.87384 -150
0 0

0101101
*
Ed
 1e-07 1 1 0
1  34 0 0 417.79779
0

0101000
+221 0 -219 0 *
Ve
1e-07
1282.845703 -389.87384 -300
0 0

0101101
*
Ed
 1e-07 1 1 0
1  35 0 0 150
0

0101000
+219 0 -217 0 *
Ed
 1e-07 1 1 0
1  36 0 0 417.79779
0

0101000
+217 0 -222 0 *
Wi

0101100
+220 0 +218 0 +216 0 +215 0 *
Fa
0  1e-07 9 0

0111000
+214 0 *
Ve
1e-07
865.047913 -623.575623 -150
0 0

0101101
*
Ve
1e-07
865.047913 -623.575623 0
0 0

0101101
*
Ed
 1e-07 1 1 0
1  37 0 0 150
0

0101000
+212 0 -211 0 *
Ve
1e-07
865.047913 -389.87384 0
0 0

0101101
*
Ed
 1e-07 1 1 0
1  38 0 0 233.701783
0

0101000
+211 0 -209 0 *
Ve
1e-07
865.047913 -389.87384 -150
0 0

0101101
*
Ed
 1e-07 1 1 0
1  39 0 0 150
0

0101000
+209 0 -207 0 *
Ed
 1e-07 1 1 0
1  40 0 0 233.701783
0

0101000
+207 0 -212 0 *
Wi

0101100
+210 0 +208 0 +206 0 +205 0 *
Fa
0  1e-07 10 0

0111000
+204 0 *
Ve
1e-07
865.047913 -623.575623 -300
0 0

0101101
*
Ve
1e-07
865.047913 -623.575623 -150
0 0

0101101
*
Ed
 1e-07 1 1 0
1  41 0 0 150
0

0101000
+202 0 -201 0 *
Ve
1e-07
865.047913 -389.87384 -150
0 0

0101101
*
Ed
 1e-07 1 1 0
1  42 0 0 233.701783
0

0101000
+201 0 -199 0 *
Ve
1e-07
865.047913 -389.87384 -300
0 0

0101101
*
Ed
 1e-07 1 1 0
1  43 0 0 150
0

0101000
+199 0 -197 0 *
Ed
 1e-07 1 1 0
1  44 0 0 233.701783
0

0101000
+197 0 -202 0 *
Wi

0101100
+200 0 +198 0 +196 0 +195 0 *
Fa
0  1e-07 11 0

0111000
+194 0 *
Ve
1e-07
464.669464 -592.356567 -150
0 0

0101101
*
Ve
1e-07
464.669464 -592.356567 0
0 0

0101101
*
Ed
 1e-07 1 1 0
1  45 0 0 150
0

0101000
+192 0 -191 0 *
Ve
1e-07
69.245689 -592.356567 0
0 0

0101101
*
Ed
 1e-07 1 1 0
1  46 0 0 395.423775
0

0101000
+191 0 -189 0 *
Ve
1e-07
69.245689 -592.356567 -150
0 0

0101101
*
Ed
 1e-07 1 1 0
1  47 0 0 150
0

0101000
+189 0 -187 0 *
Ed
 1e-07 1 1 0
1  48 0 0 395.423775
0

0101000
+187 0 -192 0 *
Wi

0101100
+190 0 +188 0 +186 0 +185 0 *
Fa
0  1e-07 12 0

0111000
+184 0 *
Ve
1e-07
464.669464 -592.356567 -300
0 0

0101101
*
Ve
1e-07
464.669464 -592.356567 -150
0 0

0101101
*
Ed
 1e-07 1 1 0
1  49 0 0 150
0

0101000
+182 0 -181 0 *
Ve
1e-07
69.245689 -592.356567 -150
0 0

0101101
*
Ed
 1e-07 1 1 0
1  50 0 0 395.423775
0

0101000
+181 0 -179 0 *
Ve
1e-07
69.245689 -592.356567 -300
0 0

0101101
*
Ed
 1e-07 1 1 0
1  51 0 0 150
0

0101000
+179 0 -177 0 *
Ed
 1e-07 1 1 0
1  52 0 0 395.423775
0

0101000
+177 0 -182 0 *
Wi

0101100
+180 0 +178 0 +176 0 +175 0 *
Fa
0  1e-07 13 0

0111000
+174 0 *
Ve
1e-07
464.669464 -38.461475 -150
0 0

0101101
*
Ve
1e-07
464.669464 -38.461475 0
0 0

0101101
*
Ed
 1e-07 1 1 0
1  53 0 0 150
0

0101000
+172 0 -171 0 *
Ve
1e-07
464.669464 -592.356567 0
0 0

0101101
*
Ed
 1e-07 1 1 0
1  54 0 0 553.895092
0

0101000
+171 0 -169 0 *
Ve
1e-07
464.669464 -592.356567 -150
0 0

0101101
*
Ed
 1e-07 1 1 0
1  55 0 0 150
0

0101000
+169 0 -167 0 *
Ed
 1e-07 1 1 0
1  56 0 0 553.895092
0

0101000
+167 0 -172 0 *
Wi

0101100
+170 0 +168 0 +166 0 +165 0 *
Fa
0  1e-07 14 0

0111000
+164 0 *
Ve
1e-07
464.669464 -38.461475 -300
0 0

0101101
*
Ve
1e-07
464.669464 -38.461475 -150
0 0

0101101
*
Ed
 1e-07 1 1 0
1  57 0 0 150
0

0101000
+162 0 -161 0 *
Ve
1e-07
464.669464 -592.356567 -150
0 0

0101101
*
Ed
 1e-07 1 1 0
1  58 0 0 553.895092
0

0101000
+161 0 -159 0 *
Ve
1e-07
464.669464 -592.356567 -300
0 0

0101101
*
Ed
 1e-07 1 1 0
1  59 0 0 150
0

0101000
+159 0 -157 0 *
Ed
 1e-07 1 1 0
1  60 0 0 553.895092
0

0101000
+157 0 -162 0 *
Wi

0101100
+160 0 +158 0 +156 0 +155 0 *
Fa
0  1e-07 15 0

0111000
+154 0 *
Ve
1e-07
69.245689 -38.461475 -150
0 0

0101101
*
Ve
1e-07
69.245689 -38.461475 0
0 0

0101101
*
Ed
 1e-07 1 1 0
1  61 0 0 150
0

0101000
+152 0 -151 0 *
Ve
1e-07
464.669464 -38.461475 0
0 0

0101101
*
Ed
 1e-07 1 1 0
1  62 0 0 395.423775
0

0101000
+151 0 -149 0 *
Ve
1e-07
464.669464 -38.461475 -150
0 0

0101101
*
Ed
 1e-07 1 1 0
1  63 0 0 150
0

0101000
+149 0 -147 0 *
Ed
 1e-07 1 1 0
1  64 0 0 395.423775
0

0101000
+147 0 -152 0 *
Wi

0101100
+150 0 +148 0 +146 0 +145 0 *
Fa
0  1e-07 16 0

0111000
+144 0 *
Ve
1e-07
69.245689 -38.461475 -300
0 0

0101101
*
Ve
1e-07
69.245689 -38.461475 -150
0 0

0101101
*
Ed
 1e-07 1 1 0
1  65 0 0 150
0

0101000
+142 0 -141 0 *
Ve
1e-07
464.669464 -38.461475 -150
0 0

0101101
*
Ed
 1e-07 1 1 0
1  66 0 0 395.423775
0

0101000
+141 0 -139 0 *
Ve
1e-07
464.669464 -38.461475 -300
0 0

0101101
*
Ed
 1e-07 1 1 0
1  67 0 0 150
0

0101000
+139 0 -137 0 *
Ed
 1e-07 1 1 0
1  68 0 0 395.423775
0

0101000
+137 0 -142 0 *
Wi

0101100
+140 0 +138 0 +136 0 +135 0 *
Fa
0  1e-07 17 0

0111000
+134 0 *
Ve
1e-07
69.245689 -592.356567 -150
0 0

0101101
*
Ve
1e-07
69.245689 -592.356567 0
0 0

0101101
*
Ed
 1e-07 1 1 0
1  69 0 0 150
0

0101000
+132 0 -131 0 *
Ve
1e-07
69.245689 -38.461475 0
0 0

0101101
*
Ed
 1e-07 1 1 0
1  70 0 0 553.895092
0

0101000
+131 0 -129 0 *
Ve
1e-07
69.245689 -38.461475 -150
0 0

0101101
*
Ed
 1e-07 1 1 0
1  71 0 0 150
0

0101000
+129 0 -127 0 *
Ed
 1e-07 1 1 0
1  72 0 0 553.895092
0

0101000
+127 0 -132 0 *
Wi

0101100
+130 0 +128 0 +126 0 +125 0 *
Fa
0  1e-07 18 0

0111000
+124 0 *
Ve
1e-07
69.245689 -592.356567 -300
0 0

0101101
*
Ve
1e-07
69.245689 -592.356567 -150
0 0

0101101
*
Ed
 1e-07 1 1 0
1  73 0 0 150
0

0101000
+122 0 -121 0 *
Ve
1e-07
69.245689 -38.461475 -150
0 0

0101101
*
Ed
 1e-07 1 1 0
1  74 0 0 553.895092
0

0101000
+121 0 -119 0 *
Ve
1e-07
69.245689 -38.461475 -300
0 0

0101101
*
Ed
 1e-07 1 1 0
1  75 0 0 150
0

0101000
+119 0 -117 0 *
Ed
 1e-07 1 1 0
1  76 0 0 553.895092
0

0101000
+117 0 -122 0 *
Wi

0101100
+120 0 +118 0 +116 0 +115 0 *
Fa
0  1e-07 19 0

0111000
+114 0 *
Ve
1e-07
144.618423 -1726.447021 -150
0 0

0101101
*
Ve
1e-07
144.618423 -2038.855713 -150
0 0

0101101
*
Ed
 1e-07 1 1 0
1  77 0 0 312.408692
0

0101000
+112 0 -111 0 *
Ve
1e-07
144.618423 -2038.855713 0
0 0

0101101
*
Ed
 1e-07 1 1 0
1  78 0 0 150
0

0101000
+111 0 -109 0 *
Ve
1e-07
144.618423 -1726.447021 0
0 0

0101101
*
Ed
 1e-07 1 1 0
1  79 0 0 312.408692
0

0101000
+109 0 -107 0 *
Ed
 1e-07 1 1 0
1  80 0 0 150
0

0101000
+107 0 -112 0 *
Wi

0101100
+110 0 +108 0 +106 0 +105 0 *
Fa
0  1e-07 20 0

0111000
+104 0 *
Ve
1e-07
144.618423 -1726.447021 -300
0 0

0101101
*
Ve
1e-07
144.618423 -2038.855713 -300
0 0

0101101
*
Ed
 1e-07 1 1 0
1  81 0 0 312.408692
0

0101000
+102 0 -101 0 *
Ve
1e-07
144.618423 -2038.855713 -150
0 0

0101101
*
Ed
 1e-07 1 1 0
1  82 0 0 150
0

0101000
+101 0 -99 0 *
Ve
1e-07
144.618423 -1726.447021 -150
0 0

0101101
*
Ed
 1e-07 1 1 0
1  83 0 0 312.408692
0

0101000
+99 0 -97 0 *
Ed
 1e-07 1 1 0
1  84 0 0 150
0

0101000
+97 0 -102 0 *
Wi

0101100
+100 0 +98 0 +96 0 +95 0 *
Fa
0  1e-07 21 0

0111000
+94 0 *
Ve
1e-07
507.936981 -1726.447021 -150
0 0

0101101
*
Ve
1e-07
144.618423 -1726.447021 -150
0 0

0101101
*
Ed
 1e-07 1 1 0
1  85 0 0 363.318558
0

0101000
+92 0 -91 0 *
Ve
1e-07
144.618423 -1726.447021 0
0 0

0101101
*
Ed
 1e-07 1 1 0
1  86 0 0 150
0

0101000
+91 0 -89 0 *
Ve
1e-07
507.936981 -1726.447021 0
0 0

0101101
*
Ed
 1e-07 1 1 0
1  87 0 0 363.318558
0

0101000
+89 0 -87 0 *
Ed
 1e-07 1 1 0
1  88 0 0 150
0

0101000
+87 0 -92 0 *
Wi

0101100
+90 0 +88 0 +86 0 +85 0 *
Fa
0  1e-07 22 0

0111000
+84 0 *
Ve
1e-07
507.936981 -1726.447021 -300
0 0

0101101
*
Ve
1e-07
144.618423 -1726.447021 -300
0 0

0101101
*
Ed
 1e-07 1 1 0
1  89 0 0 363.318558
0

0101000
+82 0 -81 0 *
Ve
1e-07
144.618423 -1726.447021 -150
0 0

0101101
*
Ed
 1e-07 1 1 0
1  90 0 0 150
0

0101000
+81 0 -79 0 *
Ve
1e-07
507.936981 -1726.447021 -150
0 0

0101101
*
Ed
 1e-07 1 1 0
1  91 0 0 363.318558
0

0101000
+79 0 -77 0 *
Ed
 1e-07 1 1 0
1  92 0 0 150
0

0101000
+77 0 -82 0 *
Wi

0101100
+80 0 +78 0 +76 0 +75 0 *
Fa
0  1e-07 23 0

0111000
+74 0 *
Ve
1e-07
507.936981 -2038.855713 -150
0 0

0101101
*
Ve
1e-07
507.936981 -1726.447021 -150
0 0

0101101
*
Ed
 1e-07 1 1 0
1  93 0 0 312.408692
0

0101000
+72 0 -71 0 *
Ve
1e-07
507.936981 -1726.447021 0
0 0

0101101
*
Ed
 1e-07 1 1 0
1  94 0 0 150
0

0101000
+71 0 -69 0 *
Ve
1e-07
507.936981 -2038.855713 0
0 0

0101101
*
Ed
 1e-07 1 1 0
1  95 0 0 312.408692
0

0101000
+69 0 -67 0 *
Ed
 1e-07 1 1 0
1  96 0 0 150
0

0101000
+67 0 -72 0 *
Wi

0101100
+70 0 +68 0 +66 0 +65 0 *
Fa
0  1e-07 24 0

0111000
+64 0 *
Ve
1e-07
507.936981 -2038.855713 -300
0 0

0101101
*
Ve
1e-07
507.936981 -1726.447021 -300
0 0

0101101
*
Ed
 1e-07 1 1 0
1  97 0 0 312.408692
0

0101000
+62 0 -61 0 *
Ve
1e-07
507.936981 -1726.447021 -150
0 0

0101101
*
Ed
 1e-07 1 1 0
1  98 0 0 150
0

0101000
+61 0 -59 0 *
Ve
1e-07
507.936981 -2038.855713 -150
0 0

0101101
*
Ed
 1e-07 1 1 0
1  99 0 0 312.408692
0

0101000
+59 0 -57 0 *
Ed
 1e-07 1 1 0
1  100 0 0 150
0

0101000
+57 0 -62 0 *
Wi

0101100
+60 0 +58 0 +56 0 +55 0 *
Fa
0  1e-07 25 0

0111000
+54 0 *
Ve
1e-07
144.618423 -2038.855713 -150
0 0

0101101
*
Ve
1e-07
507.936981 -2038.855713 -150
0 0

0101101
*
Ed
 1e-07 1 1 0
1  101 0 0 363.318558
0

0101000
+52 0 -51 0 *
Ve
1e-07
507.936981 -2038.855713 0
0 0

0101101
*
Ed
 1e-07 1 1 0
1  102 0 0 150
0

0101000
+51 0 -49 0 *
Ve
1e-07
144.618423 -2038.855713 0
0 0

0101101
*
Ed
 1e-07 1 1 0
1  103 0 0 363.318558
0

0101000
+49 0 -47 0 *
Ed
 1e-07 1 1 0
1  104 0 0 150
0

0101000
+47 0 -52 0 *
Wi

0101100
+50 0 +48 0 +46 0 +45 0 *
Fa
0  1e-07 26 0

0111000
+44 0 *
Ve
1e-07
144.618423 -2038.855713 -300
0 0

0101101
*
Ve
1e-07
507.936981 -2038.855713 -300
0 0

0101101
*
Ed
 1e-07 1 1 0
1  105 0 0 363.318558
0

0101000
+42 0 -41 0 *
Ve
1e-07
507.936981 -2038.855713 -150
0 0

0101101
*
Ed
 1e-07 1 1 0
1  106 0 0 150
0

0101000
+41 0 -39 0 *
Ve
1e-07
144.618423 -2038.855713 -150
0 0

0101101
*
Ed
 1e-07 1 1 0
1  107 0 0 363.318558
0

0101000
+39 0 -37 0 *
Ed
 1e-07 1 1 0
1  108 0 0 150
0

0101000
+37 0 -42 0 *
Wi

0101100
+40 0 +38 0 +36 0 +35 0 *
Fa
0  1e-07 27 0

0111000
+34 0 *
Ve
1e-07
1282.845703 -389.87384 0
0 0

0101101
*
Ve
1e-07
865.047913 -389.87384 0
0 0

0101101
*
Ed
 1e-07 1 1 0
1  109 0 0 417.79779
0

0101000
+32 0 -31 0 *
Ve
1e-07
865.047913 -623.575623 0
0 0

0101101
*
Ed
 1e-07 1 1 0
1  110 0 0 233.701783
0

0101000
+31 0 -29 0 *
Ve
1e-07
1282.845703 -623.575623 0
0 0

0101101
*
Ed
 1e-07 1 1 0
1  111 0 0 417.79779
0

0101000
+29 0 -27 0 *
Ed
 1e-07 1 1 0
1  112 0 0 233.701783
0

0101000
+27 0 -32 0 *
Wi

0101100
+30 0 +28 0 +26 0 +25 0 *
Fa
0  1e-07 28 0

0111000
+24 0 *
Ve
1e-07
464.669464 -38.461475 0
0 0

0101101
*
Ve
1e-07
69.245689 -38.461475 0
0 0

0101101
*
Ed
 1e-07 1 1 0
1  113 0 0 395.423775
0

0101000
+22 0 -21 0 *
Ve
1e-07
69.245689 -592.356567 0
0 0

0101101
*
Ed
 1e-07 1 1 0
1  114 0 0 553.895092
0

0101000
+21 0 -19 0 *
Ve
1e-07
464.669464 -592.356567 0
0 0

0101101
*
Ed
 1e-07 1 1 0
1  115 0 0 395.423775
0

0101000
+19 0 -17 0 *
Ed
 1e-07 1 1 0
1  116 0 0 553.895092
0

0101000
+17 0 -22 0 *
Wi

0101100
+20 0 +18 0 +16 0 +15 0 *
Fa
0  1e-07 29 0

0111000
+14 0 *
Ve
1e-07
507.936981 -2038.855713 0
0 0

0101101
*
Ve
1e-07
507.936981 -1726.447021 0
0 0

0101101
*
Ed
 1e-07 1 1 0
1  117 0 0 312.408692
0

0101000
+12 0 -11 0 *
Ve
1e-07
144.618423 -1726.447021 0
0 0

0101101
*
Ed
 1e-07 1 1 0
1  118 0 0 363.318558
0

0101000
+11 0 -9 0 *
Ve
1e-07
144.618423 -2038.855713 0
0 0

0101101
*
Ed
 1e-07 1 1 0
1  119 0 0 312.408692
0

0101000
+9 0 -7 0 *
Ed
 1e-07 1 1 0
1  120 0 0 363.318558
0

0101000
+7 0 -12 0 *
Wi

0101100
+10 0 +8 0 +6 0 +5 0 *
Fa
0  1e-07 30 0

0111000
+4 0 *
Co

0100000
+293 0 +283 0 +273 0 +263 0 +253 0 +243 0 +233 0 +223 0 +213 0 +203 0 
+193 0 +183 0 +173 0 +163 0 +153 0 +143 0 +133 0 +123 0 +113 0 +103 0 
+93 0 +83 0 +73 0 +63 0 +53 0 +43 0 +33 0 +23 0 +13 0 +3 0 
*
Co

1100000
+2 0 *

+1 0 