# Rhino

mtllib basement units.mtl
usemtl Default
v 865.04791259765625 -300 623.57562255859375
v 865.04791259765625 -300 389.87384033203125
v 1282.845703125 -300 623.57562255859375
v 1282.845703125 -300 389.87384033203125
vn 0 1 0
vn 0 1 0
vn 0 1 0
vn 0 1 0
f 4//4 2//2 1//1 3//3
usemtl Default
v 69.245689392089844 -300 592.3565673828125
v 69.245689392089844 -300 38.461475372314453
v 464.66946411132812 -300 592.3565673828125
v 464.66946411132812 -300 38.461475372314453
vn 0 1 0
vn 0 1 0
vn 0 1 0
vn 0 1 0
f 8//8 6//6 5//5 7//7
usemtl Default
v 144.61842346191406 -300 1726.447021484375
v 144.61842346191406 -300 2038.855712890625
v 507.93698120117188 -300 1726.447021484375
v 507.93698120117188 -300 2038.855712890625
vn 0 1 0
vn 0 1 0
vn 0 1 0
vn 0 1 0
f 12//12 11//11 9//9 10//10
usemtl Default
v 1282.845703125 0 623.57562255859375
v 1282.845703125 -300 623.57562255859375
v 865.04791259765625 0 623.57562255859375
v 865.04791259765625 -300 623.57562255859375
v 865.04791259765625 -150 623.57562255859375
v 1282.845703125 -150 623.57562255859375
v 1282.845703125 0 389.87384033203125
v 1282.845703125 -300 389.87384033203125
v 1282.845703125 0 623.57562255859375
v 1282.845703125 -300 623.57562255859375
v 1282.845703125 -150 623.57562255859375
v 1282.845703125 -150 389.87384033203125
v 865.04791259765625 0 389.87384033203125
v 865.04791259765625 -300 389.87384033203125
v 1282.845703125 0 389.87384033203125
v 1282.845703125 -300 389.87384033203125
v 1282.845703125 -150 389.87384033203125
v 865.04791259765625 -150 389.87384033203125
v 865.04791259765625 0 623.57562255859375
v 865.04791259765625 -300 623.57562255859375
v 865.04791259765625 0 389.87384033203125
v 865.04791259765625 -300 389.87384033203125
v 865.04791259765625 -150 623.57562255859375
v 865.04791259765625 -150 389.87384033203125
vn 0 0 1
vn 0 0 1
vn 0 0 1
vn 0 0 1
vn 0 0 1
vn 0 0 1
vn 1 0 0
vn 1 0 0
vn 1 0 0
vn 1 0 0
vn 1 0 0
vn 1 0 0
vn 0 0 -1
vn 0 0 -1
vn 0 0 -1
vn 0 0 -1
vn 0 0 -1
vn 0 0 -1
vn -1 0 0
vn -1 0 0
vn -1 0 0
vn -1 0 0
vn -1 0 0
vn -1 0 0
f 18//18 13//13 15//15 17//17
f 14//14 18//18 17//17 16//16
f 24//24 19//19 21//21 23//23
f 20//20 24//24 23//23 22//22
f 30//30 25//25 27//27 29//29
f 26//26 30//30 29//29 28//28
f 35//35 31//31 33//33 36//36
f 32//32 35//35 36//36 34//34
usemtl Default
v 464.66946411132812 0 592.3565673828125
v 464.66946411132812 -300 592.3565673828125
v 69.245689392089844 0 592.3565673828125
v 69.245689392089844 -300 592.3565673828125
v 69.245689392089844 -150 592.3565673828125
v 464.66946411132812 -150 592.3565673828125
v 464.66946411132812 0 38.461475372314453
v 464.66946411132812 -300 38.461475372314453
v 464.66946411132812 0 592.3565673828125
v 464.66946411132812 -300 592.3565673828125
v 464.66946411132812 -150 592.3565673828125
v 464.66946411132812 -150 38.461475372314453
v 69.245689392089844 0 38.461475372314453
v 69.245689392089844 -300 38.461475372314453
v 464.66946411132812 0 38.461475372314453
v 464.66946411132812 -300 38.461475372314453
v 464.66946411132812 -150 38.461475372314453
v 69.245689392089844 -150 38.461475372314453
v 69.245689392089844 0 592.3565673828125
v 69.245689392089844 -300 592.3565673828125
v 69.245689392089844 0 38.461475372314453
v 69.245689392089844 -300 38.461475372314453
v 69.245689392089844 -150 592.3565673828125
v 69.245689392089844 -150 38.461475372314453
vn 0 0 1
vn 0 0 1
vn 0 0 1
vn 0 0 1
vn 0 0 1
vn 0 0 1
vn 1 0 0
vn 1 0 0
vn 1 0 0
vn 1 0 0
vn 1 0 0
vn 1 0 0
vn 0 0 -1
vn 0 0 -1
vn 0 0 -1
vn 0 0 -1
vn 0 0 -1
vn 0 0 -1
vn -1 0 0
vn -1 0 0
vn -1 0 0
vn -1 0 0
vn -1 0 0
vn -1 0 0
f 42//42 37//37 39//39 41//41
f 38//38 42//42 41//41 40//40
f 48//48 43//43 45//45 47//47
f 44//44 48//48 47//47 46//46
f 54//54 49//49 51//51 53//53
f 50//50 54//54 53//53 52//52
f 59//59 55//55 57//57 60//60
f 56//56 59//59 60//60 58//58
usemtl Default
v 144.61842346191406 0 1726.447021484375
v 144.61842346191406 -300 1726.447021484375
v 144.61842346191406 0 2038.855712890625
v 144.61842346191406 -300 2038.855712890625
v 144.61842346191406 -150 2038.855712890625
v 144.61842346191406 -150 1726.447021484375
v 507.93698120117188 0 1726.447021484375
v 507.93698120117188 -300 1726.447021484375
v 144.61842346191406 0 1726.447021484375
v 144.61842346191406 -300 1726.447021484375
v 144.61842346191406 -150 1726.447021484375
v 507.93698120117188 -150 1726.447021484375
v 507.93698120117188 0 2038.855712890625
v 507.93698120117188 -300 2038.855712890625
v 507.93698120117188 0 1726.447021484375
v 507.93698120117188 -300 1726.447021484375
v 507.93698120117188 -150 1726.447021484375
v 507.93698120117188 -150 2038.855712890625
v 144.61842346191406 0 2038.855712890625
v 144.61842346191406 -300 2038.855712890625
v 507.93698120117188 0 2038.855712890625
v 507.93698120117188 -300 2038.855712890625
v 144.61842346191406 -150 2038.855712890625
v 507.93698120117188 -150 2038.855712890625
vn -1 0 0
vn -1 0 0
vn -1 0 0
vn -1 0 0
vn -1 0 0
vn -1 0 0
vn 0 0 -1
vn 0 0 -1
vn 0 0 -1
vn 0 0 -1
vn 0 0 -1
vn 0 0 -1
vn 1 0 0
vn 1 0 0
vn 1 0 0
vn 1 0 0
vn 1 0 0
vn 1 0 0
vn 0 0 1
vn 0 0 1
vn 0 0 1
vn 0 0 1
vn 0 0 1
vn 0 0 1
f 66//66 65//65 63//63 61//61
f 62//62 64//64 65//65 66//66
f 72//72 71//71 69//69 67//67
f 68//68 70//70 71//71 72//72
f 78//78 77//77 75//75 73//73
f 74//74 76//76 77//77 78//78
f 83//83 84//84 81//81 79//79
f 80//80 82//82 84//84 83//83
usemtl Default
v 865.04791259765625 0 623.57562255859375
v 865.04791259765625 0 389.87384033203125
v 1282.845703125 0 623.57562255859375
v 1282.845703125 0 389.87384033203125
vn 0 1 0
vn 0 1 0
vn 0 1 0
vn 0 1 0
f 88//88 86//86 85//85 87//87
usemtl Default
v 69.245689392089844 0 592.3565673828125
v 69.245689392089844 0 38.461475372314453
v 464.66946411132812 0 592.3565673828125
v 464.66946411132812 0 38.461475372314453
vn 0 1 0
vn 0 1 0
vn 0 1 0
vn 0 1 0
f 92//92 90//90 89//89 91//91
usemtl Default
v 144.61842346191406 0 1726.447021484375
v 144.61842346191406 0 2038.855712890625
v 507.93698120117188 0 1726.447021484375
v 507.93698120117188 0 2038.855712890625
vn 0 1 0
vn 0 1 0
vn 0 1 0
vn 0 1 0
f 96//96 95//95 93//93 94//94
