# Rhino

mtllib door.mtl
usemtl Default
v 168.68692016601562 0 1502.9073486328125
v 168.68692016601562 210 1502.9073486328125
v 346.27545166015625 0 1502.9073486328125
v 346.27545166015625 210 1502.9073486328125
vn 0 0 1
vn 0 0 1
vn 0 0 1
vn 0 0 1
f 1//1 3//3 4//4 2//2
usemtl Default
v 691.799560546875 0 1808.940185546875
v 691.799560546875 210 1808.940185546875
v 691.799560546875 0 2016.2261962890625
v 691.799560546875 210 2016.2261962890625
vn -1 0 0
vn -1 0 0
vn -1 0 0
vn -1 0 0
f 5//5 7//7 8//8 6//6
usemtl Default
v 407.33990478515625 0 1954.821044921875
v 407.33990478515625 210 1954.821044921875
v 407.33990478515625 0 1747.53515625
v 407.33990478515625 210 1747.53515625
vn 1 0 0
vn 1 0 0
vn 1 0 0
vn 1 0 0
f 9//9 11//11 12//12 10//10
usemtl Default
v 1153.6689453125 0 1218.3013916015625
v 1153.6689453125 210 1218.3013916015625
v 1153.6689453125 0 1295.3184814453125
v 1153.6689453125 210 1295.3184814453125
vn -1 0 0
vn -1 0 0
vn -1 0 0
vn -1 0 0
f 13//13 15//15 16//16 14//14
usemtl Default
v 1031.2117919921875 0 1218.3013916015625
v 1031.2117919921875 210 1218.3013916015625
v 1031.2117919921875 0 1295.3184814453125
v 1031.2117919921875 210 1295.3184814453125
vn -1 0 0
vn -1 0 0
vn -1 0 0
vn -1 0 0
f 17//17 19//19 20//20 18//18
usemtl Default
v 1035.59326171875 0 857.27734375
v 1035.59326171875 210 857.27734375
v 1252.78955078125 0 857.27734375
v 1252.78955078125 210 857.27734375
vn 0 0 1
vn 0 0 1
vn 0 0 1
vn 0 0 1
f 21//21 23//23 24//24 22//22
usemtl Default
v 469.67572021484375 0 852.01214599609375
v 469.67572021484375 210 852.01214599609375
v 469.67572021484375 0 785.31134033203125
v 469.67572021484375 210 785.31134033203125
vn 1 0 0
vn 1 0 0
vn 1 0 0
vn 1 0 0
f 25//25 27//27 28//28 26//26
usemtl Default
v 178.70852661132812 0 760.1119384765625
v 178.70852661132812 210 760.1119384765625
v 101.69143676757812 0 760.1119384765625
v 101.69143676757812 210 760.1119384765625
vn 0 0 -1
vn 0 0 -1
vn 0 0 -1
vn 0 0 -1
f 29//29 31//31 32//32 30//30
usemtl Default
v 101.69143676757812 0 592.3565673828125
v 101.69143676757812 210 592.3565673828125
v 178.70852661132812 0 592.3565673828125
v 178.70852661132812 210 592.3565673828125
vn 0 0 1
vn 0 0 1
vn 0 0 1
vn 0 0 1
f 33//33 35//35 36//36 34//34
usemtl Default
v 464.66946411132812 0 231.24720764160156
v 464.66946411132812 210 231.24720764160156
v 464.66946411132812 0 124.07528686523438
v 464.66946411132812 210 124.07528686523438
vn 1 0 0
vn 1 0 0
vn 1 0 0
vn 1 0 0
f 37//37 39//39 40//40 38//38
usemtl Default
v 620.0677490234375 0 243.05271911621094
v 620.0677490234375 210 243.05271911621094
v 837.26409912109375 0 243.05271911621094
v 837.26409912109375 210 243.05271911621094
vn 0 0 1
vn 0 0 1
vn 0 0 1
vn 0 0 1
f 41//41 43//43 44//44 42//42
usemtl Default
v 168.68692313623052 0 1502.9073536743363
v 346.27545813143468 0 1502.9073536743363
cstype bspline
deg 1
curv 0 177.58853499520416 45 46
parm u 0 0 177.58853499520416 177.58853499520416
end
usemtl Default
v 691.79955412341724 0 1808.9402318931154
v 691.79955412341724 0 2016.2261983092676
cstype bspline
deg 1
curv 0 207.28596641615218 47 48
parm u 0 0 207.28596641615218 207.28596641615218
end
usemtl Default
v 407.3398995652982 0 1954.8210706097236
v 407.33989956529848 0 1747.5351041935714
cstype bspline
deg 1
curv 0 207.28596641615218 49 50
parm u 0 0 207.28596641615218 207.28596641615218
end
usemtl Default
v 1153.6689600104487 0 1218.3014395410744
v 1153.6689600104487 0 1295.3185183581161
cstype bspline
deg 1
curv 0 77.01707881704175 51 52
parm u 0 0 77.01707881704175 77.01707881704175
end
usemtl Default
v 1031.2118046913529 0 1218.3014395410746
v 1031.2118046913529 0 1295.3185183581163
cstype bspline
deg 1
curv 0 77.01707881704175 53 54
parm u 0 0 77.01707881704175 77.01707881704175
end
usemtl Default
v 1035.5932611063831 0 857.27734918909368
v 1252.7895733258715 0 857.27734918909368
cstype bspline
deg 1
curv 0 217.19631221948816 55 56
parm u 0 0 217.19631221948816 217.19631221948816
end
usemtl Default
v 469.6757094564008 0 852.01216344554723
v 469.67570945640068 0 785.31136830189064
cstype bspline
deg 1
curv 0 66.700795143656592 57 58
parm u 0 0 66.700795143656592 66.700795143656592
end
usemtl Default
v 178.70851929775972 0 760.11196325044398
v 101.69144048071797 0 760.11196325044398
cstype bspline
deg 1
curv 0 77.01707881704175 59 60
parm u 0 0 77.01707881704175 77.01707881704175
end
usemtl Default
v 101.69144048071797 0 592.35659401194766
v 178.70851929775972 0 592.35659401194766
cstype bspline
deg 1
curv 0 77.01707881704175 61 62
parm u 0 0 77.01707881704175 77.01707881704175
end
usemtl Default
v 464.6694546116521 0 231.24720378130291
v 464.6694546116521 0 124.0752898718745
cstype bspline
deg 1
curv 0 107.17191390942841 63 64
parm u 0 0 107.17191390942841 107.17191390942841
end
usemtl Default
v 620.06776936401229 0 243.05271301545832
v 837.26408158350046 0 243.05271301545832
cstype bspline
deg 1
curv 0 217.19631221948816 65 66
parm u 0 0 217.19631221948816 217.19631221948816
end
