# Rhino

mtllib double story units.mtl
usemtl Default
v 594.78167724609375 600 243.05271911621094
v 594.78167724609375 600 -35.152557373046875
v 1128.0504150390625 600 243.05271911621094
v 1128.0504150390625 600 -35.152557373046875
vn 0 1 0
vn 0 1 0
vn 0 1 0
vn 0 1 0
f 4//4 2//2 1//1 3//3
usemtl Default
v 1153.6689453125 600 1427.0946044921875
v 1153.6689453125 600 1201.7484130859375
v 1282.845703125 600 1427.0946044921875
v 1282.845703125 600 1201.7484130859375
vn 0 -1 0
vn 0 -1 0
vn 0 -1 0
vn 0 -1 0
f 8//8 7//7 5//5 6//6
usemtl Default
v 69.245689392089844 600 1502.5303955078125
v 69.245689392089844 600 1236.4581298828125
v 462.60330200195312 600 1502.5303955078125
v 462.60330200195312 600 1236.4581298828125
vn 0 -1 0
vn 0 -1 0
vn 0 -1 0
vn 0 -1 0
f 12//12 11//11 9//9 10//10
usemtl Default
v 865.04791259765625 600 857.27734375
v 865.04791259765625 600 389.87384033203125
v 1282.845703125 600 857.27734375
v 1282.845703125 600 389.87384033203125
vn 0 -1 0
vn 0 -1 0
vn 0 -1 0
vn 0 -1 0
f 16//16 15//15 13//13 14//14
usemtl Default
v 1128.0504150390625 0 243.05271911621094
v 1128.0504150390625 600 243.05271911621094
v 594.78167724609375 0 243.05271911621094
v 594.78167724609375 600 243.05271911621094
v 594.78167724609375 300 243.05271911621094
v 1128.0504150390625 300 243.05271911621094
v 1128.0504150390625 0 -35.152557373046875
v 1128.0504150390625 600 -35.152557373046875
v 1128.0504150390625 0 243.05271911621094
v 1128.0504150390625 600 243.05271911621094
v 1128.0504150390625 300 243.05271911621094
v 1128.0504150390625 300 -35.152557373046875
v 594.78167724609375 0 -35.152557373046875
v 594.78167724609375 600 -35.152557373046875
v 1128.0504150390625 0 -35.152557373046875
v 1128.0504150390625 600 -35.152557373046875
v 1128.0504150390625 300 -35.152557373046875
v 594.78167724609375 300 -35.152557373046875
v 594.78167724609375 0 243.05271911621094
v 594.78167724609375 600 243.05271911621094
v 594.78167724609375 0 -35.152557373046875
v 594.78167724609375 600 -35.152557373046875
v 594.78167724609375 300 243.05271911621094
v 594.78167724609375 300 -35.152557373046875
vn 0 0 -1
vn 0 0 -1
vn 0 0 -1
vn 0 0 -1
vn 0 0 -1
vn 0 0 -1
vn -1 0 0
vn -1 0 0
vn -1 0 0
vn -1 0 0
vn -1 0 0
vn -1 0 0
vn 0 0 1
vn 0 0 1
vn 0 0 1
vn 0 0 1
vn 0 0 1
vn 0 0 1
vn 1 0 0
vn 1 0 0
vn 1 0 0
vn 1 0 0
vn 1 0 0
vn 1 0 0
f 22//22 17//17 19//19 21//21
f 18//18 22//22 21//21 20//20
f 28//28 23//23 25//25 27//27
f 24//24 28//28 27//27 26//26
f 34//34 29//29 31//31 33//33
f 30//30 34//34 33//33 32//32
f 39//39 35//35 37//37 40//40
f 36//36 39//39 40//40 38//38
usemtl Default
v 1282.845703125 0 1427.0946044921875
v 1282.845703125 600 1427.0946044921875
v 1153.6689453125 0 1427.0946044921875
v 1153.6689453125 600 1427.0946044921875
v 1153.6689453125 300 1427.0946044921875
v 1282.845703125 300 1427.0946044921875
v 1282.845703125 0 1201.7484130859375
v 1282.845703125 600 1201.7484130859375
v 1282.845703125 0 1427.0946044921875
v 1282.845703125 600 1427.0946044921875
v 1282.845703125 300 1427.0946044921875
v 1282.845703125 300 1201.7484130859375
v 1153.6689453125 0 1201.7484130859375
v 1153.6689453125 600 1201.7484130859375
v 1282.845703125 0 1201.7484130859375
v 1282.845703125 600 1201.7484130859375
v 1282.845703125 300 1201.7484130859375
v 1153.6689453125 300 1201.7484130859375
v 1153.6689453125 0 1427.0946044921875
v 1153.6689453125 600 1427.0946044921875
v 1153.6689453125 0 1201.7484130859375
v 1153.6689453125 600 1201.7484130859375
v 1153.6689453125 300 1427.0946044921875
v 1153.6689453125 300 1201.7484130859375
vn 0 0 1
vn 0 0 1
vn 0 0 1
vn 0 0 1
vn 0 0 1
vn 0 0 1
vn 1 0 0
vn 1 0 0
vn 1 0 0
vn 1 0 0
vn 1 0 0
vn 1 0 0
vn 0 0 -1
vn 0 0 -1
vn 0 0 -1
vn 0 0 -1
vn 0 0 -1
vn 0 0 -1
vn -1 0 0
vn -1 0 0
vn -1 0 0
vn -1 0 0
vn -1 0 0
vn -1 0 0
f 46//46 45//45 43//43 41//41
f 42//42 44//44 45//45 46//46
f 52//52 51//51 49//49 47//47
f 48//48 50//50 51//51 52//52
f 58//58 57//57 55//55 53//53
f 54//54 56//56 57//57 58//58
f 63//63 64//64 61//61 59//59
f 60//60 62//62 64//64 63//63
usemtl Default
v 462.60330200195312 0 1502.5303955078125
v 462.60330200195312 600 1502.5303955078125
v 69.245689392089844 0 1502.5303955078125
v 69.245689392089844 600 1502.5303955078125
v 69.245689392089844 300 1502.5303955078125
v 462.60330200195312 300 1502.5303955078125
v 462.60330200195312 0 1236.4581298828125
v 462.60330200195312 600 1236.4581298828125
v 462.60330200195312 0 1502.5303955078125
v 462.60330200195312 600 1502.5303955078125
v 462.60330200195312 300 1502.5303955078125
v 462.60330200195312 300 1236.4581298828125
v 69.245689392089844 0 1236.4581298828125
v 69.245689392089844 600 1236.4581298828125
v 462.60330200195312 0 1236.4581298828125
v 462.60330200195312 600 1236.4581298828125
v 462.60330200195312 300 1236.4581298828125
v 69.245689392089844 300 1236.4581298828125
v 69.245689392089844 0 1502.5303955078125
v 69.245689392089844 600 1502.5303955078125
v 69.245689392089844 0 1236.4581298828125
v 69.245689392089844 600 1236.4581298828125
v 69.245689392089844 300 1502.5303955078125
v 69.245689392089844 300 1236.4581298828125
vn 0 0 1
vn 0 0 1
vn 0 0 1
vn 0 0 1
vn 0 0 1
vn 0 0 1
vn 1 0 0
vn 1 0 0
vn 1 0 0
vn 1 0 0
vn 1 0 0
vn 1 0 0
vn 0 0 -1
vn 0 0 -1
vn 0 0 -1
vn 0 0 -1
vn 0 0 -1
vn 0 0 -1
vn -1 0 0
vn -1 0 0
vn -1 0 0
vn -1 0 0
vn -1 0 0
vn -1 0 0
f 70//70 69//69 67//67 65//65
f 66//66 68//68 69//69 70//70
f 76//76 75//75 73//73 71//71
f 72//72 74//74 75//75 76//76
f 82//82 81//81 79//79 77//77
f 78//78 80//80 81//81 82//82
f 87//87 88//88 85//85 83//83
f 84//84 86//86 88//88 87//87
usemtl Default
v 1282.845703125 0 857.27734375
v 1282.845703125 600 857.27734375
v 865.04791259765625 0 857.27734375
v 865.04791259765625 600 857.27734375
v 865.04791259765625 300 857.27734375
v 1282.845703125 300 857.27734375
v 1282.845703125 0 389.87384033203125
v 1282.845703125 600 389.87384033203125
v 1282.845703125 0 857.27734375
v 1282.845703125 600 857.27734375
v 1282.845703125 300 857.27734375
v 1282.845703125 300 389.87384033203125
v 865.04791259765625 0 389.87384033203125
v 865.04791259765625 600 389.87384033203125
v 1282.845703125 0 389.87384033203125
v 1282.845703125 600 389.87384033203125
v 1282.845703125 300 389.87384033203125
v 865.04791259765625 300 389.87384033203125
v 865.04791259765625 0 857.27734375
v 865.04791259765625 600 857.27734375
v 865.04791259765625 0 389.87384033203125
v 865.04791259765625 600 389.87384033203125
v 865.04791259765625 300 857.27734375
v 865.04791259765625 300 389.87384033203125
vn 0 0 1
vn 0 0 1
vn 0 0 1
vn 0 0 1
vn 0 0 1
vn 0 0 1
vn 1 0 0
vn 1 0 0
vn 1 0 0
vn 1 0 0
vn 1 0 0
vn 1 0 0
vn 0 0 -1
vn 0 0 -1
vn 0 0 -1
vn 0 0 -1
vn 0 0 -1
vn 0 0 -1
vn -1 0 0
vn -1 0 0
vn -1 0 0
vn -1 0 0
vn -1 0 0
vn -1 0 0
f 94//94 93//93 91//91 89//89
f 90//90 92//92 93//93 94//94
f 100//100 99//99 97//97 95//95
f 96//96 98//98 99//99 100//100
f 106//106 105//105 103//103 101//101
f 102//102 104//104 105//105 106//106
f 111//111 112//112 109//109 107//107
f 108//108 110//110 112//112 111//111
usemtl Default
v 594.78167724609375 0 243.05271911621094
v 594.78167724609375 0 -35.152557373046875
v 1128.0504150390625 0 243.05271911621094
v 1128.0504150390625 0 -35.152557373046875
vn 0 1 0
vn 0 1 0
vn 0 1 0
vn 0 1 0
f 116//116 114//114 113//113 115//115
usemtl Default
v 1153.6689453125 0 1427.0946044921875
v 1153.6689453125 0 1201.7484130859375
v 1282.845703125 0 1427.0946044921875
v 1282.845703125 0 1201.7484130859375
vn 0 -1 0
vn 0 -1 0
vn 0 -1 0
vn 0 -1 0
f 120//120 119//119 117//117 118//118
usemtl Default
v 69.245689392089844 0 1502.5303955078125
v 69.245689392089844 0 1236.4581298828125
v 462.60330200195312 0 1502.5303955078125
v 462.60330200195312 0 1236.4581298828125
vn 0 -1 0
vn 0 -1 0
vn 0 -1 0
vn 0 -1 0
f 124//124 123//123 121//121 122//122
usemtl Default
v 865.04791259765625 0 857.27734375
v 865.04791259765625 0 389.87384033203125
v 1282.845703125 0 857.27734375
v 1282.845703125 0 389.87384033203125
vn 0 -1 0
vn 0 -1 0
vn 0 -1 0
vn 0 -1 0
f 128//128 127//127 125//125 126//126
usemtl Default
v 14.999107360839844 0 -71.248863220214844
v 1319.0001220703125 0 -71.248863220214844
v 14.999107360839844 0 2127.09765625
v 1319.0001220703125 0 2127.09765625
vn 0 1 0
vn 0 1 0
vn 0 1 0
vn 0 1 0
f 129//129 131//131 132//132 130//130
usemtl Default
v 1319.0001074179543 0 -71.24886463594521
v 14.999107403328736 0 -71.24886463594521
cstype bspline
deg 1
curv 5700.6940244089947 7004.6950244236205 133 134
parm u 5700.6940244089947 5700.6940244089947 7004.6950244236205 7004.6950244236205
end
usemtl Default
v 14.999107403328736 0 2127.0976475612392
v 1319.0001074179543 0 2127.0976475612392
cstype bspline
deg 1
curv 2198.3465121971844 3502.3475122118098 135 136
parm u 2198.3465121971844 2198.3465121971844 3502.3475122118098 3502.3475122118098
end
usemtl Default
v 14.999107403328736 0 -71.24886463594521
v 14.999107403328736 0 2127.0976475612392
cstype bspline
deg 1
curv 0 2198.3465121971844 137 138
parm u 0 0 2198.3465121971844 2198.3465121971844
end
