# Rhino

mtllib ground level.mtl
usemtl Default
v 14.999107360839844 -2 -71.248863220214844
v 1319.0001220703125 -2 -71.248863220214844
v 14.999107360839844 -2 2127.09765625
v 1319.0001220703125 -2 2127.09765625
vn 0 1 0
vn 0 1 0
vn 0 1 0
vn 0 1 0
f 1//1 3//3 4//4 2//2
usemtl Default
v 14.999107360839844 0 2127.09765625
v 14.999107360839844 -2 2127.09765625
v 14.999107360839844 0 2115.150146484375
v 14.999107360839844 -2 2115.150146484375
v 14.999107360839844 0 2103.20263671875
v 14.999107360839844 -2 2103.20263671875
v 14.999107360839844 0 2091.255126953125
v 14.999107360839844 -2 2091.255126953125
v 14.999107360839844 0 2079.3076171875
v 14.999107360839844 -2 2079.3076171875
v 14.999107360839844 0 2067.35986328125
v 14.999107360839844 -2 2067.35986328125
v 14.999107360839844 0 2055.412353515625
v 14.999107360839844 -2 2055.412353515625
v 14.999107360839844 0 2043.46484375
v 14.999107360839844 -2 2043.46484375
v 14.999107360839844 0 2031.517333984375
v 14.999107360839844 -2 2031.517333984375
v 14.999107360839844 0 2019.56982421875
v 14.999107360839844 -2 2019.56982421875
v 14.999107360839844 0 2007.622314453125
v 14.999107360839844 -2 2007.622314453125
v 14.999107360839844 0 1995.6748046875
v 14.999107360839844 -2 1995.6748046875
v 14.999107360839844 0 1983.7271728515625
v 14.999107360839844 -2 1983.7271728515625
v 14.999107360839844 0 1971.7796630859375
v 14.999107360839844 -2 1971.7796630859375
v 14.999107360839844 0 1959.8321533203125
v 14.999107360839844 -2 1959.8321533203125
v 14.999107360839844 0 1947.8846435546875
v 14.999107360839844 -2 1947.8846435546875
v 14.999107360839844 0 1935.9371337890625
v 14.999107360839844 -2 1935.9371337890625
v 14.999107360839844 0 1923.989501953125
v 14.999107360839844 -2 1923.989501953125
v 14.999107360839844 0 1912.0419921875
v 14.999107360839844 -2 1912.0419921875
v 14.999107360839844 0 1900.094482421875
v 14.999107360839844 -2 1900.094482421875
v 14.999107360839844 0 1888.14697265625
v 14.999107360839844 -2 1888.14697265625
v 14.999107360839844 0 1876.199462890625
v 14.999107360839844 -2 1876.199462890625
v 14.999107360839844 0 1864.2518310546875
v 14.999107360839844 -2 1864.2518310546875
v 14.999107360839844 0 1852.3043212890625
v 14.999107360839844 -2 1852.3043212890625
v 14.999107360839844 0 1840.3568115234375
v 14.999107360839844 -2 1840.3568115234375
v 14.999107360839844 0 1828.4093017578125
v 14.999107360839844 -2 1828.4093017578125
v 14.999107360839844 0 1816.461669921875
v 14.999107360839844 -2 1816.461669921875
v 14.999107360839844 0 1804.51416015625
v 14.999107360839844 -2 1804.51416015625
v 14.999107360839844 0 1792.566650390625
v 14.999107360839844 -2 1792.566650390625
v 14.999107360839844 0 1780.619140625
v 14.999107360839844 -2 1780.619140625
v 14.999107360839844 0 1768.671630859375
v 14.999107360839844 -2 1768.671630859375
v 14.999107360839844 0 1756.7239990234375
v 14.999107360839844 -2 1756.7239990234375
v 14.999107360839844 0 1744.7764892578125
v 14.999107360839844 -2 1744.7764892578125
v 14.999107360839844 0 1732.8289794921875
v 14.999107360839844 -2 1732.8289794921875
v 14.999107360839844 0 1720.8814697265625
v 14.999107360839844 -2 1720.8814697265625
v 14.999107360839844 0 1708.9339599609375
v 14.999107360839844 -2 1708.9339599609375
v 14.999107360839844 0 1696.986328125
v 14.999107360839844 -2 1696.986328125
v 14.999107360839844 0 1685.038818359375
v 14.999107360839844 -2 1685.038818359375
v 14.999107360839844 0 1673.09130859375
v 14.999107360839844 -2 1673.09130859375
v 14.999107360839844 0 1661.143798828125
v 14.999107360839844 -2 1661.143798828125
v 14.999107360839844 0 1649.1962890625
v 14.999107360839844 -2 1649.1962890625
v 14.999107360839844 0 1637.2486572265625
v 14.999107360839844 -2 1637.2486572265625
v 14.999107360839844 0 1625.3011474609375
v 14.999107360839844 -2 1625.3011474609375
v 14.999107360839844 0 1613.3536376953125
v 14.999107360839844 -2 1613.3536376953125
v 14.999107360839844 0 1601.4061279296875
v 14.999107360839844 -2 1601.4061279296875
v 14.999107360839844 0 1589.45849609375
v 14.999107360839844 -2 1589.45849609375
v 14.999107360839844 0 1577.510986328125
v 14.999107360839844 -2 1577.510986328125
v 14.999107360839844 0 1565.5634765625
v 14.999107360839844 -2 1565.5634765625
v 14.999107360839844 0 1553.615966796875
v 14.999107360839844 -2 1553.615966796875
v 14.999107360839844 0 1541.66845703125
v 14.999107360839844 -2 1541.66845703125
v 14.999107360839844 0 1529.7208251953125
v 14.999107360839844 -2 1529.7208251953125
v 14.999107360839844 0 1517.7733154296875
v 14.999107360839844 -2 1517.7733154296875
v 14.999107360839844 0 1505.8258056640625
v 14.999107360839844 -2 1505.8258056640625
v 14.999107360839844 0 1493.8782958984375
v 14.999107360839844 -2 1493.8782958984375
v 14.999107360839844 0 1481.9307861328125
v 14.999107360839844 -2 1481.9307861328125
v 14.999107360839844 0 1469.983154296875
v 14.999107360839844 -2 1469.983154296875
v 14.999107360839844 0 1458.03564453125
v 14.999107360839844 -2 1458.03564453125
v 14.999107360839844 0 1446.088134765625
v 14.999107360839844 -2 1446.088134765625
v 14.999107360839844 0 1434.140625
v 14.999107360839844 -2 1434.140625
v 14.999107360839844 0 1422.193115234375
v 14.999107360839844 -2 1422.193115234375
v 14.999107360839844 0 1410.2454833984375
v 14.999107360839844 -2 1410.2454833984375
v 14.999107360839844 0 1398.2979736328125
v 14.999107360839844 -2 1398.2979736328125
v 14.999107360839844 0 1386.3504638671875
v 14.999107360839844 -2 1386.3504638671875
v 14.999107360839844 0 1374.4029541015625
v 14.999107360839844 -2 1374.4029541015625
v 14.999107360839844 0 1362.455322265625
v 14.999107360839844 -2 1362.455322265625
v 14.999107360839844 0 1350.5078125
v 14.999107360839844 -2 1350.5078125
v 14.999107360839844 0 1338.560302734375
v 14.999107360839844 -2 1338.560302734375
v 14.999107360839844 0 1326.61279296875
v 14.999107360839844 -2 1326.61279296875
v 14.999107360839844 0 1314.665283203125
v 14.999107360839844 -2 1314.665283203125
v 14.999107360839844 0 1302.7176513671875
v 14.999107360839844 -2 1302.7176513671875
v 14.999107360839844 0 1290.7701416015625
v 14.999107360839844 -2 1290.7701416015625
v 14.999107360839844 0 1278.8226318359375
v 14.999107360839844 -2 1278.8226318359375
v 14.999107360839844 0 1266.8751220703125
v 14.999107360839844 -2 1266.8751220703125
v 14.999107360839844 0 1254.9276123046875
v 14.999107360839844 -2 1254.9276123046875
v 14.999107360839844 0 1242.97998046875
v 14.999107360839844 -2 1242.97998046875
v 14.999107360839844 0 1231.032470703125
v 14.999107360839844 -2 1231.032470703125
v 14.999107360839844 0 1219.0849609375
v 14.999107360839844 -2 1219.0849609375
v 14.999107360839844 0 1207.137451171875
v 14.999107360839844 -2 1207.137451171875
v 14.999107360839844 0 1195.18994140625
v 14.999107360839844 -2 1195.18994140625
v 14.999107360839844 0 1183.2423095703125
v 14.999107360839844 -2 1183.2423095703125
v 14.999107360839844 0 1171.2947998046875
v 14.999107360839844 -2 1171.2947998046875
v 14.999107360839844 0 1159.3472900390625
v 14.999107360839844 -2 1159.3472900390625
v 14.999107360839844 0 1147.3997802734375
v 14.999107360839844 -2 1147.3997802734375
v 14.999107360839844 0 1135.4522705078125
v 14.999107360839844 -2 1135.4522705078125
v 14.999107360839844 0 1123.504638671875
v 14.999107360839844 -2 1123.504638671875
v 14.999107360839844 0 1111.55712890625
v 14.999107360839844 -2 1111.55712890625
v 14.999107360839844 0 1099.609619140625
v 14.999107360839844 -2 1099.609619140625
v 14.999107360839844 0 1087.662109375
v 14.999107360839844 -2 1087.662109375
v 14.999107360839844 0 1075.7144775390625
v 14.999107360839844 -2 1075.7144775390625
v 14.999107360839844 0 1063.7669677734375
v 14.999107360839844 -2 1063.7669677734375
v 14.999107360839844 0 1051.8194580078125
v 14.999107360839844 -2 1051.8194580078125
v 14.999107360839844 0 1039.8719482421875
v 14.999107360839844 -2 1039.8719482421875
v 14.999107360839844 0 1027.9244384765625
v 14.999107360839844 -2 1027.9244384765625
v 14.999107360839844 0 1015.9768676757812
v 14.999107360839844 -2 1015.9768676757812
v 14.999107360839844 0 1004.029296875
v 14.999107360839844 -2 1004.029296875
v 14.999107360839844 0 992.081787109375
v 14.999107360839844 -2 992.081787109375
v 14.999107360839844 0 980.13427734375
v 14.999107360839844 -2 980.13427734375
v 14.999107360839844 0 968.18670654296875
v 14.999107360839844 -2 968.18670654296875
v 14.999107360839844 0 956.23919677734375
v 14.999107360839844 -2 956.23919677734375
v 14.999107360839844 0 944.2916259765625
v 14.999107360839844 -2 944.2916259765625
v 14.999107360839844 0 932.3441162109375
v 14.999107360839844 -2 932.3441162109375
v 14.999107360839844 0 920.39654541015625
v 14.999107360839844 -2 920.39654541015625
v 14.999107360839844 0 908.44903564453125
v 14.999107360839844 -2 908.44903564453125
v 14.999107360839844 0 896.50152587890625
v 14.999107360839844 -2 896.50152587890625
v 14.999107360839844 0 884.553955078125
v 14.999107360839844 -2 884.553955078125
v 14.999107360839844 0 872.6064453125
v 14.999107360839844 -2 872.6064453125
v 14.999107360839844 0 860.65887451171875
v 14.999107360839844 -2 860.65887451171875
v 14.999107360839844 0 848.71136474609375
v 14.999107360839844 -2 848.71136474609375
v 14.999107360839844 0 836.76385498046875
v 14.999107360839844 -2 836.76385498046875
v 14.999107360839844 0 824.8162841796875
v 14.999107360839844 -2 824.8162841796875
v 14.999107360839844 0 812.8687744140625
v 14.999107360839844 -2 812.8687744140625
v 14.999107360839844 0 800.92120361328125
v 14.999107360839844 -2 800.92120361328125
v 14.999107360839844 0 788.97369384765625
v 14.999107360839844 -2 788.97369384765625
v 14.999107360839844 0 777.026123046875
v 14.999107360839844 -2 777.026123046875
v 14.999107360839844 0 765.07861328125
v 14.999107360839844 -2 765.07861328125
v 14.999107360839844 0 753.131103515625
v 14.999107360839844 -2 753.131103515625
v 14.999107360839844 0 741.18353271484375
v 14.999107360839844 -2 741.18353271484375
v 14.999107360839844 0 729.23602294921875
v 14.999107360839844 -2 729.23602294921875
v 14.999107360839844 0 717.2884521484375
v 14.999107360839844 -2 717.2884521484375
v 14.999107360839844 0 705.3409423828125
v 14.999107360839844 -2 705.3409423828125
v 14.999107360839844 0 693.39337158203125
v 14.999107360839844 -2 693.39337158203125
v 14.999107360839844 0 681.44586181640625
v 14.999107360839844 -2 681.44586181640625
v 14.999107360839844 0 669.49835205078125
v 14.999107360839844 -2 669.49835205078125
v 14.999107360839844 0 657.55078125
v 14.999107360839844 -2 657.55078125
v 14.999107360839844 0 645.603271484375
v 14.999107360839844 -2 645.603271484375
v 14.999107360839844 0 633.65570068359375
v 14.999107360839844 -2 633.65570068359375
v 14.999107360839844 0 621.70819091796875
v 14.999107360839844 -2 621.70819091796875
v 14.999107360839844 0 609.76068115234375
v 14.999107360839844 -2 609.76068115234375
v 14.999107360839844 0 597.8131103515625
v 14.999107360839844 -2 597.8131103515625
v 14.999107360839844 0 585.8656005859375
v 14.999107360839844 -2 585.8656005859375
v 14.999107360839844 0 573.91802978515625
v 14.999107360839844 -2 573.91802978515625
v 14.999107360839844 0 561.97052001953125
v 14.999107360839844 -2 561.97052001953125
v 14.999107360839844 0 550.02294921875
v 14.999107360839844 -2 550.02294921875
v 14.999107360839844 0 538.075439453125
v 14.999107360839844 -2 538.075439453125
v 14.999107360839844 0 526.1279296875
v 14.999107360839844 -2 526.1279296875
v 14.999107360839844 0 514.18035888671875
v 14.999107360839844 -2 514.18035888671875
v 14.999107360839844 0 502.23284912109375
v 14.999107360839844 -2 502.23284912109375
v 14.999107360839844 0 490.28530883789062
v 14.999107360839844 -2 490.28530883789062
v 14.999107360839844 0 478.3377685546875
v 14.999107360839844 -2 478.3377685546875
v 14.999107360839844 0 466.39022827148438
v 14.999107360839844 -2 466.39022827148438
v 14.999107360839844 0 454.44268798828125
v 14.999107360839844 -2 454.44268798828125
v 14.999107360839844 0 442.49514770507812
v 14.999107360839844 -2 442.49514770507812
v 14.999107360839844 0 430.547607421875
v 14.999107360839844 -2 430.547607421875
v 14.999107360839844 0 418.60009765625
v 14.999107360839844 -2 418.60009765625
v 14.999107360839844 0 406.65255737304688
v 14.999107360839844 -2 406.65255737304688
v 14.999107360839844 0 394.70501708984375
v 14.999107360839844 -2 394.70501708984375
v 14.999107360839844 0 382.75747680664062
v 14.999107360839844 -2 382.75747680664062
v 14.999107360839844 0 370.8099365234375
v 14.999107360839844 -2 370.8099365234375
v 14.999107360839844 0 358.86239624023438
v 14.999107360839844 -2 358.86239624023438
v 14.999107360839844 0 346.91488647460938
v 14.999107360839844 -2 346.91488647460938
v 14.999107360839844 0 334.96734619140625
v 14.999107360839844 -2 334.96734619140625
v 14.999107360839844 0 323.01980590820312
v 14.999107360839844 -2 323.01980590820312
v 14.999107360839844 0 311.072265625
v 14.999107360839844 -2 311.072265625
v 14.999107360839844 0 299.12472534179688
v 14.999107360839844 -2 299.12472534179688
v 14.999107360839844 0 287.17718505859375
v 14.999107360839844 -2 287.17718505859375
v 14.999107360839844 0 275.22967529296875
v 14.999107360839844 -2 275.22967529296875
v 14.999107360839844 0 263.28213500976562
v 14.999107360839844 -2 263.28213500976562
v 14.999107360839844 0 251.3345947265625
v 14.999107360839844 -2 251.3345947265625
v 14.999107360839844 0 239.38705444335938
v 14.999107360839844 -2 239.38705444335938
v 14.999107360839844 0 227.43951416015625
v 14.999107360839844 -2 227.43951416015625
v 14.999107360839844 0 215.49198913574219
v 14.999107360839844 -2 215.49198913574219
v 14.999107360839844 0 203.54444885253906
v 14.999107360839844 -2 203.54444885253906
v 14.999107360839844 0 191.59690856933594
v 14.999107360839844 -2 191.59690856933594
v 14.999107360839844 0 179.64938354492188
v 14.999107360839844 -2 179.64938354492188
v 14.999107360839844 0 167.70184326171875
v 14.999107360839844 -2 167.70184326171875
v 14.999107360839844 0 155.75430297851562
v 14.999107360839844 -2 155.75430297851562
v 14.999107360839844 0 143.80677795410156
v 14.999107360839844 -2 143.80677795410156
v 14.999107360839844 0 131.85923767089844
v 14.999107360839844 -2 131.85923767089844
v 14.999107360839844 0 119.91170501708984
v 14.999107360839844 -2 119.91170501708984
v 14.999107360839844 0 107.96416473388672
v 14.999107360839844 -2 107.96416473388672
v 14.999107360839844 0 96.016632080078125
v 14.999107360839844 -2 96.016632080078125
v 14.999107360839844 0 84.069091796875
v 14.999107360839844 -2 84.069091796875
v 14.999107360839844 0 72.121559143066406
v 14.999107360839844 -2 72.121559143066406
v 14.999107360839844 0 60.174026489257812
v 14.999107360839844 -2 60.174026489257812
v 14.999107360839844 0 48.226490020751953
v 14.999107360839844 -2 48.226490020751953
v 14.999107360839844 0 36.278953552246094
v 14.999107360839844 -2 36.278953552246094
v 14.999107360839844 0 24.331418991088867
v 14.999107360839844 -2 24.331418991088867
v 14.999107360839844 0 12.383883476257324
v 14.999107360839844 -2 12.383883476257324
v 14.999107360839844 0 0.43634772300720215
v 14.999107360839844 -2 0.43634772300720215
v 14.999107360839844 0 -11.511187553405762
v 14.999107360839844 -2 -11.511187553405762
v 14.999107360839844 0 -23.458723068237305
v 14.999107360839844 -2 -23.458723068237305
v 14.999107360839844 0 -35.406257629394531
v 14.999107360839844 -2 -35.406257629394531
v 14.999107360839844 0 -47.353794097900391
v 14.999107360839844 -2 -47.353794097900391
v 14.999107360839844 0 -59.30133056640625
v 14.999107360839844 -2 -59.30133056640625
v 14.999107360839844 0 -71.248863220214844
v 14.999107360839844 -2 -71.248863220214844
v 14.999107360839844 -2 -65.275100708007812
v 14.999107360839844 -1 -59.30133056640625
v 14.999107360839844 0 -65.275100708007812
v 14.999107360839844 -1 -65.275100708007812
v 14.999107360839844 -1 2115.150146484375
v 14.999107360839844 -2 2121.123779296875
v 14.999107360839844 0 2121.123779296875
v 14.999107360839844 -1 2121.123779296875
v 1319.0001220703125 0 2127.09765625
v 1319.0001220703125 -2 2127.09765625
v 1307.0367431640625 0 2127.09765625
v 1307.0367431640625 -2 2127.09765625
v 1295.073486328125 0 2127.09765625
v 1295.073486328125 -2 2127.09765625
v 1283.1102294921875 0 2127.09765625
v 1283.1102294921875 -2 2127.09765625
v 1271.1468505859375 0 2127.09765625
v 1271.1468505859375 -2 2127.09765625
v 1259.18359375 0 2127.09765625
v 1259.18359375 -2 2127.09765625
v 1247.22021484375 0 2127.09765625
v 1247.22021484375 -2 2127.09765625
v 1235.2569580078125 0 2127.09765625
v 1235.2569580078125 -2 2127.09765625
v 1223.2935791015625 0 2127.09765625
v 1223.2935791015625 -2 2127.09765625
v 1211.330322265625 0 2127.09765625
v 1211.330322265625 -2 2127.09765625
v 1199.366943359375 0 2127.09765625
v 1199.366943359375 -2 2127.09765625
v 1187.4036865234375 0 2127.09765625
v 1187.4036865234375 -2 2127.09765625
v 1175.4403076171875 0 2127.09765625
v 1175.4403076171875 -2 2127.09765625
v 1163.47705078125 0 2127.09765625
v 1163.47705078125 -2 2127.09765625
v 1151.5137939453125 0 2127.09765625
v 1151.5137939453125 -2 2127.09765625
v 1139.5504150390625 0 2127.09765625
v 1139.5504150390625 -2 2127.09765625
v 1127.587158203125 0 2127.09765625
v 1127.587158203125 -2 2127.09765625
v 1115.623779296875 0 2127.09765625
v 1115.623779296875 -2 2127.09765625
v 1103.6605224609375 0 2127.09765625
v 1103.6605224609375 -2 2127.09765625
v 1091.6971435546875 0 2127.09765625
v 1091.6971435546875 -2 2127.09765625
v 1079.73388671875 0 2127.09765625
v 1079.73388671875 -2 2127.09765625
v 1067.7705078125 0 2127.09765625
v 1067.7705078125 -2 2127.09765625
v 1055.8072509765625 0 2127.09765625
v 1055.8072509765625 -2 2127.09765625
v 1043.8438720703125 0 2127.09765625
v 1043.8438720703125 -2 2127.09765625
v 1031.880615234375 0 2127.09765625
v 1031.880615234375 -2 2127.09765625
v 1019.9172973632812 0 2127.09765625
v 1019.9172973632812 -2 2127.09765625
v 1007.9539794921875 0 2127.09765625
v 1007.9539794921875 -2 2127.09765625
v 995.99066162109375 0 2127.09765625
v 995.99066162109375 -2 2127.09765625
v 984.02734375 0 2127.09765625
v 984.02734375 -2 2127.09765625
v 972.0640869140625 0 2127.09765625
v 972.0640869140625 -2 2127.09765625
v 960.10076904296875 0 2127.09765625
v 960.10076904296875 -2 2127.09765625
v 948.137451171875 0 2127.09765625
v 948.137451171875 -2 2127.09765625
v 936.17413330078125 0 2127.09765625
v 936.17413330078125 -2 2127.09765625
v 924.2108154296875 0 2127.09765625
v 924.2108154296875 -2 2127.09765625
v 912.24749755859375 0 2127.09765625
v 912.24749755859375 -2 2127.09765625
v 900.2841796875 0 2127.09765625
v 900.2841796875 -2 2127.09765625
v 888.32086181640625 0 2127.09765625
v 888.32086181640625 -2 2127.09765625
v 876.3575439453125 0 2127.09765625
v 876.3575439453125 -2 2127.09765625
v 864.39422607421875 0 2127.09765625
v 864.39422607421875 -2 2127.09765625
v 852.43096923828125 0 2127.09765625
v 852.43096923828125 -2 2127.09765625
v 840.4676513671875 0 2127.09765625
v 840.4676513671875 -2 2127.09765625
v 828.50433349609375 0 2127.09765625
v 828.50433349609375 -2 2127.09765625
v 816.541015625 0 2127.09765625
v 816.541015625 -2 2127.09765625
v 804.57769775390625 0 2127.09765625
v 804.57769775390625 -2 2127.09765625
v 792.6143798828125 0 2127.09765625
v 792.6143798828125 -2 2127.09765625
v 780.65106201171875 0 2127.09765625
v 780.65106201171875 -2 2127.09765625
v 768.687744140625 0 2127.09765625
v 768.687744140625 -2 2127.09765625
v 756.72442626953125 0 2127.09765625
v 756.72442626953125 -2 2127.09765625
v 744.7611083984375 0 2127.09765625
v 744.7611083984375 -2 2127.09765625
v 732.7978515625 0 2127.09765625
v 732.7978515625 -2 2127.09765625
v 720.83453369140625 0 2127.09765625
v 720.83453369140625 -2 2127.09765625
v 708.8712158203125 0 2127.09765625
v 708.8712158203125 -2 2127.09765625
v 696.90789794921875 0 2127.09765625
v 696.90789794921875 -2 2127.09765625
v 684.944580078125 0 2127.09765625
v 684.944580078125 -2 2127.09765625
v 672.98126220703125 0 2127.09765625
v 672.98126220703125 -2 2127.09765625
v 661.0179443359375 0 2127.09765625
v 661.0179443359375 -2 2127.09765625
v 649.05462646484375 0 2127.09765625
v 649.05462646484375 -2 2127.09765625
v 637.09130859375 0 2127.09765625
v 637.09130859375 -2 2127.09765625
v 625.12799072265625 0 2127.09765625
v 625.12799072265625 -2 2127.09765625
v 613.16473388671875 0 2127.09765625
v 613.16473388671875 -2 2127.09765625
v 601.201416015625 0 2127.09765625
v 601.201416015625 -2 2127.09765625
v 589.23809814453125 0 2127.09765625
v 589.23809814453125 -2 2127.09765625
v 577.2747802734375 0 2127.09765625
v 577.2747802734375 -2 2127.09765625
v 565.31146240234375 0 2127.09765625
v 565.31146240234375 -2 2127.09765625
v 553.34814453125 0 2127.09765625
v 553.34814453125 -2 2127.09765625
v 541.38482666015625 0 2127.09765625
v 541.38482666015625 -2 2127.09765625
v 529.4215087890625 0 2127.09765625
v 529.4215087890625 -2 2127.09765625
v 517.45819091796875 0 2127.09765625
v 517.45819091796875 -2 2127.09765625
v 505.49490356445312 0 2127.09765625
v 505.49490356445312 -2 2127.09765625
v 493.53158569335938 0 2127.09765625
v 493.53158569335938 -2 2127.09765625
v 481.56826782226562 0 2127.09765625
v 481.56826782226562 -2 2127.09765625
v 469.60494995117188 0 2127.09765625
v 469.60494995117188 -2 2127.09765625
v 457.64166259765625 0 2127.09765625
v 457.64166259765625 -2 2127.09765625
v 445.6783447265625 0 2127.09765625
v 445.6783447265625 -2 2127.09765625
v 433.71502685546875 0 2127.09765625
v 433.71502685546875 -2 2127.09765625
v 421.751708984375 0 2127.09765625
v 421.751708984375 -2 2127.09765625
v 409.78839111328125 0 2127.09765625
v 409.78839111328125 -2 2127.09765625
v 397.82510375976562 0 2127.09765625
v 397.82510375976562 -2 2127.09765625
v 385.86178588867188 0 2127.09765625
v 385.86178588867188 -2 2127.09765625
v 373.89846801757812 0 2127.09765625
v 373.89846801757812 -2 2127.09765625
v 361.93515014648438 0 2127.09765625
v 361.93515014648438 -2 2127.09765625
v 349.97183227539062 0 2127.09765625
v 349.97183227539062 -2 2127.09765625
v 338.00851440429688 0 2127.09765625
v 338.00851440429688 -2 2127.09765625
v 326.04522705078125 0 2127.09765625
v 326.04522705078125 -2 2127.09765625
v 314.0819091796875 0 2127.09765625
v 314.0819091796875 -2 2127.09765625
v 302.11859130859375 0 2127.09765625
v 302.11859130859375 -2 2127.09765625
v 290.1552734375 0 2127.09765625
v 290.1552734375 -2 2127.09765625
v 278.19195556640625 0 2127.09765625
v 278.19195556640625 -2 2127.09765625
v 266.22866821289062 0 2127.09765625
v 266.22866821289062 -2 2127.09765625
v 254.26535034179688 0 2127.09765625
v 254.26535034179688 -2 2127.09765625
v 242.30203247070312 0 2127.09765625
v 242.30203247070312 -2 2127.09765625
v 230.33871459960938 0 2127.09765625
v 230.33871459960938 -2 2127.09765625
v 218.37541198730469 0 2127.09765625
v 218.37541198730469 -2 2127.09765625
v 206.41209411621094 0 2127.09765625
v 206.41209411621094 -2 2127.09765625
v 194.44879150390625 0 2127.09765625
v 194.44879150390625 -2 2127.09765625
v 182.4854736328125 0 2127.09765625
v 182.4854736328125 -2 2127.09765625
v 170.52215576171875 0 2127.09765625
v 170.52215576171875 -2 2127.09765625
v 158.55885314941406 0 2127.09765625
v 158.55885314941406 -2 2127.09765625
v 146.59553527832031 0 2127.09765625
v 146.59553527832031 -2 2127.09765625
v 134.63223266601562 0 2127.09765625
v 134.63223266601562 -2 2127.09765625
v 122.66891479492188 0 2127.09765625
v 122.66891479492188 -2 2127.09765625
v 110.70560455322266 0 2127.09765625
v 110.70560455322266 -2 2127.09765625
v 98.742294311523438 0 2127.09765625
v 98.742294311523438 -2 2127.09765625
v 86.778976440429688 0 2127.09765625
v 86.778976440429688 -2 2127.09765625
v 74.815666198730469 0 2127.09765625
v 74.815666198730469 -2 2127.09765625
v 62.85235595703125 0 2127.09765625
v 62.85235595703125 -2 2127.09765625
v 50.889041900634766 0 2127.09765625
v 50.889041900634766 -2 2127.09765625
v 38.925731658935547 0 2127.09765625
v 38.925731658935547 -2 2127.09765625
v 26.962419509887695 0 2127.09765625
v 26.962419509887695 -2 2127.09765625
v 14.999107360839844 0 2127.09765625
v 14.999107360839844 -2 2127.09765625
v 20.980762481689453 -2 2127.09765625
v 26.962419509887695 -1 2127.09765625
v 20.980762481689453 0 2127.09765625
v 20.980762481689453 -1 2127.09765625
v 1307.0367431640625 -1 2127.09765625
v 1313.0184326171875 -2 2127.09765625
v 1313.0184326171875 0 2127.09765625
v 1313.0184326171875 -1 2127.09765625
v 1319.0001220703125 0 -71.248863220214844
v 1319.0001220703125 -2 -71.248863220214844
v 1319.0001220703125 0 -59.30133056640625
v 1319.0001220703125 -2 -59.30133056640625
v 1319.0001220703125 0 -47.353794097900391
v 1319.0001220703125 -2 -47.353794097900391
v 1319.0001220703125 0 -35.406257629394531
v 1319.0001220703125 -2 -35.406257629394531
v 1319.0001220703125 0 -23.458723068237305
v 1319.0001220703125 -2 -23.458723068237305
v 1319.0001220703125 0 -11.511187553405762
v 1319.0001220703125 -2 -11.511187553405762
v 1319.0001220703125 0 0.43634772300720215
v 1319.0001220703125 -2 0.43634772300720215
v 1319.0001220703125 0 12.383883476257324
v 1319.0001220703125 -2 12.383883476257324
v 1319.0001220703125 0 24.331418991088867
v 1319.0001220703125 -2 24.331418991088867
v 1319.0001220703125 0 36.278953552246094
v 1319.0001220703125 -2 36.278953552246094
v 1319.0001220703125 0 48.226490020751953
v 1319.0001220703125 -2 48.226490020751953
v 1319.0001220703125 0 60.174026489257812
v 1319.0001220703125 -2 60.174026489257812
v 1319.0001220703125 0 72.121559143066406
v 1319.0001220703125 -2 72.121559143066406
v 1319.0001220703125 0 84.069091796875
v 1319.0001220703125 -2 84.069091796875
v 1319.0001220703125 0 96.016632080078125
v 1319.0001220703125 -2 96.016632080078125
v 1319.0001220703125 0 107.96416473388672
v 1319.0001220703125 -2 107.96416473388672
v 1319.0001220703125 0 119.91170501708984
v 1319.0001220703125 -2 119.91170501708984
v 1319.0001220703125 0 131.85923767089844
v 1319.0001220703125 -2 131.85923767089844
v 1319.0001220703125 0 143.80677795410156
v 1319.0001220703125 -2 143.80677795410156
v 1319.0001220703125 0 155.75430297851562
v 1319.0001220703125 -2 155.75430297851562
v 1319.0001220703125 0 167.70184326171875
v 1319.0001220703125 -2 167.70184326171875
v 1319.0001220703125 0 179.64938354492188
v 1319.0001220703125 -2 179.64938354492188
v 1319.0001220703125 0 191.59690856933594
v 1319.0001220703125 -2 191.59690856933594
v 1319.0001220703125 0 203.54444885253906
v 1319.0001220703125 -2 203.54444885253906
v 1319.0001220703125 0 215.49198913574219
v 1319.0001220703125 -2 215.49198913574219
v 1319.0001220703125 0 227.43951416015625
v 1319.0001220703125 -2 227.43951416015625
v 1319.0001220703125 0 239.38705444335938
v 1319.0001220703125 -2 239.38705444335938
v 1319.0001220703125 0 251.3345947265625
v 1319.0001220703125 -2 251.3345947265625
v 1319.0001220703125 0 263.28213500976562
v 1319.0001220703125 -2 263.28213500976562
v 1319.0001220703125 0 275.22967529296875
v 1319.0001220703125 -2 275.22967529296875
v 1319.0001220703125 0 287.17718505859375
v 1319.0001220703125 -2 287.17718505859375
v 1319.0001220703125 0 299.12472534179688
v 1319.0001220703125 -2 299.12472534179688
v 1319.0001220703125 0 311.072265625
v 1319.0001220703125 -2 311.072265625
v 1319.0001220703125 0 323.01980590820312
v 1319.0001220703125 -2 323.01980590820312
v 1319.0001220703125 0 334.96734619140625
v 1319.0001220703125 -2 334.96734619140625
v 1319.0001220703125 0 346.91488647460938
v 1319.0001220703125 -2 346.91488647460938
v 1319.0001220703125 0 358.86239624023438
v 1319.0001220703125 -2 358.86239624023438
v 1319.0001220703125 0 370.8099365234375
v 1319.0001220703125 -2 370.8099365234375
v 1319.0001220703125 0 382.75747680664062
v 1319.0001220703125 -2 382.75747680664062
v 1319.0001220703125 0 394.70501708984375
v 1319.0001220703125 -2 394.70501708984375
v 1319.0001220703125 0 406.65255737304688
v 1319.0001220703125 -2 406.65255737304688
v 1319.0001220703125 0 418.60009765625
v 1319.0001220703125 -2 418.60009765625
v 1319.0001220703125 0 430.547607421875
v 1319.0001220703125 -2 430.547607421875
v 1319.0001220703125 0 442.49514770507812
v 1319.0001220703125 -2 442.49514770507812
v 1319.0001220703125 0 454.44268798828125
v 1319.0001220703125 -2 454.44268798828125
v 1319.0001220703125 0 466.39022827148438
v 1319.0001220703125 -2 466.39022827148438
v 1319.0001220703125 0 478.3377685546875
v 1319.0001220703125 -2 478.3377685546875
v 1319.0001220703125 0 490.28530883789062
v 1319.0001220703125 -2 490.28530883789062
v 1319.0001220703125 0 502.23284912109375
v 1319.0001220703125 -2 502.23284912109375
v 1319.0001220703125 0 514.18035888671875
v 1319.0001220703125 -2 514.18035888671875
v 1319.0001220703125 0 526.1279296875
v 1319.0001220703125 -2 526.1279296875
v 1319.0001220703125 0 538.075439453125
v 1319.0001220703125 -2 538.075439453125
v 1319.0001220703125 0 550.02294921875
v 1319.0001220703125 -2 550.02294921875
v 1319.0001220703125 0 561.97052001953125
v 1319.0001220703125 -2 561.97052001953125
v 1319.0001220703125 0 573.91802978515625
v 1319.0001220703125 -2 573.91802978515625
v 1319.0001220703125 0 585.8656005859375
v 1319.0001220703125 -2 585.8656005859375
v 1319.0001220703125 0 597.8131103515625
v 1319.0001220703125 -2 597.8131103515625
v 1319.0001220703125 0 609.76068115234375
v 1319.0001220703125 -2 609.76068115234375
v 1319.0001220703125 0 621.70819091796875
v 1319.0001220703125 -2 621.70819091796875
v 1319.0001220703125 0 633.65570068359375
v 1319.0001220703125 -2 633.65570068359375
v 1319.0001220703125 0 645.603271484375
v 1319.0001220703125 -2 645.603271484375
v 1319.0001220703125 0 657.55078125
v 1319.0001220703125 -2 657.55078125
v 1319.0001220703125 0 669.49835205078125
v 1319.0001220703125 -2 669.49835205078125
v 1319.0001220703125 0 681.44586181640625
v 1319.0001220703125 -2 681.44586181640625
v 1319.0001220703125 0 693.39337158203125
v 1319.0001220703125 -2 693.39337158203125
v 1319.0001220703125 0 705.3409423828125
v 1319.0001220703125 -2 705.3409423828125
v 1319.0001220703125 0 717.2884521484375
v 1319.0001220703125 -2 717.2884521484375
v 1319.0001220703125 0 729.23602294921875
v 1319.0001220703125 -2 729.23602294921875
v 1319.0001220703125 0 741.18353271484375
v 1319.0001220703125 -2 741.18353271484375
v 1319.0001220703125 0 753.131103515625
v 1319.0001220703125 -2 753.131103515625
v 1319.0001220703125 0 765.07861328125
v 1319.0001220703125 -2 765.07861328125
v 1319.0001220703125 0 777.026123046875
v 1319.0001220703125 -2 777.026123046875
v 1319.0001220703125 0 788.97369384765625
v 1319.0001220703125 -2 788.97369384765625
v 1319.0001220703125 0 800.92120361328125
v 1319.0001220703125 -2 800.92120361328125
v 1319.0001220703125 0 812.8687744140625
v 1319.0001220703125 -2 812.8687744140625
v 1319.0001220703125 0 824.8162841796875
v 1319.0001220703125 -2 824.8162841796875
v 1319.0001220703125 0 836.76385498046875
v 1319.0001220703125 -2 836.76385498046875
v 1319.0001220703125 0 848.71136474609375
v 1319.0001220703125 -2 848.71136474609375
v 1319.0001220703125 0 860.65887451171875
v 1319.0001220703125 -2 860.65887451171875
v 1319.0001220703125 0 872.6064453125
v 1319.0001220703125 -2 872.6064453125
v 1319.0001220703125 0 884.553955078125
v 1319.0001220703125 -2 884.553955078125
v 1319.0001220703125 0 896.50152587890625
v 1319.0001220703125 -2 896.50152587890625
v 1319.0001220703125 0 908.44903564453125
v 1319.0001220703125 -2 908.44903564453125
v 1319.0001220703125 0 920.39654541015625
v 1319.0001220703125 -2 920.39654541015625
v 1319.0001220703125 0 932.3441162109375
v 1319.0001220703125 -2 932.3441162109375
v 1319.0001220703125 0 944.2916259765625
v 1319.0001220703125 -2 944.2916259765625
v 1319.0001220703125 0 956.23919677734375
v 1319.0001220703125 -2 956.23919677734375
v 1319.0001220703125 0 968.18670654296875
v 1319.0001220703125 -2 968.18670654296875
v 1319.0001220703125 0 980.13427734375
v 1319.0001220703125 -2 980.13427734375
v 1319.0001220703125 0 992.081787109375
v 1319.0001220703125 -2 992.081787109375
v 1319.0001220703125 0 1004.029296875
v 1319.0001220703125 -2 1004.029296875
v 1319.0001220703125 0 1015.9768676757812
v 1319.0001220703125 -2 1015.9768676757812
v 1319.0001220703125 0 1027.9244384765625
v 1319.0001220703125 -2 1027.9244384765625
v 1319.0001220703125 0 1039.8719482421875
v 1319.0001220703125 -2 1039.8719482421875
v 1319.0001220703125 0 1051.8194580078125
v 1319.0001220703125 -2 1051.8194580078125
v 1319.0001220703125 0 1063.7669677734375
v 1319.0001220703125 -2 1063.7669677734375
v 1319.0001220703125 0 1075.7144775390625
v 1319.0001220703125 -2 1075.7144775390625
v 1319.0001220703125 0 1087.662109375
v 1319.0001220703125 -2 1087.662109375
v 1319.0001220703125 0 1099.609619140625
v 1319.0001220703125 -2 1099.609619140625
v 1319.0001220703125 0 1111.55712890625
v 1319.0001220703125 -2 1111.55712890625
v 1319.0001220703125 0 1123.504638671875
v 1319.0001220703125 -2 1123.504638671875
v 1319.0001220703125 0 1135.4522705078125
v 1319.0001220703125 -2 1135.4522705078125
v 1319.0001220703125 0 1147.3997802734375
v 1319.0001220703125 -2 1147.3997802734375
v 1319.0001220703125 0 1159.3472900390625
v 1319.0001220703125 -2 1159.3472900390625
v 1319.0001220703125 0 1171.2947998046875
v 1319.0001220703125 -2 1171.2947998046875
v 1319.0001220703125 0 1183.2423095703125
v 1319.0001220703125 -2 1183.2423095703125
v 1319.0001220703125 0 1195.18994140625
v 1319.0001220703125 -2 1195.18994140625
v 1319.0001220703125 0 1207.137451171875
v 1319.0001220703125 -2 1207.137451171875
v 1319.0001220703125 0 1219.0849609375
v 1319.0001220703125 -2 1219.0849609375
v 1319.0001220703125 0 1231.032470703125
v 1319.0001220703125 -2 1231.032470703125
v 1319.0001220703125 0 1242.97998046875
v 1319.0001220703125 -2 1242.97998046875
v 1319.0001220703125 0 1254.9276123046875
v 1319.0001220703125 -2 1254.9276123046875
v 1319.0001220703125 0 1266.8751220703125
v 1319.0001220703125 -2 1266.8751220703125
v 1319.0001220703125 0 1278.8226318359375
v 1319.0001220703125 -2 1278.8226318359375
v 1319.0001220703125 0 1290.7701416015625
v 1319.0001220703125 -2 1290.7701416015625
v 1319.0001220703125 0 1302.7176513671875
v 1319.0001220703125 -2 1302.7176513671875
v 1319.0001220703125 0 1314.665283203125
v 1319.0001220703125 -2 1314.665283203125
v 1319.0001220703125 0 1326.61279296875
v 1319.0001220703125 -2 1326.61279296875
v 1319.0001220703125 0 1338.560302734375
v 1319.0001220703125 -2 1338.560302734375
v 1319.0001220703125 0 1350.5078125
v 1319.0001220703125 -2 1350.5078125
v 1319.0001220703125 0 1362.455322265625
v 1319.0001220703125 -2 1362.455322265625
v 1319.0001220703125 0 1374.4029541015625
v 1319.0001220703125 -2 1374.4029541015625
v 1319.0001220703125 0 1386.3504638671875
v 1319.0001220703125 -2 1386.3504638671875
v 1319.0001220703125 0 1398.2979736328125
v 1319.0001220703125 -2 1398.2979736328125
v 1319.0001220703125 0 1410.2454833984375
v 1319.0001220703125 -2 1410.2454833984375
v 1319.0001220703125 0 1422.193115234375
v 1319.0001220703125 -2 1422.193115234375
v 1319.0001220703125 0 1434.140625
v 1319.0001220703125 -2 1434.140625
v 1319.0001220703125 0 1446.088134765625
v 1319.0001220703125 -2 1446.088134765625
v 1319.0001220703125 0 1458.03564453125
v 1319.0001220703125 -2 1458.03564453125
v 1319.0001220703125 0 1469.983154296875
v 1319.0001220703125 -2 1469.983154296875
v 1319.0001220703125 0 1481.9307861328125
v 1319.0001220703125 -2 1481.9307861328125
v 1319.0001220703125 0 1493.8782958984375
v 1319.0001220703125 -2 1493.8782958984375
v 1319.0001220703125 0 1505.8258056640625
v 1319.0001220703125 -2 1505.8258056640625
v 1319.0001220703125 0 1517.7733154296875
v 1319.0001220703125 -2 1517.7733154296875
v 1319.0001220703125 0 1529.7208251953125
v 1319.0001220703125 -2 1529.7208251953125
v 1319.0001220703125 0 1541.66845703125
v 1319.0001220703125 -2 1541.66845703125
v 1319.0001220703125 0 1553.615966796875
v 1319.0001220703125 -2 1553.615966796875
v 1319.0001220703125 0 1565.5634765625
v 1319.0001220703125 -2 1565.5634765625
v 1319.0001220703125 0 1577.510986328125
v 1319.0001220703125 -2 1577.510986328125
v 1319.0001220703125 0 1589.45849609375
v 1319.0001220703125 -2 1589.45849609375
v 1319.0001220703125 0 1601.4061279296875
v 1319.0001220703125 -2 1601.4061279296875
v 1319.0001220703125 0 1613.3536376953125
v 1319.0001220703125 -2 1613.3536376953125
v 1319.0001220703125 0 1625.3011474609375
v 1319.0001220703125 -2 1625.3011474609375
v 1319.0001220703125 0 1637.2486572265625
v 1319.0001220703125 -2 1637.2486572265625
v 1319.0001220703125 0 1649.1962890625
v 1319.0001220703125 -2 1649.1962890625
v 1319.0001220703125 0 1661.143798828125
v 1319.0001220703125 -2 1661.143798828125
v 1319.0001220703125 0 1673.09130859375
v 1319.0001220703125 -2 1673.09130859375
v 1319.0001220703125 0 1685.038818359375
v 1319.0001220703125 -2 1685.038818359375
v 1319.0001220703125 0 1696.986328125
v 1319.0001220703125 -2 1696.986328125
v 1319.0001220703125 0 1708.9339599609375
v 1319.0001220703125 -2 1708.9339599609375
v 1319.0001220703125 0 1720.8814697265625
v 1319.0001220703125 -2 1720.8814697265625
v 1319.0001220703125 0 1732.8289794921875
v 1319.0001220703125 -2 1732.8289794921875
v 1319.0001220703125 0 1744.7764892578125
v 1319.0001220703125 -2 1744.7764892578125
v 1319.0001220703125 0 1756.7239990234375
v 1319.0001220703125 -2 1756.7239990234375
v 1319.0001220703125 0 1768.671630859375
v 1319.0001220703125 -2 1768.671630859375
v 1319.0001220703125 0 1780.619140625
v 1319.0001220703125 -2 1780.619140625
v 1319.0001220703125 0 1792.566650390625
v 1319.0001220703125 -2 1792.566650390625
v 1319.0001220703125 0 1804.51416015625
v 1319.0001220703125 -2 1804.51416015625
v 1319.0001220703125 0 1816.461669921875
v 1319.0001220703125 -2 1816.461669921875
v 1319.0001220703125 0 1828.4093017578125
v 1319.0001220703125 -2 1828.4093017578125
v 1319.0001220703125 0 1840.3568115234375
v 1319.0001220703125 -2 1840.3568115234375
v 1319.0001220703125 0 1852.3043212890625
v 1319.0001220703125 -2 1852.3043212890625
v 1319.0001220703125 0 1864.2518310546875
v 1319.0001220703125 -2 1864.2518310546875
v 1319.0001220703125 0 1876.199462890625
v 1319.0001220703125 -2 1876.199462890625
v 1319.0001220703125 0 1888.14697265625
v 1319.0001220703125 -2 1888.14697265625
v 1319.0001220703125 0 1900.094482421875
v 1319.0001220703125 -2 1900.094482421875
v 1319.0001220703125 0 1912.0419921875
v 1319.0001220703125 -2 1912.0419921875
v 1319.0001220703125 0 1923.989501953125
v 1319.0001220703125 -2 1923.989501953125
v 1319.0001220703125 0 1935.9371337890625
v 1319.0001220703125 -2 1935.9371337890625
v 1319.0001220703125 0 1947.8846435546875
v 1319.0001220703125 -2 1947.8846435546875
v 1319.0001220703125 0 1959.8321533203125
v 1319.0001220703125 -2 1959.8321533203125
v 1319.0001220703125 0 1971.7796630859375
v 1319.0001220703125 -2 1971.7796630859375
v 1319.0001220703125 0 1983.7271728515625
v 1319.0001220703125 -2 1983.7271728515625
v 1319.0001220703125 0 1995.6748046875
v 1319.0001220703125 -2 1995.6748046875
v 1319.0001220703125 0 2007.622314453125
v 1319.0001220703125 -2 2007.622314453125
v 1319.0001220703125 0 2019.56982421875
v 1319.0001220703125 -2 2019.56982421875
v 1319.0001220703125 0 2031.517333984375
v 1319.0001220703125 -2 2031.517333984375
v 1319.0001220703125 0 2043.46484375
v 1319.0001220703125 -2 2043.46484375
v 1319.0001220703125 0 2055.412353515625
v 1319.0001220703125 -2 2055.412353515625
v 1319.0001220703125 0 2067.35986328125
v 1319.0001220703125 -2 2067.35986328125
v 1319.0001220703125 0 2079.3076171875
v 1319.0001220703125 -2 2079.3076171875
v 1319.0001220703125 0 2091.255126953125
v 1319.0001220703125 -2 2091.255126953125
v 1319.0001220703125 0 2103.20263671875
v 1319.0001220703125 -2 2103.20263671875
v 1319.0001220703125 0 2115.150146484375
v 1319.0001220703125 -2 2115.150146484375
v 1319.0001220703125 0 2127.09765625
v 1319.0001220703125 -2 2127.09765625
v 1319.0001220703125 -2 2121.123779296875
v 1319.0001220703125 -1 2115.150146484375
v 1319.0001220703125 0 2121.123779296875
v 1319.0001220703125 -1 2121.123779296875
v 1319.0001220703125 -1 -59.30133056640625
v 1319.0001220703125 -2 -65.275100708007812
v 1319.0001220703125 0 -65.275100708007812
v 1319.0001220703125 -1 -65.275100708007812
v 14.999107360839844 0 -71.248863220214844
v 14.999107360839844 -2 -71.248863220214844
v 26.962419509887695 0 -71.248863220214844
v 26.962419509887695 -2 -71.248863220214844
v 38.925731658935547 0 -71.248863220214844
v 38.925731658935547 -2 -71.248863220214844
v 50.889041900634766 0 -71.248863220214844
v 50.889041900634766 -2 -71.248863220214844
v 62.85235595703125 0 -71.248863220214844
v 62.85235595703125 -2 -71.248863220214844
v 74.815666198730469 0 -71.248863220214844
v 74.815666198730469 -2 -71.248863220214844
v 86.778976440429688 0 -71.248863220214844
v 86.778976440429688 -2 -71.248863220214844
v 98.742294311523438 0 -71.248863220214844
v 98.742294311523438 -2 -71.248863220214844
v 110.70560455322266 0 -71.248863220214844
v 110.70560455322266 -2 -71.248863220214844
v 122.66891479492188 0 -71.248863220214844
v 122.66891479492188 -2 -71.248863220214844
v 134.63223266601562 0 -71.248863220214844
v 134.63223266601562 -2 -71.248863220214844
v 146.59553527832031 0 -71.248863220214844
v 146.59553527832031 -2 -71.248863220214844
v 158.55885314941406 0 -71.248863220214844
v 158.55885314941406 -2 -71.248863220214844
v 170.52215576171875 0 -71.248863220214844
v 170.52215576171875 -2 -71.248863220214844
v 182.4854736328125 0 -71.248863220214844
v 182.4854736328125 -2 -71.248863220214844
v 194.44879150390625 0 -71.248863220214844
v 194.44879150390625 -2 -71.248863220214844
v 206.41209411621094 0 -71.248863220214844
v 206.41209411621094 -2 -71.248863220214844
v 218.37541198730469 0 -71.248863220214844
v 218.37541198730469 -2 -71.248863220214844
v 230.33871459960938 0 -71.248863220214844
v 230.33871459960938 -2 -71.248863220214844
v 242.30203247070312 0 -71.248863220214844
v 242.30203247070312 -2 -71.248863220214844
v 254.26535034179688 0 -71.248863220214844
v 254.26535034179688 -2 -71.248863220214844
v 266.22866821289062 0 -71.248863220214844
v 266.22866821289062 -2 -71.248863220214844
v 278.19195556640625 0 -71.248863220214844
v 278.19195556640625 -2 -71.248863220214844
v 290.1552734375 0 -71.248863220214844
v 290.1552734375 -2 -71.248863220214844
v 302.11859130859375 0 -71.248863220214844
v 302.11859130859375 -2 -71.248863220214844
v 314.0819091796875 0 -71.248863220214844
v 314.0819091796875 -2 -71.248863220214844
v 326.04522705078125 0 -71.248863220214844
v 326.04522705078125 -2 -71.248863220214844
v 338.00851440429688 0 -71.248863220214844
v 338.00851440429688 -2 -71.248863220214844
v 349.97183227539062 0 -71.248863220214844
v 349.97183227539062 -2 -71.248863220214844
v 361.93515014648438 0 -71.248863220214844
v 361.93515014648438 -2 -71.248863220214844
v 373.89846801757812 0 -71.248863220214844
v 373.89846801757812 -2 -71.248863220214844
v 385.86178588867188 0 -71.248863220214844
v 385.86178588867188 -2 -71.248863220214844
v 397.82510375976562 0 -71.248863220214844
v 397.82510375976562 -2 -71.248863220214844
v 409.78839111328125 0 -71.248863220214844
v 409.78839111328125 -2 -71.248863220214844
v 421.751708984375 0 -71.248863220214844
v 421.751708984375 -2 -71.248863220214844
v 433.71502685546875 0 -71.248863220214844
v 433.71502685546875 -2 -71.248863220214844
v 445.6783447265625 0 -71.248863220214844
v 445.6783447265625 -2 -71.248863220214844
v 457.64166259765625 0 -71.248863220214844
v 457.64166259765625 -2 -71.248863220214844
v 469.60494995117188 0 -71.248863220214844
v 469.60494995117188 -2 -71.248863220214844
v 481.56826782226562 0 -71.248863220214844
v 481.56826782226562 -2 -71.248863220214844
v 493.53158569335938 0 -71.248863220214844
v 493.53158569335938 -2 -71.248863220214844
v 505.49490356445312 0 -71.248863220214844
v 505.49490356445312 -2 -71.248863220214844
v 517.45819091796875 0 -71.248863220214844
v 517.45819091796875 -2 -71.248863220214844
v 529.4215087890625 0 -71.248863220214844
v 529.4215087890625 -2 -71.248863220214844
v 541.38482666015625 0 -71.248863220214844
v 541.38482666015625 -2 -71.248863220214844
v 553.34814453125 0 -71.248863220214844
v 553.34814453125 -2 -71.248863220214844
v 565.31146240234375 0 -71.248863220214844
v 565.31146240234375 -2 -71.248863220214844
v 577.2747802734375 0 -71.248863220214844
v 577.2747802734375 -2 -71.248863220214844
v 589.23809814453125 0 -71.248863220214844
v 589.23809814453125 -2 -71.248863220214844
v 601.201416015625 0 -71.248863220214844
v 601.201416015625 -2 -71.248863220214844
v 613.16473388671875 0 -71.248863220214844
v 613.16473388671875 -2 -71.248863220214844
v 625.12799072265625 0 -71.248863220214844
v 625.12799072265625 -2 -71.248863220214844
v 637.09130859375 0 -71.248863220214844
v 637.09130859375 -2 -71.248863220214844
v 649.05462646484375 0 -71.248863220214844
v 649.05462646484375 -2 -71.248863220214844
v 661.0179443359375 0 -71.248863220214844
v 661.0179443359375 -2 -71.248863220214844
v 672.98126220703125 0 -71.248863220214844
v 672.98126220703125 -2 -71.248863220214844
v 684.944580078125 0 -71.248863220214844
v 684.944580078125 -2 -71.248863220214844
v 696.90789794921875 0 -71.248863220214844
v 696.90789794921875 -2 -71.248863220214844
v 708.8712158203125 0 -71.248863220214844
v 708.8712158203125 -2 -71.248863220214844
v 720.83453369140625 0 -71.248863220214844
v 720.83453369140625 -2 -71.248863220214844
v 732.7978515625 0 -71.248863220214844
v 732.7978515625 -2 -71.248863220214844
v 744.7611083984375 0 -71.248863220214844
v 744.7611083984375 -2 -71.248863220214844
v 756.72442626953125 0 -71.248863220214844
v 756.72442626953125 -2 -71.248863220214844
v 768.687744140625 0 -71.248863220214844
v 768.687744140625 -2 -71.248863220214844
v 780.65106201171875 0 -71.248863220214844
v 780.65106201171875 -2 -71.248863220214844
v 792.6143798828125 0 -71.248863220214844
v 792.6143798828125 -2 -71.248863220214844
v 804.57769775390625 0 -71.248863220214844
v 804.57769775390625 -2 -71.248863220214844
v 816.541015625 0 -71.248863220214844
v 816.541015625 -2 -71.248863220214844
v 828.50433349609375 0 -71.248863220214844
v 828.50433349609375 -2 -71.248863220214844
v 840.4676513671875 0 -71.248863220214844
v 840.4676513671875 -2 -71.248863220214844
v 852.43096923828125 0 -71.248863220214844
v 852.43096923828125 -2 -71.248863220214844
v 864.39422607421875 0 -71.248863220214844
v 864.39422607421875 -2 -71.248863220214844
v 876.3575439453125 0 -71.248863220214844
v 876.3575439453125 -2 -71.248863220214844
v 888.32086181640625 0 -71.248863220214844
v 888.32086181640625 -2 -71.248863220214844
v 900.2841796875 0 -71.248863220214844
v 900.2841796875 -2 -71.248863220214844
v 912.24749755859375 0 -71.248863220214844
v 912.24749755859375 -2 -71.248863220214844
v 924.2108154296875 0 -71.248863220214844
v 924.2108154296875 -2 -71.248863220214844
v 936.17413330078125 0 -71.248863220214844
v 936.17413330078125 -2 -71.248863220214844
v 948.137451171875 0 -71.248863220214844
v 948.137451171875 -2 -71.248863220214844
v 960.10076904296875 0 -71.248863220214844
v 960.10076904296875 -2 -71.248863220214844
v 972.0640869140625 0 -71.248863220214844
v 972.0640869140625 -2 -71.248863220214844
v 984.02734375 0 -71.248863220214844
v 984.02734375 -2 -71.248863220214844
v 995.99066162109375 0 -71.248863220214844
v 995.99066162109375 -2 -71.248863220214844
v 1007.9539794921875 0 -71.248863220214844
v 1007.9539794921875 -2 -71.248863220214844
v 1019.9172973632812 0 -71.248863220214844
v 1019.9172973632812 -2 -71.248863220214844
v 1031.880615234375 0 -71.248863220214844
v 1031.880615234375 -2 -71.248863220214844
v 1043.8438720703125 0 -71.248863220214844
v 1043.8438720703125 -2 -71.248863220214844
v 1055.8072509765625 0 -71.248863220214844
v 1055.8072509765625 -2 -71.248863220214844
v 1067.7705078125 0 -71.248863220214844
v 1067.7705078125 -2 -71.248863220214844
v 1079.73388671875 0 -71.248863220214844
v 1079.73388671875 -2 -71.248863220214844
v 1091.6971435546875 0 -71.248863220214844
v 1091.6971435546875 -2 -71.248863220214844
v 1103.6605224609375 0 -71.248863220214844
v 1103.6605224609375 -2 -71.248863220214844
v 1115.623779296875 0 -71.248863220214844
v 1115.623779296875 -2 -71.248863220214844
v 1127.587158203125 0 -71.248863220214844
v 1127.587158203125 -2 -71.248863220214844
v 1139.5504150390625 0 -71.248863220214844
v 1139.5504150390625 -2 -71.248863220214844
v 1151.5137939453125 0 -71.248863220214844
v 1151.5137939453125 -2 -71.248863220214844
v 1163.47705078125 0 -71.248863220214844
v 1163.47705078125 -2 -71.248863220214844
v 1175.4403076171875 0 -71.248863220214844
v 1175.4403076171875 -2 -71.248863220214844
v 1187.4036865234375 0 -71.248863220214844
v 1187.4036865234375 -2 -71.248863220214844
v 1199.366943359375 0 -71.248863220214844
v 1199.366943359375 -2 -71.248863220214844
v 1211.330322265625 0 -71.248863220214844
v 1211.330322265625 -2 -71.248863220214844
v 1223.2935791015625 0 -71.248863220214844
v 1223.2935791015625 -2 -71.248863220214844
v 1235.2569580078125 0 -71.248863220214844
v 1235.2569580078125 -2 -71.248863220214844
v 1247.22021484375 0 -71.248863220214844
v 1247.22021484375 -2 -71.248863220214844
v 1259.18359375 0 -71.248863220214844
v 1259.18359375 -2 -71.248863220214844
v 1271.1468505859375 0 -71.248863220214844
v 1271.1468505859375 -2 -71.248863220214844
v 1283.1102294921875 0 -71.248863220214844
v 1283.1102294921875 -2 -71.248863220214844
v 1295.073486328125 0 -71.248863220214844
v 1295.073486328125 -2 -71.248863220214844
v 1307.0367431640625 0 -71.248863220214844
v 1307.0367431640625 -2 -71.248863220214844
v 1319.0001220703125 0 -71.248863220214844
v 1319.0001220703125 -2 -71.248863220214844
v 26.962419509887695 -1 -71.248863220214844
v 20.980762481689453 -2 -71.248863220214844
v 20.980762481689453 0 -71.248863220214844
v 20.980762481689453 -1 -71.248863220214844
v 1313.0184326171875 -2 -71.248863220214844
v 1307.0367431640625 -1 -71.248863220214844
v 1313.0184326171875 0 -71.248863220214844
v 1313.0184326171875 -1 -71.248863220214844
vn -1 0 0
vn -1 0 0
vn -1 0 0
vn -1 0 0
vn -1 0 0
vn -1 0 0
vn -1 0 0
vn -1 0 0
vn -1 0 0
vn -1 0 0
vn -1 0 0
vn -1 0 0
vn -1 0 0
vn -1 0 0
vn -1 0 0
vn -1 0 0
vn -1 0 0
vn -1 0 0
vn -1 0 0
vn -1 0 0
vn -1 0 0
vn -1 0 0
vn -1 0 0
vn -1 0 0
vn -1 0 0
vn -1 0 0
vn -1 0 0
vn -1 0 0
vn -1 0 0
vn -1 0 0
vn -1 0 0
vn -1 0 0
vn -1 0 0
vn -1 0 0
vn -1 0 0
vn -1 0 0
vn -1 0 0
vn -1 0 0
vn -1 0 0
vn -1 0 0
vn -1 0 0
vn -1 0 0
vn -1 0 0
vn -1 0 0
vn -1 0 0
vn -1 0 0
vn -1 0 0
vn -1 0 0
vn -1 0 0
vn -1 0 0
vn -1 0 0
vn -1 0 0
vn -1 0 0
vn -1 0 0
vn -1 0 0
vn -1 0 0
vn -1 0 0
vn -1 0 0
vn -1 0 0
vn -1 0 0
vn -1 0 0
vn -1 0 0
vn -1 0 0
vn -1 0 0
vn -1 0 0
vn -1 0 0
vn -1 0 0
vn -1 0 0
vn -1 0 0
vn -1 0 0
vn -1 0 0
vn -1 0 0
vn -1 0 0
vn -1 0 0
vn -1 0 0
vn -1 0 0
vn -1 0 0
vn -1 0 0
vn -1 0 0
vn -1 0 0
vn -1 0 0
vn -1 0 0
vn -1 0 0
vn -1 0 0
vn -1 0 0
vn -1 0 0
vn -1 0 0
vn -1 0 0
vn -1 0 0
vn -1 0 0
vn -1 0 0
vn -1 0 0
vn -1 0 0
vn -1 0 0
vn -1 0 0
vn -1 0 0
vn -1 0 0
vn -1 0 0
vn -1 0 0
vn -1 0 0
vn -1 0 0
vn -1 0 0
vn -1 0 0
vn -1 0 0
vn -1 0 0
vn -1 0 0
vn -1 0 0
vn -1 0 0
vn -1 0 0
vn -1 0 0
vn -1 0 0
vn -1 0 0
vn -1 0 0
vn -1 0 0
vn -1 0 0
vn -1 0 0
vn -1 0 0
vn -1 0 0
vn -1 0 0
vn -1 0 0
vn -1 0 0
vn -1 0 0
vn -1 0 0
vn -1 0 0
vn -1 0 0
vn -1 0 0
vn -1 0 0
vn -1 0 0
vn -1 0 0
vn -1 0 0
vn -1 0 0
vn -1 0 0
vn -1 0 0
vn -1 0 0
vn -1 0 0
vn -1 0 0
vn -1 0 0
vn -1 0 0
vn -1 0 0
vn -1 0 0
vn -1 0 0
vn -1 0 0
vn -1 0 0
vn -1 0 0
vn -1 0 0
vn -1 0 0
vn -1 0 0
vn -1 0 0
vn -1 0 0
vn -1 0 0
vn -1 0 0
vn -1 0 0
vn -1 0 0
vn -1 0 0
vn -1 0 0
vn -1 0 0
vn -1 0 0
vn -1 0 0
vn -1 0 0
vn -1 0 0
vn -1 0 0
vn -1 0 0
vn -1 0 0
vn -1 0 0
vn -1 0 0
vn -1 0 0
vn -1 0 0
vn -1 0 0
vn -1 0 0
vn -1 0 0
vn -1 0 0
vn -1 0 0
vn -1 0 0
vn -1 0 0
vn -1 0 0
vn -1 0 0
vn -1 0 0
vn -1 0 0
vn -1 0 0
vn -1 0 0
vn -1 0 0
vn -1 0 0
vn -1 0 0
vn -1 0 0
vn -1 0 0
vn -1 0 0
vn -1 0 0
vn -1 0 0
vn -1 0 0
vn -1 0 0
vn -1 0 0
vn -1 0 0
vn -1 0 0
vn -1 0 0
vn -1 0 0
vn -1 0 0
vn -1 0 0
vn -1 0 0
vn -1 0 0
vn -1 0 0
vn -1 0 0
vn -1 0 0
vn -1 0 0
vn -1 0 0
vn -1 0 0
vn -1 0 0
vn -1 0 0
vn -1 0 0
vn -1 0 0
vn -1 0 0
vn -1 0 0
vn -1 0 0
vn -1 0 0
vn -1 0 0
vn -1 0 0
vn -1 0 0
vn -1 0 0
vn -1 0 0
vn -1 0 0
vn -1 0 0
vn -1 0 0
vn -1 0 0
vn -1 0 0
vn -1 0 0
vn -1 0 0
vn -1 0 0
vn -1 0 0
vn -1 0 0
vn -1 0 0
vn -1 0 0
vn -1 0 0
vn -1 0 0
vn -1 0 0
vn -1 0 0
vn -1 0 0
vn -1 0 0
vn -1 0 0
vn -1 0 0
vn -1 0 0
vn -1 0 0
vn -1 0 0
vn -1 0 0
vn -1 0 0
vn -1 0 0
vn -1 0 0
vn -1 0 0
vn -1 0 0
vn -1 0 0
vn -1 0 0
vn -1 0 0
vn -1 0 0
vn -1 0 0
vn -1 0 0
vn -1 0 0
vn -1 0 0
vn -1 0 0
vn -1 0 0
vn -1 0 0
vn -1 0 0
vn -1 0 0
vn -1 0 0
vn -1 0 0
vn -1 0 0
vn -1 0 0
vn -1 0 0
vn -1 0 0
vn -1 0 0
vn -1 0 0
vn -1 0 0
vn -1 0 0
vn -1 0 0
vn -1 0 0
vn -1 0 0
vn -1 0 0
vn -1 0 0
vn -1 0 0
vn -1 0 0
vn -1 0 0
vn -1 0 0
vn -1 0 0
vn -1 0 0
vn -1 0 0
vn -1 0 0
vn -1 0 0
vn -1 0 0
vn -1 0 0
vn -1 0 0
vn -1 0 0
vn -1 0 0
vn -1 0 0
vn -1 0 0
vn -1 0 0
vn -1 0 0
vn -1 0 0
vn -1 0 0
vn -1 0 0
vn -1 0 0
vn -1 0 0
vn -1 0 0
vn -1 0 0
vn -1 0 0
vn -1 0 0
vn -1 0 0
vn -1 0 0
vn -1 0 0
vn -1 0 0
vn -1 0 0
vn -1 0 0
vn -1 0 0
vn -1 0 0
vn -1 0 0
vn -1 0 0
vn -1 0 0
vn -1 0 0
vn -1 0 0
vn -1 0 0
vn -1 0 0
vn -1 0 0
vn -1 0 0
vn -1 0 0
vn -1 0 0
vn -1 0 0
vn -1 0 0
vn -1 0 0
vn -1 0 0
vn -1 0 0
vn -1 0 0
vn -1 0 0
vn -1 0 0
vn -1 0 0
vn -1 0 0
vn -1 0 0
vn -1 0 0
vn -1 0 0
vn -1 0 0
vn -1 0 0
vn -1 0 0
vn -1 0 0
vn -1 0 0
vn -1 0 0
vn -1 0 0
vn -1 0 0
vn -1 0 0
vn -1 0 0
vn -1 0 0
vn -1 0 0
vn -1 0 0
vn -1 0 0
vn -1 0 0
vn -1 0 0
vn -1 0 0
vn -1 0 0
vn -1 0 0
vn -1 0 0
vn -1 0 0
vn -1 0 0
vn -1 0 0
vn -1 0 0
vn -1 0 0
vn -1 0 0
vn -1 0 0
vn -1 0 0
vn -1 0 0
vn -1 0 0
vn -1 0 0
vn -1 0 0
vn -1 0 0
vn -1 0 0
vn -1 0 0
vn -1 0 0
vn -1 0 0
vn -1 0 0
vn -1 0 0
vn -1 0 0
vn -1 0 0
vn -1 0 0
vn -1 0 0
vn -1 0 0
vn 0 0 1
vn 0 0 1
vn 0 0 1
vn 0 0 1
vn 0 0 1
vn 0 0 1
vn 0 0 1
vn 0 0 1
vn 0 0 1
vn 0 0 1
vn 0 0 1
vn 0 0 1
vn 0 0 1
vn 0 0 1
vn 0 0 1
vn 0 0 1
vn 0 0 1
vn 0 0 1
vn 0 0 1
vn 0 0 1
vn 0 0 1
vn 0 0 1
vn 0 0 1
vn 0 0 1
vn 0 0 1
vn 0 0 1
vn 0 0 1
vn 0 0 1
vn 0 0 1
vn 0 0 1
vn 0 0 1
vn 0 0 1
vn 0 0 1
vn 0 0 1
vn 0 0 1
vn 0 0 1
vn 0 0 1
vn 0 0 1
vn 0 0 1
vn 0 0 1
vn 0 0 1
vn 0 0 1
vn 0 0 1
vn 0 0 1
vn 0 0 1
vn 0 0 1
vn 0 0 1
vn 0 0 1
vn 0 0 1
vn 0 0 1
vn 0 0 1
vn 0 0 1
vn 0 0 1
vn 0 0 1
vn 0 0 1
vn 0 0 1
vn 0 0 1
vn 0 0 1
vn 0 0 1
vn 0 0 1
vn 0 0 1
vn 0 0 1
vn 0 0 1
vn 0 0 1
vn 0 0 1
vn 0 0 1
vn 0 0 1
vn 0 0 1
vn 0 0 1
vn 0 0 1
vn 0 0 1
vn 0 0 1
vn 0 0 1
vn 0 0 1
vn 0 0 1
vn 0 0 1
vn 0 0 1
vn 0 0 1
vn 0 0 1
vn 0 0 1
vn 0 0 1
vn 0 0 1
vn 0 0 1
vn 0 0 1
vn 0 0 1
vn 0 0 1
vn 0 0 1
vn 0 0 1
vn 0 0 1
vn 0 0 1
vn 0 0 1
vn 0 0 1
vn 0 0 1
vn 0 0 1
vn 0 0 1
vn 0 0 1
vn 0 0 1
vn 0 0 1
vn 0 0 1
vn 0 0 1
vn 0 0 1
vn 0 0 1
vn 0 0 1
vn 0 0 1
vn 0 0 1
vn 0 0 1
vn 0 0 1
vn 0 0 1
vn 0 0 1
vn 0 0 1
vn 0 0 1
vn 0 0 1
vn 0 0 1
vn 0 0 1
vn 0 0 1
vn 0 0 1
vn 0 0 1
vn 0 0 1
vn 0 0 1
vn 0 0 1
vn 0 0 1
vn 0 0 1
vn 0 0 1
vn 0 0 1
vn 0 0 1
vn 0 0 1
vn 0 0 1
vn 0 0 1
vn 0 0 1
vn 0 0 1
vn 0 0 1
vn 0 0 1
vn 0 0 1
vn 0 0 1
vn 0 0 1
vn 0 0 1
vn 0 0 1
vn 0 0 1
vn 0 0 1
vn 0 0 1
vn 0 0 1
vn 0 0 1
vn 0 0 1
vn 0 0 1
vn 0 0 1
vn 0 0 1
vn 0 0 1
vn 0 0 1
vn 0 0 1
vn 0 0 1
vn 0 0 1
vn 0 0 1
vn 0 0 1
vn 0 0 1
vn 0 0 1
vn 0 0 1
vn 0 0 1
vn 0 0 1
vn 0 0 1
vn 0 0 1
vn 0 0 1
vn 0 0 1
vn 0 0 1
vn 0 0 1
vn 0 0 1
vn 0 0 1
vn 0 0 1
vn 0 0 1
vn 0 0 1
vn 0 0 1
vn 0 0 1
vn 0 0 1
vn 0 0 1
vn 0 0 1
vn 0 0 1
vn 0 0 1
vn 0 0 1
vn 0 0 1
vn 0 0 1
vn 0 0 1
vn 0 0 1
vn 0 0 1
vn 0 0 1
vn 0 0 1
vn 0 0 1
vn 0 0 1
vn 0 0 1
vn 0 0 1
vn 0 0 1
vn 0 0 1
vn 0 0 1
vn 0 0 1
vn 0 0 1
vn 0 0 1
vn 0 0 1
vn 0 0 1
vn 0 0 1
vn 0 0 1
vn 0 0 1
vn 0 0 1
vn 0 0 1
vn 0 0 1
vn 0 0 1
vn 0 0 1
vn 0 0 1
vn 0 0 1
vn 0 0 1
vn 0 0 1
vn 0 0 1
vn 0 0 1
vn 0 0 1
vn 0 0 1
vn 0 0 1
vn 0 0 1
vn 0 0 1
vn 0 0 1
vn 0 0 1
vn 0 0 1
vn 0 0 1
vn 0 0 1
vn 0 0 1
vn 0 0 1
vn 0 0 1
vn 0 0 1
vn 0 0 1
vn 0 0 1
vn 0 0 1
vn 0 0 1
vn 1 0 0
vn 1 0 0
vn 1 0 0
vn 1 0 0
vn 1 0 0
vn 1 0 0
vn 1 0 0
vn 1 0 0
vn 1 0 0
vn 1 0 0
vn 1 0 0
vn 1 0 0
vn 1 0 0
vn 1 0 0
vn 1 0 0
vn 1 0 0
vn 1 0 0
vn 1 0 0
vn 1 0 0
vn 1 0 0
vn 1 0 0
vn 1 0 0
vn 1 0 0
vn 1 0 0
vn 1 0 0
vn 1 0 0
vn 1 0 0
vn 1 0 0
vn 1 0 0
vn 1 0 0
vn 1 0 0
vn 1 0 0
vn 1 0 0
vn 1 0 0
vn 1 0 0
vn 1 0 0
vn 1 0 0
vn 1 0 0
vn 1 0 0
vn 1 0 0
vn 1 0 0
vn 1 0 0
vn 1 0 0
vn 1 0 0
vn 1 0 0
vn 1 0 0
vn 1 0 0
vn 1 0 0
vn 1 0 0
vn 1 0 0
vn 1 0 0
vn 1 0 0
vn 1 0 0
vn 1 0 0
vn 1 0 0
vn 1 0 0
vn 1 0 0
vn 1 0 0
vn 1 0 0
vn 1 0 0
vn 1 0 0
vn 1 0 0
vn 1 0 0
vn 1 0 0
vn 1 0 0
vn 1 0 0
vn 1 0 0
vn 1 0 0
vn 1 0 0
vn 1 0 0
vn 1 0 0
vn 1 0 0
vn 1 0 0
vn 1 0 0
vn 1 0 0
vn 1 0 0
vn 1 0 0
vn 1 0 0
vn 1 0 0
vn 1 0 0
vn 1 0 0
vn 1 0 0
vn 1 0 0
vn 1 0 0
vn 1 0 0
vn 1 0 0
vn 1 0 0
vn 1 0 0
vn 1 0 0
vn 1 0 0
vn 1 0 0
vn 1 0 0
vn 1 0 0
vn 1 0 0
vn 1 0 0
vn 1 0 0
vn 1 0 0
vn 1 0 0
vn 1 0 0
vn 1 0 0
vn 1 0 0
vn 1 0 0
vn 1 0 0
vn 1 0 0
vn 1 0 0
vn 1 0 0
vn 1 0 0
vn 1 0 0
vn 1 0 0
vn 1 0 0
vn 1 0 0
vn 1 0 0
vn 1 0 0
vn 1 0 0
vn 1 0 0
vn 1 0 0
vn 1 0 0
vn 1 0 0
vn 1 0 0
vn 1 0 0
vn 1 0 0
vn 1 0 0
vn 1 0 0
vn 1 0 0
vn 1 0 0
vn 1 0 0
vn 1 0 0
vn 1 0 0
vn 1 0 0
vn 1 0 0
vn 1 0 0
vn 1 0 0
vn 1 0 0
vn 1 0 0
vn 1 0 0
vn 1 0 0
vn 1 0 0
vn 1 0 0
vn 1 0 0
vn 1 0 0
vn 1 0 0
vn 1 0 0
vn 1 0 0
vn 1 0 0
vn 1 0 0
vn 1 0 0
vn 1 0 0
vn 1 0 0
vn 1 0 0
vn 1 0 0
vn 1 0 0
vn 1 0 0
vn 1 0 0
vn 1 0 0
vn 1 0 0
vn 1 0 0
vn 1 0 0
vn 1 0 0
vn 1 0 0
vn 1 0 0
vn 1 0 0
vn 1 0 0
vn 1 0 0
vn 1 0 0
vn 1 0 0
vn 1 0 0
vn 1 0 0
vn 1 0 0
vn 1 0 0
vn 1 0 0
vn 1 0 0
vn 1 0 0
vn 1 0 0
vn 1 0 0
vn 1 0 0
vn 1 0 0
vn 1 0 0
vn 1 0 0
vn 1 0 0
vn 1 0 0
vn 1 0 0
vn 1 0 0
vn 1 0 0
vn 1 0 0
vn 1 0 0
vn 1 0 0
vn 1 0 0
vn 1 0 0
vn 1 0 0
vn 1 0 0
vn 1 0 0
vn 1 0 0
vn 1 0 0
vn 1 0 0
vn 1 0 0
vn 1 0 0
vn 1 0 0
vn 1 0 0
vn 1 0 0
vn 1 0 0
vn 1 0 0
vn 1 0 0
vn 1 0 0
vn 1 0 0
vn 1 0 0
vn 1 0 0
vn 1 0 0
vn 1 0 0
vn 1 0 0
vn 1 0 0
vn 1 0 0
vn 1 0 0
vn 1 0 0
vn 1 0 0
vn 1 0 0
vn 1 0 0
vn 1 0 0
vn 1 0 0
vn 1 0 0
vn 1 0 0
vn 1 0 0
vn 1 0 0
vn 1 0 0
vn 1 0 0
vn 1 0 0
vn 1 0 0
vn 1 0 0
vn 1 0 0
vn 1 0 0
vn 1 0 0
vn 1 0 0
vn 1 0 0
vn 1 0 0
vn 1 0 0
vn 1 0 0
vn 1 0 0
vn 1 0 0
vn 1 0 0
vn 1 0 0
vn 1 0 0
vn 1 0 0
vn 1 0 0
vn 1 0 0
vn 1 0 0
vn 1 0 0
vn 1 0 0
vn 1 0 0
vn 1 0 0
vn 1 0 0
vn 1 0 0
vn 1 0 0
vn 1 0 0
vn 1 0 0
vn 1 0 0
vn 1 0 0
vn 1 0 0
vn 1 0 0
vn 1 0 0
vn 1 0 0
vn 1 0 0
vn 1 0 0
vn 1 0 0
vn 1 0 0
vn 1 0 0
vn 1 0 0
vn 1 0 0
vn 1 0 0
vn 1 0 0
vn 1 0 0
vn 1 0 0
vn 1 0 0
vn 1 0 0
vn 1 0 0
vn 1 0 0
vn 1 0 0
vn 1 0 0
vn 1 0 0
vn 1 0 0
vn 1 0 0
vn 1 0 0
vn 1 0 0
vn 1 0 0
vn 1 0 0
vn 1 0 0
vn 1 0 0
vn 1 0 0
vn 1 0 0
vn 1 0 0
vn 1 0 0
vn 1 0 0
vn 1 0 0
vn 1 0 0
vn 1 0 0
vn 1 0 0
vn 1 0 0
vn 1 0 0
vn 1 0 0
vn 1 0 0
vn 1 0 0
vn 1 0 0
vn 1 0 0
vn 1 0 0
vn 1 0 0
vn 1 0 0
vn 1 0 0
vn 1 0 0
vn 1 0 0
vn 1 0 0
vn 1 0 0
vn 1 0 0
vn 1 0 0
vn 1 0 0
vn 1 0 0
vn 1 0 0
vn 1 0 0
vn 1 0 0
vn 1 0 0
vn 1 0 0
vn 1 0 0
vn 1 0 0
vn 1 0 0
vn 1 0 0
vn 1 0 0
vn 1 0 0
vn 1 0 0
vn 1 0 0
vn 1 0 0
vn 1 0 0
vn 1 0 0
vn 1 0 0
vn 1 0 0
vn 1 0 0
vn 1 0 0
vn 1 0 0
vn 1 0 0
vn 1 0 0
vn 1 0 0
vn 1 0 0
vn 1 0 0
vn 1 0 0
vn 1 0 0
vn 1 0 0
vn 1 0 0
vn 1 0 0
vn 1 0 0
vn 1 0 0
vn 1 0 0
vn 1 0 0
vn 1 0 0
vn 1 0 0
vn 1 0 0
vn 1 0 0
vn 1 0 0
vn 1 0 0
vn 1 0 0
vn 1 0 0
vn 1 0 0
vn 1 0 0
vn 1 0 0
vn 1 0 0
vn 1 0 0
vn 1 0 0
vn 1 0 0
vn 1 0 0
vn 1 0 0
vn 1 0 0
vn 1 0 0
vn 1 0 0
vn 1 0 0
vn 1 0 0
vn 1 0 0
vn 1 0 0
vn 1 0 0
vn 1 0 0
vn 1 0 0
vn 1 0 0
vn 1 0 0
vn 1 0 0
vn 0 0 -1
vn 0 0 -1
vn 0 0 -1
vn 0 0 -1
vn 0 0 -1
vn 0 0 -1
vn 0 0 -1
vn 0 0 -1
vn 0 0 -1
vn 0 0 -1
vn 0 0 -1
vn 0 0 -1
vn 0 0 -1
vn 0 0 -1
vn 0 0 -1
vn 0 0 -1
vn 0 0 -1
vn 0 0 -1
vn 0 0 -1
vn 0 0 -1
vn 0 0 -1
vn 0 0 -1
vn 0 0 -1
vn 0 0 -1
vn 0 0 -1
vn 0 0 -1
vn 0 0 -1
vn 0 0 -1
vn 0 0 -1
vn 0 0 -1
vn 0 0 -1
vn 0 0 -1
vn 0 0 -1
vn 0 0 -1
vn 0 0 -1
vn 0 0 -1
vn 0 0 -1
vn 0 0 -1
vn 0 0 -1
vn 0 0 -1
vn 0 0 -1
vn 0 0 -1
vn 0 0 -1
vn 0 0 -1
vn 0 0 -1
vn 0 0 -1
vn 0 0 -1
vn 0 0 -1
vn 0 0 -1
vn 0 0 -1
vn 0 0 -1
vn 0 0 -1
vn 0 0 -1
vn 0 0 -1
vn 0 0 -1
vn 0 0 -1
vn 0 0 -1
vn 0 0 -1
vn 0 0 -1
vn 0 0 -1
vn 0 0 -1
vn 0 0 -1
vn 0 0 -1
vn 0 0 -1
vn 0 0 -1
vn 0 0 -1
vn 0 0 -1
vn 0 0 -1
vn 0 0 -1
vn 0 0 -1
vn 0 0 -1
vn 0 0 -1
vn 0 0 -1
vn 0 0 -1
vn 0 0 -1
vn 0 0 -1
vn 0 0 -1
vn 0 0 -1
vn 0 0 -1
vn 0 0 -1
vn 0 0 -1
vn 0 0 -1
vn 0 0 -1
vn 0 0 -1
vn 0 0 -1
vn 0 0 -1
vn 0 0 -1
vn 0 0 -1
vn 0 0 -1
vn 0 0 -1
vn 0 0 -1
vn 0 0 -1
vn 0 0 -1
vn 0 0 -1
vn 0 0 -1
vn 0 0 -1
vn 0 0 -1
vn 0 0 -1
vn 0 0 -1
vn 0 0 -1
vn 0 0 -1
vn 0 0 -1
vn 0 0 -1
vn 0 0 -1
vn 0 0 -1
vn 0 0 -1
vn 0 0 -1
vn 0 0 -1
vn 0 0 -1
vn 0 0 -1
vn 0 0 -1
vn 0 0 -1
vn 0 0 -1
vn 0 0 -1
vn 0 0 -1
vn 0 0 -1
vn 0 0 -1
vn 0 0 -1
vn 0 0 -1
vn 0 0 -1
vn 0 0 -1
vn 0 0 -1
vn 0 0 -1
vn 0 0 -1
vn 0 0 -1
vn 0 0 -1
vn 0 0 -1
vn 0 0 -1
vn 0 0 -1
vn 0 0 -1
vn 0 0 -1
vn 0 0 -1
vn 0 0 -1
vn 0 0 -1
vn 0 0 -1
vn 0 0 -1
vn 0 0 -1
vn 0 0 -1
vn 0 0 -1
vn 0 0 -1
vn 0 0 -1
vn 0 0 -1
vn 0 0 -1
vn 0 0 -1
vn 0 0 -1
vn 0 0 -1
vn 0 0 -1
vn 0 0 -1
vn 0 0 -1
vn 0 0 -1
vn 0 0 -1
vn 0 0 -1
vn 0 0 -1
vn 0 0 -1
vn 0 0 -1
vn 0 0 -1
vn 0 0 -1
vn 0 0 -1
vn 0 0 -1
vn 0 0 -1
vn 0 0 -1
vn 0 0 -1
vn 0 0 -1
vn 0 0 -1
vn 0 0 -1
vn 0 0 -1
vn 0 0 -1
vn 0 0 -1
vn 0 0 -1
vn 0 0 -1
vn 0 0 -1
vn 0 0 -1
vn 0 0 -1
vn 0 0 -1
vn 0 0 -1
vn 0 0 -1
vn 0 0 -1
vn 0 0 -1
vn 0 0 -1
vn 0 0 -1
vn 0 0 -1
vn 0 0 -1
vn 0 0 -1
vn 0 0 -1
vn 0 0 -1
vn 0 0 -1
vn 0 0 -1
vn 0 0 -1
vn 0 0 -1
vn 0 0 -1
vn 0 0 -1
vn 0 0 -1
vn 0 0 -1
vn 0 0 -1
vn 0 0 -1
vn 0 0 -1
vn 0 0 -1
vn 0 0 -1
vn 0 0 -1
vn 0 0 -1
vn 0 0 -1
vn 0 0 -1
vn 0 0 -1
vn 0 0 -1
vn 0 0 -1
vn 0 0 -1
vn 0 0 -1
vn 0 0 -1
vn 0 0 -1
vn 0 0 -1
vn 0 0 -1
vn 0 0 -1
vn 0 0 -1
vn 0 0 -1
vn 0 0 -1
vn 0 0 -1
vn 0 0 -1
vn 0 0 -1
vn 0 0 -1
vn 0 0 -1
vn 0 0 -1
vn 0 0 -1
vn 0 0 -1
vn 0 0 -1
vn 0 0 -1
vn 0 0 -1
vn 0 0 -1
vn 0 0 -1
f 8//8 380//380 382//382 379//379
f 379//379 382//382 381//381 7//7
f 379//379 7//7 9//9
f 10//10 8//8 379//379
f 9//9 10//10 379//379
f 12//12 10//10 9//9 11//11
f 14//14 12//12 11//11 13//13
f 16//16 14//14 13//13 15//15
f 18//18 16//16 15//15 17//17
f 20//20 18//18 17//17 19//19
f 22//22 20//20 19//19 21//21
f 24//24 22//22 21//21 23//23
f 26//26 24//24 23//23 25//25
f 28//28 26//26 25//25 27//27
f 30//30 28//28 27//27 29//29
f 32//32 30//30 29//29 31//31
f 34//34 32//32 31//31 33//33
f 36//36 34//34 33//33 35//35
f 38//38 36//36 35//35 37//37
f 40//40 38//38 37//37 39//39
f 42//42 40//40 39//39 41//41
f 44//44 42//42 41//41 43//43
f 46//46 44//44 43//43 45//45
f 48//48 46//46 45//45 47//47
f 50//50 48//48 47//47 49//49
f 52//52 50//50 49//49 51//51
f 54//54 52//52 51//51 53//53
f 56//56 54//54 53//53 55//55
f 58//58 56//56 55//55 57//57
f 60//60 58//58 57//57 59//59
f 62//62 60//60 59//59 61//61
f 64//64 62//62 61//61 63//63
f 66//66 64//64 63//63 65//65
f 68//68 66//66 65//65 67//67
f 70//70 68//68 67//67 69//69
f 72//72 70//70 69//69 71//71
f 74//74 72//72 71//71 73//73
f 76//76 74//74 73//73 75//75
f 78//78 76//76 75//75 77//77
f 80//80 78//78 77//77 79//79
f 82//82 80//80 79//79 81//81
f 84//84 82//82 81//81 83//83
f 86//86 84//84 83//83 85//85
f 88//88 86//86 85//85 87//87
f 90//90 88//88 87//87 89//89
f 92//92 90//90 89//89 91//91
f 94//94 92//92 91//91 93//93
f 96//96 94//94 93//93 95//95
f 98//98 96//96 95//95 97//97
f 100//100 98//98 97//97 99//99
f 102//102 100//100 99//99 101//101
f 104//104 102//102 101//101 103//103
f 106//106 104//104 103//103 105//105
f 108//108 106//106 105//105 107//107
f 110//110 108//108 107//107 109//109
f 112//112 110//110 109//109 111//111
f 114//114 112//112 111//111 113//113
f 116//116 114//114 113//113 115//115
f 118//118 116//116 115//115 117//117
f 120//120 118//118 117//117 119//119
f 122//122 120//120 119//119 121//121
f 124//124 122//122 121//121 123//123
f 126//126 124//124 123//123 125//125
f 128//128 126//126 125//125 127//127
f 130//130 128//128 127//127 129//129
f 132//132 130//130 129//129 131//131
f 134//134 132//132 131//131 133//133
f 136//136 134//134 133//133 135//135
f 138//138 136//136 135//135 137//137
f 140//140 138//138 137//137 139//139
f 142//142 140//140 139//139 141//141
f 144//144 142//142 141//141 143//143
f 146//146 144//144 143//143 145//145
f 148//148 146//146 145//145 147//147
f 150//150 148//148 147//147 149//149
f 152//152 150//150 149//149 151//151
f 154//154 152//152 151//151 153//153
f 156//156 154//154 153//153 155//155
f 158//158 156//156 155//155 157//157
f 160//160 158//158 157//157 159//159
f 162//162 160//160 159//159 161//161
f 164//164 162//162 161//161 163//163
f 166//166 164//164 163//163 165//165
f 168//168 166//166 165//165 167//167
f 170//170 168//168 167//167 169//169
f 172//172 170//170 169//169 171//171
f 174//174 172//172 171//171 173//173
f 176//176 174//174 173//173 175//175
f 178//178 176//176 175//175 177//177
f 180//180 178//178 177//177 179//179
f 182//182 180//180 179//179 181//181
f 184//184 182//182 181//181 183//183
f 186//186 184//184 183//183 185//185
f 188//188 186//186 185//185 187//187
f 190//190 188//188 187//187 189//189
f 192//192 190//190 189//189 191//191
f 194//194 192//192 191//191 193//193
f 196//196 194//194 193//193 195//195
f 198//198 196//196 195//195 197//197
f 200//200 198//198 197//197 199//199
f 202//202 200//200 199//199 201//201
f 204//204 202//202 201//201 203//203
f 206//206 204//204 203//203 205//205
f 208//208 206//206 205//205 207//207
f 210//210 208//208 207//207 209//209
f 212//212 210//210 209//209 211//211
f 214//214 212//212 211//211 213//213
f 216//216 214//214 213//213 215//215
f 218//218 216//216 215//215 217//217
f 220//220 218//218 217//217 219//219
f 222//222 220//220 219//219 221//221
f 224//224 222//222 221//221 223//223
f 226//226 224//224 223//223 225//225
f 228//228 226//226 225//225 227//227
f 230//230 228//228 227//227 229//229
f 232//232 230//230 229//229 231//231
f 234//234 232//232 231//231 233//233
f 236//236 234//234 233//233 235//235
f 238//238 236//236 235//235 237//237
f 240//240 238//238 237//237 239//239
f 242//242 240//240 239//239 241//241
f 244//244 242//242 241//241 243//243
f 246//246 244//244 243//243 245//245
f 248//248 246//246 245//245 247//247
f 250//250 248//248 247//247 249//249
f 252//252 250//250 249//249 251//251
f 254//254 252//252 251//251 253//253
f 256//256 254//254 253//253 255//255
f 258//258 256//256 255//255 257//257
f 260//260 258//258 257//257 259//259
f 262//262 260//260 259//259 261//261
f 264//264 262//262 261//261 263//263
f 266//266 264//264 263//263 265//265
f 268//268 266//266 265//265 267//267
f 270//270 268//268 267//267 269//269
f 272//272 270//270 269//269 271//271
f 274//274 272//272 271//271 273//273
f 276//276 274//274 273//273 275//275
f 278//278 276//276 275//275 277//277
f 280//280 278//278 277//277 279//279
f 282//282 280//280 279//279 281//281
f 284//284 282//282 281//281 283//283
f 286//286 284//284 283//283 285//285
f 288//288 286//286 285//285 287//287
f 290//290 288//288 287//287 289//289
f 292//292 290//290 289//289 291//291
f 294//294 292//292 291//291 293//293
f 296//296 294//294 293//293 295//295
f 298//298 296//296 295//295 297//297
f 300//300 298//298 297//297 299//299
f 302//302 300//300 299//299 301//301
f 304//304 302//302 301//301 303//303
f 306//306 304//304 303//303 305//305
f 308//308 306//306 305//305 307//307
f 310//310 308//308 307//307 309//309
f 312//312 310//310 309//309 311//311
f 314//314 312//312 311//311 313//313
f 316//316 314//314 313//313 315//315
f 318//318 316//316 315//315 317//317
f 320//320 318//318 317//317 319//319
f 322//322 320//320 319//319 321//321
f 324//324 322//322 321//321 323//323
f 326//326 324//324 323//323 325//325
f 328//328 326//326 325//325 327//327
f 330//330 328//328 327//327 329//329
f 332//332 330//330 329//329 331//331
f 334//334 332//332 331//331 333//333
f 336//336 334//334 333//333 335//335
f 338//338 336//336 335//335 337//337
f 340//340 338//338 337//337 339//339
f 342//342 340//340 339//339 341//341
f 344//344 342//342 341//341 343//343
f 346//346 344//344 343//343 345//345
f 348//348 346//346 345//345 347//347
f 350//350 348//348 347//347 349//349
f 352//352 350//350 349//349 351//351
f 354//354 352//352 351//351 353//353
f 356//356 354//354 353//353 355//355
f 358//358 356//356 355//355 357//357
f 360//360 358//358 357//357 359//359
f 362//362 360//360 359//359 361//361
f 364//364 362//362 361//361 363//363
f 366//366 364//364 363//363 365//365
f 368//368 366//366 365//365 367//367
f 370//370 368//368 367//367 369//369
f 376//376 372//372 370//370
f 369//369 371//371 376//376
f 370//370 369//369 376//376
f 375//375 372//372 376//376 378//378
f 378//378 376//376 371//371 377//377
f 382//382 5//5 381//381
f 380//380 6//6 382//382
f 5//5 382//382 6//6
f 378//378 377//377 373//373
f 375//375 378//378 374//374
f 373//373 374//374 378//378
f 386//386 608//608 610//610 607//607
f 607//607 610//610 609//609 385//385
f 607//607 385//385 387//387
f 388//388 386//386 607//607
f 387//387 388//388 607//607
f 390//390 388//388 387//387 389//389
f 392//392 390//390 389//389 391//391
f 394//394 392//392 391//391 393//393
f 396//396 394//394 393//393 395//395
f 398//398 396//396 395//395 397//397
f 400//400 398//398 397//397 399//399
f 402//402 400//400 399//399 401//401
f 404//404 402//402 401//401 403//403
f 406//406 404//404 403//403 405//405
f 408//408 406//406 405//405 407//407
f 410//410 408//408 407//407 409//409
f 412//412 410//410 409//409 411//411
f 414//414 412//412 411//411 413//413
f 416//416 414//414 413//413 415//415
f 418//418 416//416 415//415 417//417
f 420//420 418//418 417//417 419//419
f 422//422 420//420 419//419 421//421
f 424//424 422//422 421//421 423//423
f 426//426 424//424 423//423 425//425
f 428//428 426//426 425//425 427//427
f 430//430 428//428 427//427 429//429
f 432//432 430//430 429//429 431//431
f 434//434 432//432 431//431 433//433
f 436//436 434//434 433//433 435//435
f 438//438 436//436 435//435 437//437
f 440//440 438//438 437//437 439//439
f 442//442 440//440 439//439 441//441
f 444//444 442//442 441//441 443//443
f 446//446 444//444 443//443 445//445
f 448//448 446//446 445//445 447//447
f 450//450 448//448 447//447 449//449
f 452//452 450//450 449//449 451//451
f 454//454 452//452 451//451 453//453
f 456//456 454//454 453//453 455//455
f 458//458 456//456 455//455 457//457
f 460//460 458//458 457//457 459//459
f 462//462 460//460 459//459 461//461
f 464//464 462//462 461//461 463//463
f 466//466 464//464 463//463 465//465
f 468//468 466//466 465//465 467//467
f 470//470 468//468 467//467 469//469
f 472//472 470//470 469//469 471//471
f 474//474 472//472 471//471 473//473
f 476//476 474//474 473//473 475//475
f 478//478 476//476 475//475 477//477
f 480//480 478//478 477//477 479//479
f 482//482 480//480 479//479 481//481
f 484//484 482//482 481//481 483//483
f 486//486 484//484 483//483 485//485
f 488//488 486//486 485//485 487//487
f 490//490 488//488 487//487 489//489
f 492//492 490//490 489//489 491//491
f 494//494 492//492 491//491 493//493
f 496//496 494//494 493//493 495//495
f 498//498 496//496 495//495 497//497
f 500//500 498//498 497//497 499//499
f 502//502 500//500 499//499 501//501
f 504//504 502//502 501//501 503//503
f 506//506 504//504 503//503 505//505
f 508//508 506//506 505//505 507//507
f 510//510 508//508 507//507 509//509
f 512//512 510//510 509//509 511//511
f 514//514 512//512 511//511 513//513
f 516//516 514//514 513//513 515//515
f 518//518 516//516 515//515 517//517
f 520//520 518//518 517//517 519//519
f 522//522 520//520 519//519 521//521
f 524//524 522//522 521//521 523//523
f 526//526 524//524 523//523 525//525
f 528//528 526//526 525//525 527//527
f 530//530 528//528 527//527 529//529
f 532//532 530//530 529//529 531//531
f 534//534 532//532 531//531 533//533
f 536//536 534//534 533//533 535//535
f 538//538 536//536 535//535 537//537
f 540//540 538//538 537//537 539//539
f 542//542 540//540 539//539 541//541
f 544//544 542//542 541//541 543//543
f 546//546 544//544 543//543 545//545
f 548//548 546//546 545//545 547//547
f 550//550 548//548 547//547 549//549
f 552//552 550//550 549//549 551//551
f 554//554 552//552 551//551 553//553
f 556//556 554//554 553//553 555//555
f 558//558 556//556 555//555 557//557
f 560//560 558//558 557//557 559//559
f 562//562 560//560 559//559 561//561
f 564//564 562//562 561//561 563//563
f 566//566 564//564 563//563 565//565
f 568//568 566//566 565//565 567//567
f 570//570 568//568 567//567 569//569
f 572//572 570//570 569//569 571//571
f 574//574 572//572 571//571 573//573
f 576//576 574//574 573//573 575//575
f 578//578 576//576 575//575 577//577
f 580//580 578//578 577//577 579//579
f 582//582 580//580 579//579 581//581
f 584//584 582//582 581//581 583//583
f 586//586 584//584 583//583 585//585
f 588//588 586//586 585//585 587//587
f 590//590 588//588 587//587 589//589
f 592//592 590//590 589//589 591//591
f 594//594 592//592 591//591 593//593
f 596//596 594//594 593//593 595//595
f 598//598 596//596 595//595 597//597
f 604//604 600//600 598//598
f 597//597 599//599 604//604
f 598//598 597//597 604//604
f 603//603 600//600 604//604 606//606
f 606//606 604//604 599//599 605//605
f 610//610 383//383 609//609
f 608//608 384//384 610//610
f 383//383 610//610 384//384
f 606//606 605//605 601//601
f 603//603 606//606 602//602
f 601//601 602//602 606//606
f 614//614 986//986 988//988 985//985
f 985//985 988//988 987//987 613//613
f 985//985 613//613 615//615
f 616//616 614//614 985//985
f 615//615 616//616 985//985
f 618//618 616//616 615//615 617//617
f 620//620 618//618 617//617 619//619
f 622//622 620//620 619//619 621//621
f 624//624 622//622 621//621 623//623
f 626//626 624//624 623//623 625//625
f 628//628 626//626 625//625 627//627
f 630//630 628//628 627//627 629//629
f 632//632 630//630 629//629 631//631
f 634//634 632//632 631//631 633//633
f 636//636 634//634 633//633 635//635
f 638//638 636//636 635//635 637//637
f 640//640 638//638 637//637 639//639
f 642//642 640//640 639//639 641//641
f 644//644 642//642 641//641 643//643
f 646//646 644//644 643//643 645//645
f 648//648 646//646 645//645 647//647
f 650//650 648//648 647//647 649//649
f 652//652 650//650 649//649 651//651
f 654//654 652//652 651//651 653//653
f 656//656 654//654 653//653 655//655
f 658//658 656//656 655//655 657//657
f 660//660 658//658 657//657 659//659
f 662//662 660//660 659//659 661//661
f 664//664 662//662 661//661 663//663
f 666//666 664//664 663//663 665//665
f 668//668 666//666 665//665 667//667
f 670//670 668//668 667//667 669//669
f 672//672 670//670 669//669 671//671
f 674//674 672//672 671//671 673//673
f 676//676 674//674 673//673 675//675
f 678//678 676//676 675//675 677//677
f 680//680 678//678 677//677 679//679
f 682//682 680//680 679//679 681//681
f 684//684 682//682 681//681 683//683
f 686//686 684//684 683//683 685//685
f 688//688 686//686 685//685 687//687
f 690//690 688//688 687//687 689//689
f 692//692 690//690 689//689 691//691
f 694//694 692//692 691//691 693//693
f 696//696 694//694 693//693 695//695
f 698//698 696//696 695//695 697//697
f 700//700 698//698 697//697 699//699
f 702//702 700//700 699//699 701//701
f 704//704 702//702 701//701 703//703
f 706//706 704//704 703//703 705//705
f 708//708 706//706 705//705 707//707
f 710//710 708//708 707//707 709//709
f 712//712 710//710 709//709 711//711
f 714//714 712//712 711//711 713//713
f 716//716 714//714 713//713 715//715
f 718//718 716//716 715//715 717//717
f 720//720 718//718 717//717 719//719
f 722//722 720//720 719//719 721//721
f 724//724 722//722 721//721 723//723
f 726//726 724//724 723//723 725//725
f 728//728 726//726 725//725 727//727
f 730//730 728//728 727//727 729//729
f 732//732 730//730 729//729 731//731
f 734//734 732//732 731//731 733//733
f 736//736 734//734 733//733 735//735
f 738//738 736//736 735//735 737//737
f 740//740 738//738 737//737 739//739
f 742//742 740//740 739//739 741//741
f 744//744 742//742 741//741 743//743
f 746//746 744//744 743//743 745//745
f 748//748 746//746 745//745 747//747
f 750//750 748//748 747//747 749//749
f 752//752 750//750 749//749 751//751
f 754//754 752//752 751//751 753//753
f 756//756 754//754 753//753 755//755
f 758//758 756//756 755//755 757//757
f 760//760 758//758 757//757 759//759
f 762//762 760//760 759//759 761//761
f 764//764 762//762 761//761 763//763
f 766//766 764//764 763//763 765//765
f 768//768 766//766 765//765 767//767
f 770//770 768//768 767//767 769//769
f 772//772 770//770 769//769 771//771
f 774//774 772//772 771//771 773//773
f 776//776 774//774 773//773 775//775
f 778//778 776//776 775//775 777//777
f 780//780 778//778 777//777 779//779
f 782//782 780//780 779//779 781//781
f 784//784 782//782 781//781 783//783
f 786//786 784//784 783//783 785//785
f 788//788 786//786 785//785 787//787
f 790//790 788//788 787//787 789//789
f 792//792 790//790 789//789 791//791
f 794//794 792//792 791//791 793//793
f 796//796 794//794 793//793 795//795
f 798//798 796//796 795//795 797//797
f 800//800 798//798 797//797 799//799
f 802//802 800//800 799//799 801//801
f 804//804 802//802 801//801 803//803
f 806//806 804//804 803//803 805//805
f 808//808 806//806 805//805 807//807
f 810//810 808//808 807//807 809//809
f 812//812 810//810 809//809 811//811
f 814//814 812//812 811//811 813//813
f 816//816 814//814 813//813 815//815
f 818//818 816//816 815//815 817//817
f 820//820 818//818 817//817 819//819
f 822//822 820//820 819//819 821//821
f 824//824 822//822 821//821 823//823
f 826//826 824//824 823//823 825//825
f 828//828 826//826 825//825 827//827
f 830//830 828//828 827//827 829//829
f 832//832 830//830 829//829 831//831
f 834//834 832//832 831//831 833//833
f 836//836 834//834 833//833 835//835
f 838//838 836//836 835//835 837//837
f 840//840 838//838 837//837 839//839
f 842//842 840//840 839//839 841//841
f 844//844 842//842 841//841 843//843
f 846//846 844//844 843//843 845//845
f 848//848 846//846 845//845 847//847
f 850//850 848//848 847//847 849//849
f 852//852 850//850 849//849 851//851
f 854//854 852//852 851//851 853//853
f 856//856 854//854 853//853 855//855
f 858//858 856//856 855//855 857//857
f 860//860 858//858 857//857 859//859
f 862//862 860//860 859//859 861//861
f 864//864 862//862 861//861 863//863
f 866//866 864//864 863//863 865//865
f 868//868 866//866 865//865 867//867
f 870//870 868//868 867//867 869//869
f 872//872 870//870 869//869 871//871
f 874//874 872//872 871//871 873//873
f 876//876 874//874 873//873 875//875
f 878//878 876//876 875//875 877//877
f 880//880 878//878 877//877 879//879
f 882//882 880//880 879//879 881//881
f 884//884 882//882 881//881 883//883
f 886//886 884//884 883//883 885//885
f 888//888 886//886 885//885 887//887
f 890//890 888//888 887//887 889//889
f 892//892 890//890 889//889 891//891
f 894//894 892//892 891//891 893//893
f 896//896 894//894 893//893 895//895
f 898//898 896//896 895//895 897//897
f 900//900 898//898 897//897 899//899
f 902//902 900//900 899//899 901//901
f 904//904 902//902 901//901 903//903
f 906//906 904//904 903//903 905//905
f 908//908 906//906 905//905 907//907
f 910//910 908//908 907//907 909//909
f 912//912 910//910 909//909 911//911
f 914//914 912//912 911//911 913//913
f 916//916 914//914 913//913 915//915
f 918//918 916//916 915//915 917//917
f 920//920 918//918 917//917 919//919
f 922//922 920//920 919//919 921//921
f 924//924 922//922 921//921 923//923
f 926//926 924//924 923//923 925//925
f 928//928 926//926 925//925 927//927
f 930//930 928//928 927//927 929//929
f 932//932 930//930 929//929 931//931
f 934//934 932//932 931//931 933//933
f 936//936 934//934 933//933 935//935
f 938//938 936//936 935//935 937//937
f 940//940 938//938 937//937 939//939
f 942//942 940//940 939//939 941//941
f 944//944 942//942 941//941 943//943
f 946//946 944//944 943//943 945//945
f 948//948 946//946 945//945 947//947
f 950//950 948//948 947//947 949//949
f 952//952 950//950 949//949 951//951
f 954//954 952//952 951//951 953//953
f 956//956 954//954 953//953 955//955
f 958//958 956//956 955//955 957//957
f 960//960 958//958 957//957 959//959
f 962//962 960//960 959//959 961//961
f 964//964 962//962 961//961 963//963
f 966//966 964//964 963//963 965//965
f 968//968 966//966 965//965 967//967
f 970//970 968//968 967//967 969//969
f 972//972 970//970 969//969 971//971
f 974//974 972//972 971//971 973//973
f 976//976 974//974 973//973 975//975
f 982//982 978//978 976//976
f 975//975 977//977 982//982
f 976//976 975//975 982//982
f 981//981 978//978 982//982 984//984
f 984//984 982//982 977//977 983//983
f 988//988 611//611 987//987
f 986//986 612//612 988//988
f 611//611 988//988 612//612
f 984//984 983//983 979//979
f 981//981 984//984 980//980
f 979//979 980//980 984//984
f 992//992 1210//1210 1212//1212 1209//1209
f 1209//1209 1212//1212 1211//1211 991//991
f 1209//1209 991//991 993//993
f 994//994 992//992 1209//1209
f 993//993 994//994 1209//1209
f 996//996 994//994 993//993 995//995
f 998//998 996//996 995//995 997//997
f 1000//1000 998//998 997//997 999//999
f 1002//1002 1000//1000 999//999 1001//1001
f 1004//1004 1002//1002 1001//1001 1003//1003
f 1006//1006 1004//1004 1003//1003 1005//1005
f 1008//1008 1006//1006 1005//1005 1007//1007
f 1010//1010 1008//1008 1007//1007 1009//1009
f 1012//1012 1010//1010 1009//1009 1011//1011
f 1014//1014 1012//1012 1011//1011 1013//1013
f 1016//1016 1014//1014 1013//1013 1015//1015
f 1018//1018 1016//1016 1015//1015 1017//1017
f 1020//1020 1018//1018 1017//1017 1019//1019
f 1022//1022 1020//1020 1019//1019 1021//1021
f 1024//1024 1022//1022 1021//1021 1023//1023
f 1026//1026 1024//1024 1023//1023 1025//1025
f 1028//1028 1026//1026 1025//1025 1027//1027
f 1030//1030 1028//1028 1027//1027 1029//1029
f 1032//1032 1030//1030 1029//1029 1031//1031
f 1034//1034 1032//1032 1031//1031 1033//1033
f 1036//1036 1034//1034 1033//1033 1035//1035
f 1038//1038 1036//1036 1035//1035 1037//1037
f 1040//1040 1038//1038 1037//1037 1039//1039
f 1042//1042 1040//1040 1039//1039 1041//1041
f 1044//1044 1042//1042 1041//1041 1043//1043
f 1046//1046 1044//1044 1043//1043 1045//1045
f 1048//1048 1046//1046 1045//1045 1047//1047
f 1050//1050 1048//1048 1047//1047 1049//1049
f 1052//1052 1050//1050 1049//1049 1051//1051
f 1054//1054 1052//1052 1051//1051 1053//1053
f 1056//1056 1054//1054 1053//1053 1055//1055
f 1058//1058 1056//1056 1055//1055 1057//1057
f 1060//1060 1058//1058 1057//1057 1059//1059
f 1062//1062 1060//1060 1059//1059 1061//1061
f 1064//1064 1062//1062 1061//1061 1063//1063
f 1066//1066 1064//1064 1063//1063 1065//1065
f 1068//1068 1066//1066 1065//1065 1067//1067
f 1070//1070 1068//1068 1067//1067 1069//1069
f 1072//1072 1070//1070 1069//1069 1071//1071
f 1074//1074 1072//1072 1071//1071 1073//1073
f 1076//1076 1074//1074 1073//1073 1075//1075
f 1078//1078 1076//1076 1075//1075 1077//1077
f 1080//1080 1078//1078 1077//1077 1079//1079
f 1082//1082 1080//1080 1079//1079 1081//1081
f 1084//1084 1082//1082 1081//1081 1083//1083
f 1086//1086 1084//1084 1083//1083 1085//1085
f 1088//1088 1086//1086 1085//1085 1087//1087
f 1090//1090 1088//1088 1087//1087 1089//1089
f 1092//1092 1090//1090 1089//1089 1091//1091
f 1094//1094 1092//1092 1091//1091 1093//1093
f 1096//1096 1094//1094 1093//1093 1095//1095
f 1098//1098 1096//1096 1095//1095 1097//1097
f 1100//1100 1098//1098 1097//1097 1099//1099
f 1102//1102 1100//1100 1099//1099 1101//1101
f 1104//1104 1102//1102 1101//1101 1103//1103
f 1106//1106 1104//1104 1103//1103 1105//1105
f 1108//1108 1106//1106 1105//1105 1107//1107
f 1110//1110 1108//1108 1107//1107 1109//1109
f 1112//1112 1110//1110 1109//1109 1111//1111
f 1114//1114 1112//1112 1111//1111 1113//1113
f 1116//1116 1114//1114 1113//1113 1115//1115
f 1118//1118 1116//1116 1115//1115 1117//1117
f 1120//1120 1118//1118 1117//1117 1119//1119
f 1122//1122 1120//1120 1119//1119 1121//1121
f 1124//1124 1122//1122 1121//1121 1123//1123
f 1126//1126 1124//1124 1123//1123 1125//1125
f 1128//1128 1126//1126 1125//1125 1127//1127
f 1130//1130 1128//1128 1127//1127 1129//1129
f 1132//1132 1130//1130 1129//1129 1131//1131
f 1134//1134 1132//1132 1131//1131 1133//1133
f 1136//1136 1134//1134 1133//1133 1135//1135
f 1138//1138 1136//1136 1135//1135 1137//1137
f 1140//1140 1138//1138 1137//1137 1139//1139
f 1142//1142 1140//1140 1139//1139 1141//1141
f 1144//1144 1142//1142 1141//1141 1143//1143
f 1146//1146 1144//1144 1143//1143 1145//1145
f 1148//1148 1146//1146 1145//1145 1147//1147
f 1150//1150 1148//1148 1147//1147 1149//1149
f 1152//1152 1150//1150 1149//1149 1151//1151
f 1154//1154 1152//1152 1151//1151 1153//1153
f 1156//1156 1154//1154 1153//1153 1155//1155
f 1158//1158 1156//1156 1155//1155 1157//1157
f 1160//1160 1158//1158 1157//1157 1159//1159
f 1162//1162 1160//1160 1159//1159 1161//1161
f 1164//1164 1162//1162 1161//1161 1163//1163
f 1166//1166 1164//1164 1163//1163 1165//1165
f 1168//1168 1166//1166 1165//1165 1167//1167
f 1170//1170 1168//1168 1167//1167 1169//1169
f 1172//1172 1170//1170 1169//1169 1171//1171
f 1174//1174 1172//1172 1171//1171 1173//1173
f 1176//1176 1174//1174 1173//1173 1175//1175
f 1178//1178 1176//1176 1175//1175 1177//1177
f 1180//1180 1178//1178 1177//1177 1179//1179
f 1182//1182 1180//1180 1179//1179 1181//1181
f 1184//1184 1182//1182 1181//1181 1183//1183
f 1186//1186 1184//1184 1183//1183 1185//1185
f 1188//1188 1186//1186 1185//1185 1187//1187
f 1190//1190 1188//1188 1187//1187 1189//1189
f 1192//1192 1190//1190 1189//1189 1191//1191
f 1194//1194 1192//1192 1191//1191 1193//1193
f 1196//1196 1194//1194 1193//1193 1195//1195
f 1198//1198 1196//1196 1195//1195 1197//1197
f 1200//1200 1198//1198 1197//1197 1199//1199
f 1202//1202 1200//1200 1199//1199 1201//1201
f 1204//1204 1202//1202 1201//1201 1203//1203
f 1214//1214 1206//1206 1204//1204
f 1203//1203 1205//1205 1214//1214
f 1204//1204 1203//1203 1214//1214
f 1213//1213 1206//1206 1214//1214 1216//1216
f 1216//1216 1214//1214 1205//1205 1215//1215
f 1212//1212 989//989 1211//1211
f 1210//1210 990//990 1212//1212
f 989//989 1212//1212 990//990
f 1216//1216 1215//1215 1207//1207
f 1213//1213 1216//1216 1208//1208
f 1207//1207 1208//1208 1216//1216
usemtl Default
v 14.999107360839844 0 -71.248863220214844
v 1319.0001220703125 0 -71.248863220214844
v 14.999107360839844 0 2127.09765625
v 1319.0001220703125 0 2127.09765625
vn 0 1 0
vn 0 1 0
vn 0 1 0
vn 0 1 0
f 1217//1217 1219//1219 1220//1220 1218//1218
usemtl Default
v 1319.0001074179543 0 -71.24886463594521
v 14.999107403328736 0 -71.24886463594521
cstype bspline
deg 1
curv 5700.6940244089947 7004.6950244236205 1221 1222
parm u 5700.6940244089947 5700.6940244089947 7004.6950244236205 7004.6950244236205
end
usemtl Default
v 14.999107403328736 0 2127.0976475612392
v 1319.0001074179543 0 2127.0976475612392
cstype bspline
deg 1
curv 2198.3465121971844 3502.3475122118098 1223 1224
parm u 2198.3465121971844 2198.3465121971844 3502.3475122118098 3502.3475122118098
end
usemtl Default
v 14.999107403328736 0 -71.24886463594521
v 14.999107403328736 0 2127.0976475612392
cstype bspline
deg 1
curv 0 2198.3465121971844 1225 1226
parm u 0 0 2198.3465121971844 2198.3465121971844
end
