# Rhino

mtllib one story units.mtl
usemtl Default
v 469.67572021484375 300 859.7264404296875
v 469.67572021484375 300 685.611328125
v 591.59954833984375 300 859.7264404296875
v 591.59954833984375 300 685.611328125
vn 0 -1 0
vn 0 -1 0
vn 0 -1 0
vn 0 -1 0
f 4//4 3//3 1//1 2//2
usemtl Default
v 591.59954833984375 0 859.7264404296875
v 591.59954833984375 300 859.7264404296875
v 469.67572021484375 0 859.7264404296875
v 469.67572021484375 300 859.7264404296875
v 469.67572021484375 150 859.7264404296875
v 591.59954833984375 150 859.7264404296875
v 591.59954833984375 0 685.611328125
v 591.59954833984375 300 685.611328125
v 591.59954833984375 0 859.7264404296875
v 591.59954833984375 300 859.7264404296875
v 591.59954833984375 150 859.7264404296875
v 591.59954833984375 150 685.611328125
v 469.67572021484375 0 685.611328125
v 469.67572021484375 300 685.611328125
v 591.59954833984375 0 685.611328125
v 591.59954833984375 300 685.611328125
v 591.59954833984375 150 685.611328125
v 469.67572021484375 150 685.611328125
v 469.67572021484375 0 859.7264404296875
v 469.67572021484375 300 859.7264404296875
v 469.67572021484375 0 685.611328125
v 469.67572021484375 300 685.611328125
v 469.67572021484375 150 859.7264404296875
v 469.67572021484375 150 685.611328125
vn 0 0 1
vn 0 0 1
vn 0 0 1
vn 0 0 1
vn 0 0 1
vn 0 0 1
vn 1 0 0
vn 1 0 0
vn 1 0 0
vn 1 0 0
vn 1 0 0
vn 1 0 0
vn 0 0 -1
vn 0 0 -1
vn 0 0 -1
vn 0 0 -1
vn 0 0 -1
vn 0 0 -1
vn -1 0 0
vn -1 0 0
vn -1 0 0
vn -1 0 0
vn -1 0 0
vn -1 0 0
f 10//10 9//9 7//7 5//5
f 6//6 8//8 9//9 10//10
f 16//16 15//15 13//13 11//11
f 12//12 14//14 15//15 16//16
f 22//22 21//21 19//19 17//17
f 18//18 20//20 21//21 22//22
f 27//27 28//28 25//25 23//23
f 24//24 26//26 28//28 27//27
usemtl Default
v 469.67572021484375 0 859.7264404296875
v 469.67572021484375 0 685.611328125
v 591.59954833984375 0 859.7264404296875
v 591.59954833984375 0 685.611328125
vn 0 -1 0
vn 0 -1 0
vn 0 -1 0
vn 0 -1 0
f 32//32 31//31 29//29 30//30
