# Rhino

mtllib stairs.mtl
usemtl Default
v 91.955345153808594 600 114.90851593017578
v 91.955345153808594 600 291.70626831054688
v 155.27995300292969 600 114.90851593017578
v 155.27995300292969 600 291.70626831054688
vn 0 -1 0
vn 0 -1 0
vn 0 -1 0
vn 0 -1 0
f 4//4 2//2 1//1 3//3
usemtl Default
v 211.1026611328125 600 1933.518310546875
v 211.1026611328125 600 1996.8428955078125
v 345.82095336914062 600 1933.518310546875
v 345.82095336914062 600 1996.8428955078125
vn 0 -1 0
vn 0 -1 0
vn 0 -1 0
vn 0 -1 0
f 8//8 6//6 5//5 7//7
usemtl Default
v 928.37249755859375 600 623.57562255859375
v 865.04791259765625 600 623.57562255859375
v 928.37249755859375 600 758.29388427734375
v 865.04791259765625 600 758.29388427734375
vn 0 -1 0
vn 0 -1 0
vn 0 -1 0
vn 0 -1 0
f 12//12 10//10 9//9 11//11
usemtl Default
v 91.955345153808594 -300 291.70626831054688
v 91.955345153808594 600 291.70626831054688
v 155.27995300292969 -300 291.70626831054688
v 155.27995300292969 600 291.70626831054688
v 155.27995300292969 -75 291.70626831054688
v 155.27995300292969 150 291.70626831054688
v 155.27995300292969 375 291.70626831054688
v 91.955345153808594 375 291.70626831054688
v 91.955345153808594 150 291.70626831054688
v 91.955345153808594 -75 291.70626831054688
v 91.955345153808594 -300 114.90851593017578
v 91.955345153808594 600 114.90851593017578
v 91.955345153808594 -300 291.70626831054688
v 91.955345153808594 600 291.70626831054688
v 91.955345153808594 -75 291.70626831054688
v 91.955345153808594 150 291.70626831054688
v 91.955345153808594 375 291.70626831054688
v 91.955345153808594 375 114.90851593017578
v 91.955345153808594 150 114.90851593017578
v 91.955345153808594 -75 114.90851593017578
v 155.27995300292969 -300 114.90851593017578
v 155.27995300292969 600 114.90851593017578
v 91.955345153808594 -300 114.90851593017578
v 91.955345153808594 600 114.90851593017578
v 91.955345153808594 -75 114.90851593017578
v 91.955345153808594 150 114.90851593017578
v 91.955345153808594 375 114.90851593017578
v 155.27995300292969 375 114.90851593017578
v 155.27995300292969 150 114.90851593017578
v 155.27995300292969 -75 114.90851593017578
v 155.27995300292969 -300 291.70626831054688
v 155.27995300292969 600 291.70626831054688
v 155.27995300292969 -300 114.90851593017578
v 155.27995300292969 600 114.90851593017578
v 155.27995300292969 375 291.70626831054688
v 155.27995300292969 150 291.70626831054688
v 155.27995300292969 -75 291.70626831054688
v 155.27995300292969 -75 114.90851593017578
v 155.27995300292969 150 114.90851593017578
v 155.27995300292969 375 114.90851593017578
vn 0 0 1
vn 0 0 1
vn 0 0 1
vn 0 0 1
vn 0 0 1
vn 0 0 1
vn 0 0 1
vn 0 0 1
vn 0 0 1
vn 0 0 1
vn -1 0 0
vn -1 0 0
vn -1 0 0
vn -1 0 0
vn -1 0 0
vn -1 0 0
vn -1 0 0
vn -1 0 0
vn -1 0 0
vn -1 0 0
vn 0 0 -1
vn 0 0 -1
vn 0 0 -1
vn 0 0 -1
vn 0 0 -1
vn 0 0 -1
vn 0 0 -1
vn 0 0 -1
vn 0 0 -1
vn 0 0 -1
vn 1 0 0
vn 1 0 0
vn 1 0 0
vn 1 0 0
vn 1 0 0
vn 1 0 0
vn 1 0 0
vn 1 0 0
vn 1 0 0
vn 1 0 0
f 22//22 13//13 15//15 17//17
f 20//20 21//21 18//18 19//19
f 14//14 20//20 19//19 16//16
f 21//21 22//22 17//17 18//18
f 32//32 23//23 25//25 27//27
f 30//30 31//31 28//28 29//29
f 24//24 30//30 29//29 26//26
f 31//31 32//32 27//27 28//28
f 42//42 33//33 35//35 37//37
f 40//40 41//41 38//38 39//39
f 34//34 40//40 39//39 36//36
f 41//41 42//42 37//37 38//38
f 49//49 43//43 45//45 50//50
f 47//47 48//48 51//51 52//52
f 44//44 47//47 52//52 46//46
f 48//48 49//49 50//50 51//51
usemtl Default
v 211.1026611328125 -300 1933.518310546875
v 211.1026611328125 600 1933.518310546875
v 211.1026611328125 -300 1996.8428955078125
v 211.1026611328125 600 1996.8428955078125
v 211.1026611328125 -75 1996.8428955078125
v 211.1026611328125 150 1996.8428955078125
v 211.1026611328125 375 1996.8428955078125
v 211.1026611328125 375 1933.518310546875
v 211.1026611328125 150 1933.518310546875
v 211.1026611328125 -75 1933.518310546875
v 345.82095336914062 -300 1933.518310546875
v 345.82095336914062 150 1933.518310546875
v 345.82095336914062 600 1933.518310546875
v 211.1026611328125 -300 1933.518310546875
v 211.1026611328125 150 1933.518310546875
v 211.1026611328125 600 1933.518310546875
v 211.1026611328125 -75 1933.518310546875
v 211.1026611328125 375 1933.518310546875
v 345.82095336914062 375 1933.518310546875
v 345.82095336914062 -75 1933.518310546875
v 345.82095336914062 -300 1996.8428955078125
v 345.82095336914062 600 1996.8428955078125
v 345.82095336914062 -300 1933.518310546875
v 345.82095336914062 600 1933.518310546875
v 345.82095336914062 -75 1933.518310546875
v 345.82095336914062 150 1933.518310546875
v 345.82095336914062 375 1933.518310546875
v 345.82095336914062 375 1996.8428955078125
v 345.82095336914062 150 1996.8428955078125
v 345.82095336914062 -75 1996.8428955078125
v 211.1026611328125 -300 1996.8428955078125
v 211.1026611328125 150 1996.8428955078125
v 211.1026611328125 600 1996.8428955078125
v 345.82095336914062 -300 1996.8428955078125
v 345.82095336914062 150 1996.8428955078125
v 345.82095336914062 600 1996.8428955078125
v 211.1026611328125 375 1996.8428955078125
v 211.1026611328125 -75 1996.8428955078125
v 345.82095336914062 -75 1996.8428955078125
v 345.82095336914062 375 1996.8428955078125
vn -1 0 0
vn -1 0 0
vn -1 0 0
vn -1 0 0
vn -1 0 0
vn -1 0 0
vn -1 0 0
vn -1 0 0
vn -1 0 0
vn -1 0 0
vn 0 0 -1
vn 0 0 -1
vn 0 0 -1
vn 0 0 -1
vn 0 0 -1
vn 0 0 -1
vn 0 0 -1
vn 0 0 -1
vn 0 0 -1
vn 0 0 -1
vn 1 0 0
vn 1 0 0
vn 1 0 0
vn 1 0 0
vn 1 0 0
vn 1 0 0
vn 1 0 0
vn 1 0 0
vn 1 0 0
vn 1 0 0
vn 0 0 1
vn 0 0 1
vn 0 0 1
vn 0 0 1
vn 0 0 1
vn 0 0 1
vn 0 0 1
vn 0 0 1
vn 0 0 1
vn 0 0 1
f 62//62 53//53 55//55 57//57
f 60//60 61//61 58//58 59//59
f 54//54 60//60 59//59 56//56
f 61//61 62//62 57//57 58//58
f 72//72 63//63 66//66 69//69
f 71//71 64//64 67//67 70//70
f 65//65 71//71 70//70 68//68
f 64//64 72//72 69//69 67//67
f 82//82 73//73 75//75 77//77
f 80//80 81//81 78//78 79//79
f 74//74 80//80 79//79 76//76
f 81//81 82//82 77//77 78//78
f 90//90 83//83 86//86 91//91
f 89//89 84//84 87//87 92//92
f 85//85 89//89 92//92 88//88
f 84//84 90//90 91//91 87//87
usemtl Default
v 928.37249755859375 -300 623.57562255859375
v 928.37249755859375 600 623.57562255859375
v 865.04791259765625 -300 623.57562255859375
v 865.04791259765625 600 623.57562255859375
v 865.04791259765625 -75 623.57562255859375
v 865.04791259765625 150 623.57562255859375
v 865.04791259765625 375 623.57562255859375
v 928.37249755859375 375 623.57562255859375
v 928.37249755859375 150 623.57562255859375
v 928.37249755859375 -75 623.57562255859375
v 928.37249755859375 -300 758.29388427734375
v 928.37249755859375 150 758.29388427734375
v 928.37249755859375 600 758.29388427734375
v 928.37249755859375 -300 623.57562255859375
v 928.37249755859375 150 623.57562255859375
v 928.37249755859375 600 623.57562255859375
v 928.37249755859375 -75 623.57562255859375
v 928.37249755859375 375 623.57562255859375
v 928.37249755859375 375 758.29388427734375
v 928.37249755859375 -75 758.29388427734375
v 865.04791259765625 -300 758.29388427734375
v 865.04791259765625 600 758.29388427734375
v 928.37249755859375 -300 758.29388427734375
v 928.37249755859375 600 758.29388427734375
v 928.37249755859375 -75 758.29388427734375
v 928.37249755859375 150 758.29388427734375
v 928.37249755859375 375 758.29388427734375
v 865.04791259765625 375 758.29388427734375
v 865.04791259765625 150 758.29388427734375
v 865.04791259765625 -75 758.29388427734375
v 865.04791259765625 -300 623.57562255859375
v 865.04791259765625 150 623.57562255859375
v 865.04791259765625 600 623.57562255859375
v 865.04791259765625 -300 758.29388427734375
v 865.04791259765625 150 758.29388427734375
v 865.04791259765625 600 758.29388427734375
v 865.04791259765625 375 623.57562255859375
v 865.04791259765625 -75 623.57562255859375
v 865.04791259765625 -75 758.29388427734375
v 865.04791259765625 375 758.29388427734375
vn 0 0 -1
vn 0 0 -1
vn 0 0 -1
vn 0 0 -1
vn 0 0 -1
vn 0 0 -1
vn 0 0 -1
vn 0 0 -1
vn 0 0 -1
vn 0 0 -1
vn 1 0 0
vn 1 0 0
vn 1 0 0
vn 1 0 0
vn 1 0 0
vn 1 0 0
vn 1 0 0
vn 1 0 0
vn 1 0 0
vn 1 0 0
vn 0 0 1
vn 0 0 1
vn 0 0 1
vn 0 0 1
vn 0 0 1
vn 0 0 1
vn 0 0 1
vn 0 0 1
vn 0 0 1
vn 0 0 1
vn -1 0 0
vn -1 0 0
vn -1 0 0
vn -1 0 0
vn -1 0 0
vn -1 0 0
vn -1 0 0
vn -1 0 0
vn -1 0 0
vn -1 0 0
f 102//102 93//93 95//95 97//97
f 100//100 101//101 98//98 99//99
f 94//94 100//100 99//99 96//96
f 101//101 102//102 97//97 98//98
f 112//112 103//103 106//106 109//109
f 111//111 104//104 107//107 110//110
f 105//105 111//111 110//110 108//108
f 104//104 112//112 109//109 107//107
f 122//122 113//113 115//115 117//117
f 120//120 121//121 118//118 119//119
f 114//114 120//120 119//119 116//116
f 121//121 122//122 117//117 118//118
f 130//130 123//123 126//126 131//131
f 129//129 124//124 127//127 132//132
f 125//125 129//129 132//132 128//128
f 124//124 130//130 131//131 127//127
usemtl Default
v 91.955345153808594 -300 114.90851593017578
v 91.955345153808594 -300 291.70626831054688
v 155.27995300292969 -300 114.90851593017578
v 155.27995300292969 -300 291.70626831054688
vn 0 -1 0
vn 0 -1 0
vn 0 -1 0
vn 0 -1 0
f 136//136 134//134 133//133 135//135
usemtl Default
v 211.1026611328125 -300 1933.518310546875
v 211.1026611328125 -300 1996.8428955078125
v 345.82095336914062 -300 1933.518310546875
v 345.82095336914062 -300 1996.8428955078125
vn 0 -1 0
vn 0 -1 0
vn 0 -1 0
vn 0 -1 0
f 140//140 138//138 137//137 139//139
usemtl Default
v 928.37249755859375 -300 623.57562255859375
v 865.04791259765625 -300 623.57562255859375
v 928.37249755859375 -300 758.29388427734375
v 865.04791259765625 -300 758.29388427734375
vn 0 -1 0
vn 0 -1 0
vn 0 -1 0
vn 0 -1 0
f 144//144 142//142 141//141 143//143
usemtl Default
v 599.51287841796875 0 1226.253662109375
v 599.51287841796875 600 1226.253662109375
v 599.51287841796875 0 1116.0091552734375
v 599.51287841796875 600 1116.0091552734375
v 599.51287841796875 0 1171.1314697265625
v 599.51287841796875 600 1171.1314697265625
v 599.51287841796875 300 1171.1314697265625
v 599.51287841796875 150 1171.1314697265625
v 599.51287841796875 300 1198.6925048828125
v 599.51287841796875 150 1198.6925048828125
v 599.51287841796875 300 1143.5703125
v 599.51287841796875 150 1143.5703125
v 599.51287841796875 200 1116.0091552734375
v 599.51287841796875 400 1116.0091552734375
v 599.51287841796875 450 1171.1314697265625
v 599.51287841796875 450 1143.5703125
v 599.51287841796875 450 1198.6925048828125
v 599.51287841796875 400 1226.253662109375
v 599.51287841796875 200 1226.253662109375
v 599.51287841796875 0 1116.0091552734375
v 599.51287841796875 600 1116.0091552734375
v 536.18829345703125 0 1116.0091552734375
v 536.18829345703125 600 1116.0091552734375
v 599.51287841796875 400 1116.0091552734375
v 599.51287841796875 200 1116.0091552734375
v 536.18829345703125 200 1116.0091552734375
v 536.18829345703125 400 1116.0091552734375
v 536.18829345703125 0 1116.0091552734375
v 536.18829345703125 600 1116.0091552734375
v 536.18829345703125 0 1226.253662109375
v 536.18829345703125 600 1226.253662109375
v 536.18829345703125 400 1116.0091552734375
v 536.18829345703125 200 1116.0091552734375
v 536.18829345703125 0 1171.1314697265625
v 536.18829345703125 600 1171.1314697265625
v 536.18829345703125 300 1171.1314697265625
v 536.18829345703125 150 1171.1314697265625
v 536.18829345703125 300 1143.5703125
v 536.18829345703125 150 1143.5703125
v 536.18829345703125 300 1198.6925048828125
v 536.18829345703125 150 1198.6925048828125
v 536.18829345703125 200 1226.253662109375
v 536.18829345703125 400 1226.253662109375
v 536.18829345703125 450 1171.1314697265625
v 536.18829345703125 450 1198.6925048828125
v 536.18829345703125 450 1143.5703125
v 536.18829345703125 0 1226.253662109375
v 536.18829345703125 600 1226.253662109375
v 599.51287841796875 0 1226.253662109375
v 599.51287841796875 600 1226.253662109375
v 599.51287841796875 200 1226.253662109375
v 599.51287841796875 400 1226.253662109375
v 536.18829345703125 400 1226.253662109375
v 536.18829345703125 200 1226.253662109375
v 536.18829345703125 0 1226.253662109375
v 536.18829345703125 0 1116.0091552734375
v 599.51287841796875 0 1226.253662109375
v 599.51287841796875 0 1116.0091552734375
v 599.51287841796875 0 1171.1314697265625
v 536.18829345703125 0 1171.1314697265625
v 536.18829345703125 600 1226.253662109375
v 536.18829345703125 600 1116.0091552734375
v 599.51287841796875 600 1226.253662109375
v 599.51287841796875 600 1116.0091552734375
v 599.51287841796875 600 1171.1314697265625
v 536.18829345703125 600 1171.1314697265625
vn 1 0 0
vn 1 0 0
vn 1 0 0
vn 1 0 0
vn 1 0 0
vn 1 0 0
vn 1 0 0
vn 1 0 0
vn 1 0 0
vn 1 0 0
vn 1 0 0
vn 1 0 0
vn 1 0 0
vn 1 0 0
vn 1 0 0
vn 1 0 0
vn 1 0 0
vn 1 0 0
vn 1 0 0
vn 0 0 -1
vn 0 0 -1
vn 0 0 -1
vn 0 0 -1
vn 0 0 -1
vn 0 0 -1
vn 0 0 -1
vn 0 0 -1
vn -1 0 0
vn -1 0 0
vn -1 0 0
vn -1 0 0
vn -1 0 0
vn -1 0 0
vn -1 0 0
vn -1 0 0
vn -1 0 0
vn -1 0 0
vn -1 0 0
vn -1 0 0
vn -1 0 0
vn -1 0 0
vn -1 0 0
vn -1 0 0
vn -1 0 0
vn -1 0 0
vn -1 0 0
vn 0 0 1
vn 0 0 1
vn 0 0 1
vn 0 0 1
vn 0 0 1
vn 0 0 1
vn 0 0 1
vn 0 0 1
vn 0 -1 0
vn 0 -1 0
vn 0 -1 0
vn 0 -1 0
vn 0 -1 0
vn 0 -1 0
vn 0 1 0
vn 0 1 0
vn 0 1 0
vn 0 1 0
vn 0 1 0
vn 0 1 0
f 160//160 159//159 151//151 155//155
f 159//159 161//161 153//153 151//151
f 151//151 153//153 154//154 152//152
f 155//155 151//151 152//152 156//156
f 163//163 145//145 154//154
f 149//149 154//154 145//145
f 154//154 149//149 152//152
f 156//156 152//152 149//149
f 162//162 163//163 153//153 161//161
f 146//146 162//162 161//161
f 150//150 146//146 161//161
f 153//153 163//163 154//154
f 157//157 155//155 156//156
f 156//156 147//147 157//157
f 147//147 156//156 149//149
f 157//157 158//158 160//160 155//155
f 161//161 159//159 150//150
f 160//160 150//150 159//159
f 148//148 160//160 158//158
f 150//150 160//160 148//148
f 169//169 164//164 166//166 170//170
f 165//165 168//168 171//171 167//167
f 168//168 169//169 170//170 171//171
f 189//189 188//188 180//180 184//184
f 188//188 190//190 182//182 180//180
f 180//180 182//182 183//183 181//181
f 184//184 180//180 181//181 185//185
f 177//177 172//172 183//183
f 178//178 183//183 172//172
f 183//183 178//178 181//181
f 185//185 181//181 178//178
f 182//182 176//176 177//177
f 173//173 176//176 190//190
f 182//182 190//190 176//176
f 179//179 173//173 190//190
f 182//182 177//177 183//183
f 186//186 184//184 185//185
f 185//185 174//174 186//186
f 174//174 185//185 178//178
f 186//186 187//187 189//189 184//184
f 190//190 188//188 179//179
f 189//189 179//179 188//188
f 175//175 189//189 187//187
f 179//179 189//189 175//175
f 198//198 191//191 193//193 195//195
f 192//192 197//197 196//196 194//194
f 197//197 198//198 195//195 196//196
f 204//204 203//203 201//201 199//199
f 200//200 202//202 203//203 204//204
f 210//210 205//205 207//207 209//209
f 206//206 210//210 209//209 208//208
usemtl Default
v 889.38067626953125 0 1755.0889892578125
v 889.38067626953125 600 1755.0889892578125
v 1024.0989990234375 0 1755.0889892578125
v 1024.0989990234375 600 1755.0889892578125
v 1024.0989990234375 0 1755.0889892578125
v 1024.0989990234375 600 1755.0889892578125
v 1024.0989990234375 0 1691.764404296875
v 1024.0989990234375 600 1691.764404296875
v 1024.0989990234375 0 1691.764404296875
v 1024.0989990234375 600 1691.764404296875
v 889.38067626953125 0 1691.764404296875
v 889.38067626953125 600 1691.764404296875
v 889.38067626953125 0 1691.764404296875
v 889.38067626953125 600 1691.764404296875
v 889.38067626953125 0 1755.0889892578125
v 889.38067626953125 600 1755.0889892578125
vn 0 0 1
vn 0 0 1
vn 0 0 1
vn 0 0 1
vn 1 0 0
vn 1 0 0
vn 1 0 0
vn 1 0 0
vn 0 0 -1
vn 0 0 -1
vn 0 0 -1
vn 0 0 -1
vn -1 0 0
vn -1 0 0
vn -1 0 0
vn -1 0 0
f 211//211 213//213 214//214 212//212
f 215//215 217//217 218//218 216//216
f 219//219 221//221 222//222 220//220
f 223//223 225//225 226//226 224//224
usemtl Default
v 599.51290415297785 0 1226.2536371394199
v 599.51290415297763 0 1116.0091900327393
v 536.18829536091062 0 1116.0091900327395
v 536.18829536091084 0 1226.2536371394199
cstype bspline
deg 1
curv 0 396.08578020079722 227 228 229 230 227
parm u 0 0 134.7182813083316 198.04289010039861 332.76117140873021 396.08578020079722 396.08578020079722
end
usemtl Default
v 889.38068886864312 0 1755.0889768041222
v 1024.0989701769747 0 1755.0889768041222
v 1024.0989701769747 0 1691.7643680120552
v 889.38068886864312 0 1691.7643680120552
cstype bspline
deg 1
curv 0 396.08578020079722 231 232 233 234 231
parm u 0 0 134.7182813083316 198.04289010039861 332.76117140873021 396.08578020079722 396.08578020079722
end
