# Rhino

mtllib triple story units.mtl
usemtl Default
v 691.799560546875 900 2038.1966552734375
v 691.799560546875 900 1668.064453125
v 1187.9930419921875 900 2038.1966552734375
v 1187.9930419921875 900 1668.064453125
vn 0 1 0
vn 0 1 0
vn 0 1 0
vn 0 1 0
f 4//4 2//2 1//1 3//3
usemtl Default
v 69.245689392089844 900 592.3565673828125
v 69.245689392089844 900 38.461475372314453
v 464.66946411132812 900 592.3565673828125
v 464.66946411132812 900 38.461475372314453
vn 0 1 0
vn 0 1 0
vn 0 1 0
vn 0 1 0
f 8//8 6//6 5//5 7//7
usemtl Default
v 1187.9930419921875 600 2038.1966552734375
v 1187.9930419921875 900 2038.1966552734375
v 691.799560546875 600 2038.1966552734375
v 691.799560546875 900 2038.1966552734375
v 691.799560546875 750 2038.1966552734375
v 1187.9930419921875 750 2038.1966552734375
v 1187.9930419921875 600 1668.064453125
v 1187.9930419921875 900 1668.064453125
v 1187.9930419921875 600 2038.1966552734375
v 1187.9930419921875 900 2038.1966552734375
v 1187.9930419921875 750 2038.1966552734375
v 1187.9930419921875 750 1668.064453125
v 691.799560546875 600 1668.064453125
v 691.799560546875 900 1668.064453125
v 1187.9930419921875 600 1668.064453125
v 1187.9930419921875 900 1668.064453125
v 1187.9930419921875 750 1668.064453125
v 691.799560546875 750 1668.064453125
v 691.799560546875 600 2038.1966552734375
v 691.799560546875 900 2038.1966552734375
v 691.799560546875 600 1668.064453125
v 691.799560546875 900 1668.064453125
v 691.799560546875 750 2038.1966552734375
v 691.799560546875 750 1668.064453125
vn 0 0 -1
vn 0 0 -1
vn 0 0 -1
vn 0 0 -1
vn 0 0 -1
vn 0 0 -1
vn -1 0 0
vn -1 0 0
vn -1 0 0
vn -1 0 0
vn -1 0 0
vn -1 0 0
vn 0 0 1
vn 0 0 1
vn 0 0 1
vn 0 0 1
vn 0 0 1
vn 0 0 1
vn 1 0 0
vn 1 0 0
vn 1 0 0
vn 1 0 0
vn 1 0 0
vn 1 0 0
f 14//14 9//9 11//11 13//13
f 10//10 14//14 13//13 12//12
f 20//20 15//15 17//17 19//19
f 16//16 20//20 19//19 18//18
f 26//26 21//21 23//23 25//25
f 22//22 26//26 25//25 24//24
f 31//31 27//27 29//29 32//32
f 28//28 31//31 32//32 30//30
usemtl Default
v 464.66946411132812 600 592.3565673828125
v 464.66946411132812 900 592.3565673828125
v 69.245689392089844 600 592.3565673828125
v 69.245689392089844 900 592.3565673828125
v 69.245689392089844 750 592.3565673828125
v 464.66946411132812 750 592.3565673828125
v 464.66946411132812 600 38.461475372314453
v 464.66946411132812 900 38.461475372314453
v 464.66946411132812 600 592.3565673828125
v 464.66946411132812 900 592.3565673828125
v 464.66946411132812 750 592.3565673828125
v 464.66946411132812 750 38.461475372314453
v 69.245689392089844 600 38.461475372314453
v 69.245689392089844 900 38.461475372314453
v 464.66946411132812 600 38.461475372314453
v 464.66946411132812 900 38.461475372314453
v 464.66946411132812 750 38.461475372314453
v 69.245689392089844 750 38.461475372314453
v 69.245689392089844 600 592.3565673828125
v 69.245689392089844 900 592.3565673828125
v 69.245689392089844 600 38.461475372314453
v 69.245689392089844 900 38.461475372314453
v 69.245689392089844 750 592.3565673828125
v 69.245689392089844 750 38.461475372314453
vn 0 0 -1
vn 0 0 -1
vn 0 0 -1
vn 0 0 -1
vn 0 0 -1
vn 0 0 -1
vn -1 0 0
vn -1 0 0
vn -1 0 0
vn -1 0 0
vn -1 0 0
vn -1 0 0
vn 0 0 1
vn 0 0 1
vn 0 0 1
vn 0 0 1
vn 0 0 1
vn 0 0 1
vn 1 0 0
vn 1 0 0
vn 1 0 0
vn 1 0 0
vn 1 0 0
vn 1 0 0
f 38//38 33//33 35//35 37//37
f 34//34 38//38 37//37 36//36
f 44//44 39//39 41//41 43//43
f 40//40 44//44 43//43 42//42
f 50//50 45//45 47//47 49//49
f 46//46 50//50 49//49 48//48
f 55//55 51//51 53//53 56//56
f 52//52 55//55 56//56 54//54
usemtl Default
v 691.799560546875 600 2038.1966552734375
v 691.799560546875 600 1668.064453125
v 1187.9930419921875 600 2038.1966552734375
v 1187.9930419921875 600 1668.064453125
vn 0 1 0
vn 0 1 0
vn 0 1 0
vn 0 1 0
f 60//60 58//58 57//57 59//59
usemtl Default
v 69.245689392089844 600 592.3565673828125
v 69.245689392089844 600 38.461475372314453
v 464.66946411132812 600 592.3565673828125
v 464.66946411132812 600 38.461475372314453
vn 0 1 0
vn 0 1 0
vn 0 1 0
vn 0 1 0
f 64//64 62//62 61//61 63//63
usemtl Default
v 1187.9930419921875 300 2038.1966552734375
v 1187.9930419921875 600 2038.1966552734375
v 691.799560546875 300 2038.1966552734375
v 691.799560546875 600 2038.1966552734375
v 691.799560546875 450 2038.1966552734375
v 1187.9930419921875 450 2038.1966552734375
v 1187.9930419921875 300 1668.064453125
v 1187.9930419921875 600 1668.064453125
v 1187.9930419921875 300 2038.1966552734375
v 1187.9930419921875 600 2038.1966552734375
v 1187.9930419921875 450 2038.1966552734375
v 1187.9930419921875 450 1668.064453125
v 691.799560546875 300 1668.064453125
v 691.799560546875 600 1668.064453125
v 1187.9930419921875 300 1668.064453125
v 1187.9930419921875 600 1668.064453125
v 1187.9930419921875 450 1668.064453125
v 691.799560546875 450 1668.064453125
v 691.799560546875 300 2038.1966552734375
v 691.799560546875 600 2038.1966552734375
v 691.799560546875 300 1668.064453125
v 691.799560546875 600 1668.064453125
v 691.799560546875 450 2038.1966552734375
v 691.799560546875 450 1668.064453125
vn 0 0 -1
vn 0 0 -1
vn 0 0 -1
vn 0 0 -1
vn 0 0 -1
vn 0 0 -1
vn -1 0 0
vn -1 0 0
vn -1 0 0
vn -1 0 0
vn -1 0 0
vn -1 0 0
vn 0 0 1
vn 0 0 1
vn 0 0 1
vn 0 0 1
vn 0 0 1
vn 0 0 1
vn 1 0 0
vn 1 0 0
vn 1 0 0
vn 1 0 0
vn 1 0 0
vn 1 0 0
f 70//70 65//65 67//67 69//69
f 66//66 70//70 69//69 68//68
f 76//76 71//71 73//73 75//75
f 72//72 76//76 75//75 74//74
f 82//82 77//77 79//79 81//81
f 78//78 82//82 81//81 80//80
f 87//87 83//83 85//85 88//88
f 84//84 87//87 88//88 86//86
usemtl Default
v 464.66946411132812 300 592.3565673828125
v 464.66946411132812 600 592.3565673828125
v 69.245689392089844 300 592.3565673828125
v 69.245689392089844 600 592.3565673828125
v 69.245689392089844 450 592.3565673828125
v 464.66946411132812 450 592.3565673828125
v 464.66946411132812 300 38.461475372314453
v 464.66946411132812 600 38.461475372314453
v 464.66946411132812 300 592.3565673828125
v 464.66946411132812 600 592.3565673828125
v 464.66946411132812 450 592.3565673828125
v 464.66946411132812 450 38.461475372314453
v 69.245689392089844 300 38.461475372314453
v 69.245689392089844 600 38.461475372314453
v 464.66946411132812 300 38.461475372314453
v 464.66946411132812 600 38.461475372314453
v 464.66946411132812 450 38.461475372314453
v 69.245689392089844 450 38.461475372314453
v 69.245689392089844 300 592.3565673828125
v 69.245689392089844 600 592.3565673828125
v 69.245689392089844 300 38.461475372314453
v 69.245689392089844 600 38.461475372314453
v 69.245689392089844 450 592.3565673828125
v 69.245689392089844 450 38.461475372314453
vn 0 0 -1
vn 0 0 -1
vn 0 0 -1
vn 0 0 -1
vn 0 0 -1
vn 0 0 -1
vn -1 0 0
vn -1 0 0
vn -1 0 0
vn -1 0 0
vn -1 0 0
vn -1 0 0
vn 0 0 1
vn 0 0 1
vn 0 0 1
vn 0 0 1
vn 0 0 1
vn 0 0 1
vn 1 0 0
vn 1 0 0
vn 1 0 0
vn 1 0 0
vn 1 0 0
vn 1 0 0
f 94//94 89//89 91//91 93//93
f 90//90 94//94 93//93 92//92
f 100//100 95//95 97//97 99//99
f 96//96 100//100 99//99 98//98
f 106//106 101//101 103//103 105//105
f 102//102 106//106 105//105 104//104
f 111//111 107//107 109//109 112//112
f 108//108 111//111 112//112 110//110
usemtl Default
v 691.799560546875 300 2038.1966552734375
v 691.799560546875 300 1668.064453125
v 1187.9930419921875 300 2038.1966552734375
v 1187.9930419921875 300 1668.064453125
vn 0 1 0
vn 0 1 0
vn 0 1 0
vn 0 1 0
f 116//116 114//114 113//113 115//115
usemtl Default
v 69.245689392089844 300 592.3565673828125
v 69.245689392089844 300 38.461475372314453
v 464.66946411132812 300 592.3565673828125
v 464.66946411132812 300 38.461475372314453
vn 0 1 0
vn 0 1 0
vn 0 1 0
vn 0 1 0
f 120//120 118//118 117//117 119//119
usemtl Default
v 69.245689392089844 0 592.3565673828125
v 69.245689392089844 0 38.461475372314453
v 464.66946411132812 0 592.3565673828125
v 464.66946411132812 0 38.461475372314453
vn 0 1 0
vn 0 1 0
vn 0 1 0
vn 0 1 0
f 124//124 122//122 121//121 123//123
usemtl Default
v 691.799560546875 0 2038.1966552734375
v 691.799560546875 0 1668.064453125
v 1187.9930419921875 0 2038.1966552734375
v 1187.9930419921875 0 1668.064453125
vn 0 1 0
vn 0 1 0
vn 0 1 0
vn 0 1 0
f 128//128 126//126 125//125 127//127
usemtl Default
v 691.799560546875 0 2038.1966552734375
v 691.799560546875 300 2038.1966552734375
v 1187.9930419921875 0 2038.1966552734375
v 1187.9930419921875 300 2038.1966552734375
v 1187.9930419921875 0 2038.1966552734375
v 1187.9930419921875 300 2038.1966552734375
v 1187.9930419921875 0 1668.064453125
v 1187.9930419921875 300 1668.064453125
v 1187.9930419921875 0 1668.064453125
v 1187.9930419921875 300 1668.064453125
v 691.799560546875 0 1668.064453125
v 691.799560546875 300 1668.064453125
v 691.799560546875 0 1668.064453125
v 691.799560546875 300 1668.064453125
v 691.799560546875 0 2038.1966552734375
v 691.799560546875 300 2038.1966552734375
vn 0 0 1
vn 0 0 1
vn 0 0 1
vn 0 0 1
vn 1 0 0
vn 1 0 0
vn 1 0 0
vn 1 0 0
vn 0 0 -1
vn 0 0 -1
vn 0 0 -1
vn 0 0 -1
vn -1 0 0
vn -1 0 0
vn -1 0 0
vn -1 0 0
f 129//129 131//131 132//132 130//130
f 133//133 135//135 136//136 134//134
f 137//137 139//139 140//140 138//138
f 141//141 143//143 144//144 142//142
usemtl Default
v 69.245689392089844 0 592.3565673828125
v 69.245689392089844 300 592.3565673828125
v 464.66946411132812 0 592.3565673828125
v 464.66946411132812 300 592.3565673828125
v 464.66946411132812 0 592.3565673828125
v 464.66946411132812 300 592.3565673828125
v 464.66946411132812 0 38.461475372314453
v 464.66946411132812 300 38.461475372314453
v 464.66946411132812 0 38.461475372314453
v 464.66946411132812 300 38.461475372314453
v 69.245689392089844 0 38.461475372314453
v 69.245689392089844 300 38.461475372314453
v 69.245689392089844 0 38.461475372314453
v 69.245689392089844 300 38.461475372314453
v 69.245689392089844 0 592.3565673828125
v 69.245689392089844 300 592.3565673828125
vn 0 0 1
vn 0 0 1
vn 0 0 1
vn 0 0 1
vn 1 0 0
vn 1 0 0
vn 1 0 0
vn 1 0 0
vn 0 0 -1
vn 0 0 -1
vn 0 0 -1
vn 0 0 -1
vn -1 0 0
vn -1 0 0
vn -1 0 0
vn -1 0 0
f 145//145 147//147 148//148 146//146
f 149//149 151//151 152//152 150//150
f 153//153 155//155 156//156 154//154
f 157//157 159//159 160//160 158//158
