# Rhino

mtllib two story units.mtl
usemtl Default
v 599.51287841796875 600 1427.0946044921875
v 599.51287841796875 600 991.8712158203125
v 1031.2117919921875 600 1427.0946044921875
v 1031.2117919921875 600 991.8712158203125
vn 0 1 0
vn 0 1 0
vn 0 1 0
vn 0 1 0
f 4//4 2//2 1//1 3//3
usemtl Default
v 69.245689392089844 600 1058.218017578125
v 69.245689392089844 600 760.1119384765625
v 245.57498168945312 600 1058.218017578125
v 245.57498168945312 600 760.1119384765625
vn 0 1 0
vn 0 1 0
vn 0 1 0
vn 0 1 0
f 8//8 6//6 5//5 7//7
usemtl Default
v 144.61842346191406 600 2038.855712890625
v 144.61842346191406 600 1726.447021484375
v 407.33990478515625 600 2038.855712890625
v 407.33990478515625 600 1726.447021484375
vn 0 1 0
vn 0 1 0
vn 0 1 0
vn 0 1 0
f 12//12 10//10 9//9 11//11
usemtl Default
v 1031.2117919921875 300 1427.0946044921875
v 1031.2117919921875 600 1427.0946044921875
v 599.51287841796875 300 1427.0946044921875
v 599.51287841796875 600 1427.0946044921875
v 1031.2117919921875 300 991.8712158203125
v 1031.2117919921875 600 991.8712158203125
v 1031.2117919921875 300 1427.0946044921875
v 1031.2117919921875 600 1427.0946044921875
v 599.51287841796875 300 991.8712158203125
v 599.51287841796875 600 991.8712158203125
v 1031.2117919921875 300 991.8712158203125
v 1031.2117919921875 600 991.8712158203125
v 599.51287841796875 300 1427.0946044921875
v 599.51287841796875 600 1427.0946044921875
v 599.51287841796875 300 991.8712158203125
v 599.51287841796875 600 991.8712158203125
vn 0 0 -1
vn 0 0 -1
vn 0 0 -1
vn 0 0 -1
vn -1 0 0
vn -1 0 0
vn -1 0 0
vn -1 0 0
vn 0 0 1
vn 0 0 1
vn 0 0 1
vn 0 0 1
vn 1 0 0
vn 1 0 0
vn 1 0 0
vn 1 0 0
f 14//14 13//13 15//15 16//16
f 18//18 17//17 19//19 20//20
f 22//22 21//21 23//23 24//24
f 26//26 25//25 27//27 28//28
usemtl Default
v 245.57498168945312 300 1058.218017578125
v 245.57498168945312 600 1058.218017578125
v 69.245689392089844 300 1058.218017578125
v 69.245689392089844 600 1058.218017578125
v 69.245689392089844 450 1058.218017578125
v 245.57498168945312 450 1058.218017578125
v 245.57498168945312 300 760.1119384765625
v 245.57498168945312 600 760.1119384765625
v 245.57498168945312 300 1058.218017578125
v 245.57498168945312 600 1058.218017578125
v 245.57498168945312 450 1058.218017578125
v 245.57498168945312 450 760.1119384765625
v 69.245689392089844 300 760.1119384765625
v 69.245689392089844 600 760.1119384765625
v 245.57498168945312 300 760.1119384765625
v 245.57498168945312 600 760.1119384765625
v 245.57498168945312 450 760.1119384765625
v 69.245689392089844 450 760.1119384765625
v 69.245689392089844 300 1058.218017578125
v 69.245689392089844 600 1058.218017578125
v 69.245689392089844 300 760.1119384765625
v 69.245689392089844 600 760.1119384765625
v 69.245689392089844 450 1058.218017578125
v 69.245689392089844 450 760.1119384765625
vn 0 0 -1
vn 0 0 -1
vn 0 0 -1
vn 0 0 -1
vn 0 0 -1
vn 0 0 -1
vn -1 0 0
vn -1 0 0
vn -1 0 0
vn -1 0 0
vn -1 0 0
vn -1 0 0
vn 0 0 1
vn 0 0 1
vn 0 0 1
vn 0 0 1
vn 0 0 1
vn 0 0 1
vn 1 0 0
vn 1 0 0
vn 1 0 0
vn 1 0 0
vn 1 0 0
vn 1 0 0
f 34//34 29//29 31//31 33//33
f 30//30 34//34 33//33 32//32
f 40//40 35//35 37//37 39//39
f 36//36 40//40 39//39 38//38
f 46//46 41//41 43//43 45//45
f 42//42 46//46 45//45 44//44
f 51//51 47//47 49//49 52//52
f 48//48 51//51 52//52 50//50
usemtl Default
v 407.33990478515625 300 2038.855712890625
v 407.33990478515625 600 2038.855712890625
v 144.61842346191406 300 2038.855712890625
v 144.61842346191406 600 2038.855712890625
v 144.61842346191406 450 2038.855712890625
v 407.33990478515625 450 2038.855712890625
v 407.33990478515625 300 1726.447021484375
v 407.33990478515625 600 1726.447021484375
v 407.33990478515625 300 2038.855712890625
v 407.33990478515625 600 2038.855712890625
v 407.33990478515625 450 2038.855712890625
v 407.33990478515625 450 1726.447021484375
v 144.61842346191406 300 1726.447021484375
v 144.61842346191406 600 1726.447021484375
v 407.33990478515625 300 1726.447021484375
v 407.33990478515625 600 1726.447021484375
v 407.33990478515625 450 1726.447021484375
v 144.61842346191406 450 1726.447021484375
v 144.61842346191406 300 2038.855712890625
v 144.61842346191406 600 2038.855712890625
v 144.61842346191406 300 1726.447021484375
v 144.61842346191406 600 1726.447021484375
v 144.61842346191406 450 2038.855712890625
v 144.61842346191406 450 1726.447021484375
vn 0 0 -1
vn 0 0 -1
vn 0 0 -1
vn 0 0 -1
vn 0 0 -1
vn 0 0 -1
vn -1 0 0
vn -1 0 0
vn -1 0 0
vn -1 0 0
vn -1 0 0
vn -1 0 0
vn 0 0 1
vn 0 0 1
vn 0 0 1
vn 0 0 1
vn 0 0 1
vn 0 0 1
vn 1 0 0
vn 1 0 0
vn 1 0 0
vn 1 0 0
vn 1 0 0
vn 1 0 0
f 58//58 53//53 55//55 57//57
f 54//54 58//58 57//57 56//56
f 64//64 59//59 61//61 63//63
f 60//60 64//64 63//63 62//62
f 70//70 65//65 67//67 69//69
f 66//66 70//70 69//69 68//68
f 75//75 71//71 73//73 76//76
f 72//72 75//75 76//76 74//74
usemtl Default
v 599.51287841796875 300 1427.0946044921875
v 599.51287841796875 300 991.8712158203125
v 1031.2117919921875 300 1427.0946044921875
v 1031.2117919921875 300 991.8712158203125
vn 0 1 0
vn 0 1 0
vn 0 1 0
vn 0 1 0
f 80//80 78//78 77//77 79//79
usemtl Default
v 69.245689392089844 300 1058.218017578125
v 69.245689392089844 300 760.1119384765625
v 245.57498168945312 300 1058.218017578125
v 245.57498168945312 300 760.1119384765625
vn 0 1 0
vn 0 1 0
vn 0 1 0
vn 0 1 0
f 84//84 82//82 81//81 83//83
usemtl Default
v 144.61842346191406 300 2038.855712890625
v 144.61842346191406 300 1726.447021484375
v 407.33990478515625 300 2038.855712890625
v 407.33990478515625 300 1726.447021484375
vn 0 1 0
vn 0 1 0
vn 0 1 0
vn 0 1 0
f 88//88 86//86 85//85 87//87
usemtl Default
v 144.61842346191406 0 2038.855712890625
v 144.61842346191406 0 1726.447021484375
v 407.33990478515625 0 2038.855712890625
v 407.33990478515625 0 1726.447021484375
vn 0 1 0
vn 0 1 0
vn 0 1 0
vn 0 1 0
f 92//92 90//90 89//89 91//91
usemtl Default
v 69.245689392089844 0 1058.218017578125
v 69.245689392089844 0 760.1119384765625
v 245.57498168945312 0 1058.218017578125
v 245.57498168945312 0 760.1119384765625
vn 0 1 0
vn 0 1 0
vn 0 1 0
vn 0 1 0
f 96//96 94//94 93//93 95//95
usemtl Default
v 599.51287841796875 0 1427.0946044921875
v 599.51287841796875 0 991.8712158203125
v 1031.2117919921875 0 1427.0946044921875
v 1031.2117919921875 0 991.8712158203125
vn 0 1 0
vn 0 1 0
vn 0 1 0
vn 0 1 0
f 100//100 98//98 97//97 99//99
usemtl Default
v 69.245689392089844 0 1058.218017578125
v 69.245689392089844 300 1058.218017578125
v 245.57498168945312 0 1058.218017578125
v 245.57498168945312 300 1058.218017578125
v 245.57498168945312 0 1058.218017578125
v 245.57498168945312 300 1058.218017578125
v 245.57498168945312 0 760.1119384765625
v 245.57498168945312 300 760.1119384765625
v 245.57498168945312 0 760.1119384765625
v 245.57498168945312 300 760.1119384765625
v 69.245689392089844 0 760.1119384765625
v 69.245689392089844 300 760.1119384765625
v 69.245689392089844 0 760.1119384765625
v 69.245689392089844 300 760.1119384765625
v 69.245689392089844 0 1058.218017578125
v 69.245689392089844 300 1058.218017578125
vn 0 0 1
vn 0 0 1
vn 0 0 1
vn 0 0 1
vn 1 0 0
vn 1 0 0
vn 1 0 0
vn 1 0 0
vn 0 0 -1
vn 0 0 -1
vn 0 0 -1
vn 0 0 -1
vn -1 0 0
vn -1 0 0
vn -1 0 0
vn -1 0 0
f 101//101 103//103 104//104 102//102
f 105//105 107//107 108//108 106//106
f 109//109 111//111 112//112 110//110
f 113//113 115//115 116//116 114//114
usemtl Default
v 144.61842346191406 0 2038.855712890625
v 144.61842346191406 300 2038.855712890625
v 407.33990478515625 0 2038.855712890625
v 407.33990478515625 300 2038.855712890625
v 407.33990478515625 0 2038.855712890625
v 407.33990478515625 300 2038.855712890625
v 407.33990478515625 0 1726.447021484375
v 407.33990478515625 300 1726.447021484375
v 407.33990478515625 0 1726.447021484375
v 407.33990478515625 300 1726.447021484375
v 144.61842346191406 0 1726.447021484375
v 144.61842346191406 300 1726.447021484375
v 144.61842346191406 0 1726.447021484375
v 144.61842346191406 300 1726.447021484375
v 144.61842346191406 0 2038.855712890625
v 144.61842346191406 300 2038.855712890625
vn 0 0 1
vn 0 0 1
vn 0 0 1
vn 0 0 1
vn 1 0 0
vn 1 0 0
vn 1 0 0
vn 1 0 0
vn 0 0 -1
vn 0 0 -1
vn 0 0 -1
vn 0 0 -1
vn -1 0 0
vn -1 0 0
vn -1 0 0
vn -1 0 0
f 117//117 119//119 120//120 118//118
f 121//121 123//123 124//124 122//122
f 125//125 127//127 128//128 126//126
f 129//129 131//131 132//132 130//130
usemtl Default
v 599.51287841796875 0 1427.0946044921875
v 599.51287841796875 300 1427.0946044921875
v 1031.2117919921875 0 1427.0946044921875
v 1031.2117919921875 300 1427.0946044921875
v 1031.2117919921875 0 1427.0946044921875
v 1031.2117919921875 300 1427.0946044921875
v 1031.2117919921875 0 991.8712158203125
v 1031.2117919921875 300 991.8712158203125
v 1031.2117919921875 0 991.8712158203125
v 1031.2117919921875 300 991.8712158203125
v 599.51287841796875 0 991.8712158203125
v 599.51287841796875 300 991.8712158203125
v 599.51287841796875 0 991.8712158203125
v 599.51287841796875 300 991.8712158203125
v 599.51287841796875 0 1427.0946044921875
v 599.51287841796875 300 1427.0946044921875
vn 0 0 1
vn 0 0 1
vn 0 0 1
vn 0 0 1
vn 1 0 0
vn 1 0 0
vn 1 0 0
vn 1 0 0
vn 0 0 -1
vn 0 0 -1
vn 0 0 -1
vn 0 0 -1
vn -1 0 0
vn -1 0 0
vn -1 0 0
vn -1 0 0
f 133//133 135//135 136//136 134//134
f 137//137 139//139 140//140 138//138
f 141//141 143//143 144//144 142//142
f 145//145 147//147 148//148 146//146
