# Rhino

mtllib windows.mtl
usemtl Default
v 1187.9930419921875 640 2018.1534423828125
v 1187.9930419921875 840 2018.1534423828125
v 1187.9930419921875 640 1810.8829345703125
v 1187.9930419921875 840 1810.8829345703125
vn 1 0 0
vn 1 0 0
vn 1 0 0
vn 1 0 0
f 1//1 3//3 4//4 2//2
usemtl Default
v 939.89630126953125 640 2038.1966552734375
v 939.89630126953125 840 2038.1966552734375
v 1150.9969482421875 640 2038.1966552734375
v 1150.9969482421875 840 2038.1966552734375
vn 0 0 1
vn 0 0 1
vn 0 0 1
vn 0 0 1
f 5//5 7//7 8//8 6//6
usemtl Default
v 691.799560546875 640 1897.3262939453125
v 691.799560546875 840 1897.3262939453125
v 691.799560546875 640 1684.7591552734375
v 691.799560546875 840 1684.7591552734375
vn 1 0 0
vn 1 0 0
vn 1 0 0
vn 1 0 0
f 9//9 11//11 12//12 10//10
usemtl Default
v 715.07904052734375 640 1668.064453125
v 715.07904052734375 840 1668.064453125
v 952.95684814453125 640 1668.064453125
v 952.95684814453125 840 1668.064453125
vn 0 0 1
vn 0 0 1
vn 0 0 1
vn 0 0 1
f 13//13 15//15 16//16 14//14
usemtl Default
v 322.4510498046875 640 592.3565673828125
v 322.4510498046875 840 592.3565673828125
v 441.38995361328125 640 592.3565673828125
v 441.38995361328125 840 592.3565673828125
vn 0 0 1
vn 0 0 1
vn 0 0 1
vn 0 0 1
f 17//17 19//19 20//20 18//18
usemtl Default
v 92.525177001953125 640 592.3565673828125
v 92.525177001953125 840 592.3565673828125
v 211.46409606933594 640 592.3565673828125
v 211.46409606933594 840 592.3565673828125
vn 0 0 1
vn 0 0 1
vn 0 0 1
vn 0 0 1
f 21//21 23//23 24//24 22//22
usemtl Default
v 464.66946411132812 640 287.39080810546875
v 464.66946411132812 840 287.39080810546875
v 464.66946411132812 640 70.0277099609375
v 464.66946411132812 840 70.0277099609375
vn 1 0 0
vn 1 0 0
vn 1 0 0
vn 1 0 0
f 25//25 27//27 28//28 26//26
usemtl Default
v 464.66946411132812 640 560.79034423828125
v 464.66946411132812 840 560.79034423828125
v 464.66946411132812 640 343.42724609375
v 464.66946411132812 840 343.42724609375
vn 1 0 0
vn 1 0 0
vn 1 0 0
vn 1 0 0
f 29//29 31//31 32//32 30//30
usemtl Default
v 69.245689392089844 640 267.72332763671875
v 69.245689392089844 840 267.72332763671875
v 69.245689392089844 640 55.15618896484375
v 69.245689392089844 840 55.15618896484375
vn 1 0 0
vn 1 0 0
vn 1 0 0
vn 1 0 0
f 33//33 35//35 36//36 34//34
usemtl Default
v 92.525177001953125 640 38.461475372314453
v 92.525177001953125 840 38.461475372314453
v 330.40301513671875 640 38.461475372314453
v 330.40301513671875 840 38.461475372314453
vn 0 0 1
vn 0 0 1
vn 0 0 1
vn 0 0 1
f 37//37 39//39 40//40 38//38
usemtl Default
v 245.57498168945312 340 989.37384033203125
v 245.57498168945312 540 989.37384033203125
v 245.57498168945312 340 776.80670166015625
v 245.57498168945312 540 776.80670166015625
vn 1 0 0
vn 1 0 0
vn 1 0 0
vn 1 0 0
f 41//41 43//43 44//44 42//42
usemtl Default
v 69.245689392089844 340 989.37384033203125
v 69.245689392089844 540 989.37384033203125
v 69.245689392089844 340 776.80670166015625
v 69.245689392089844 540 776.80670166015625
vn 1 0 0
vn 1 0 0
vn 1 0 0
vn 1 0 0
f 45//45 47//47 48//48 46//46
usemtl Default
v 939.89630126953125 340 1668.064453125
v 939.89630126953125 540 1668.064453125
v 1150.9969482421875 340 1668.064453125
v 1150.9969482421875 540 1668.064453125
vn 0 0 1
vn 0 0 1
vn 0 0 1
vn 0 0 1
f 49//49 51//51 52//52 50//50
usemtl Default
v 1187.9930419921875 300 1808.940185546875
v 1187.9930419921875 510 1808.940185546875
v 1187.9930419921875 300 2016.2261962890625
v 1187.9930419921875 510 2016.2261962890625
vn -1 0 0
vn -1 0 0
vn -1 0 0
vn -1 0 0
f 53//53 55//55 56//56 54//54
usemtl Default
v 691.799560546875 300 1808.940185546875
v 691.799560546875 510 1808.940185546875
v 691.799560546875 300 2016.2261962890625
v 691.799560546875 510 2016.2261962890625
vn -1 0 0
vn -1 0 0
vn -1 0 0
vn -1 0 0
f 57//57 59//59 60//60 58//58
usemtl Default
v 1282.845703125 340 1395.5284423828125
v 1282.845703125 540 1395.5284423828125
v 1282.845703125 340 1228.66650390625
v 1282.845703125 540 1228.66650390625
vn 1 0 0
vn 1 0 0
vn 1 0 0
vn 1 0 0
f 61//61 63//63 64//64 62//62
usemtl Default
v 1153.6689453125 340 1395.5284423828125
v 1153.6689453125 540 1395.5284423828125
v 1153.6689453125 340 1228.66650390625
v 1153.6689453125 540 1228.66650390625
vn 1 0 0
vn 1 0 0
vn 1 0 0
vn 1 0 0
f 65//65 67//67 68//68 66//66
usemtl Default
v 865.04791259765625 340 825.71112060546875
v 865.04791259765625 540 825.71112060546875
v 865.04791259765625 340 428.27743530273438
v 865.04791259765625 540 428.27743530273438
vn 1 0 0
vn 1 0 0
vn 1 0 0
vn 1 0 0
f 69//69 71//71 72//72 70//70
usemtl Default
v 614.6856689453125 340 -35.152557373046875
v 614.6856689453125 540 -35.152557373046875
v 842.479736328125 340 -35.152557373046875
v 842.479736328125 540 -35.152557373046875
vn 0 0 1
vn 0 0 1
vn 0 0 1
vn 0 0 1
f 73//73 75//75 76//76 74//74
usemtl Default
v 92.525177001953125 340 38.461475372314453
v 92.525177001953125 540 38.461475372314453
v 330.40301513671875 340 38.461475372314453
v 330.40301513671875 540 38.461475372314453
vn 0 0 1
vn 0 0 1
vn 0 0 1
vn 0 0 1
f 77//77 79//79 80//80 78//78
usemtl Default
v 464.66946411132812 340 287.39080810546875
v 464.66946411132812 540 287.39080810546875
v 464.66946411132812 340 70.0277099609375
v 464.66946411132812 540 70.0277099609375
vn 1 0 0
vn 1 0 0
vn 1 0 0
vn 1 0 0
f 81//81 83//83 84//84 82//82
usemtl Default
v 464.66946411132812 340 560.79034423828125
v 464.66946411132812 540 560.79034423828125
v 464.66946411132812 340 343.42724609375
v 464.66946411132812 540 343.42724609375
vn 1 0 0
vn 1 0 0
vn 1 0 0
vn 1 0 0
f 85//85 87//87 88//88 86//86
usemtl Default
v 69.245689392089844 340 560.79034423828125
v 69.245689392089844 540 560.79034423828125
v 69.245689392089844 340 343.42724609375
v 69.245689392089844 540 343.42724609375
vn 1 0 0
vn 1 0 0
vn 1 0 0
vn 1 0 0
f 89//89 91//91 92//92 90//90
usemtl Default
v 1282.845703125 40 837.234130859375
v 1282.845703125 240 837.234130859375
v 1282.845703125 40 629.96368408203125
v 1282.845703125 240 629.96368408203125
vn 1 0 0
vn 1 0 0
vn 1 0 0
vn 1 0 0
f 93//93 95//95 96//96 94//94
usemtl Default
v 1187.9930419921875 40 2018.1534423828125
v 1187.9930419921875 240 2018.1534423828125
v 1187.9930419921875 40 1810.8829345703125
v 1187.9930419921875 240 1810.8829345703125
vn 1 0 0
vn 1 0 0
vn 1 0 0
vn 1 0 0
f 97//97 99//99 100//100 98//98
usemtl Default
v 939.89630126953125 40 2038.1966552734375
v 939.89630126953125 240 2038.1966552734375
v 1150.9969482421875 40 2038.1966552734375
v 1150.9969482421875 240 2038.1966552734375
vn 0 0 1
vn 0 0 1
vn 0 0 1
vn 0 0 1
f 101//101 103//103 104//104 102//102
usemtl Default
v 857.8226318359375 40 991.8712158203125
v 857.8226318359375 240 991.8712158203125
v 1010.2570190429688 40 991.8712158203125
v 1010.2570190429688 240 991.8712158203125
vn 0 0 1
vn 0 0 1
vn 0 0 1
vn 0 0 1
f 105//105 107//107 108//108 106//106
usemtl Default
v 144.61842346191406 40 1738.1572265625
v 144.61842346191406 240 1738.1572265625
v 144.61842346191406 40 1939.4610595703125
v 144.61842346191406 240 1939.4610595703125
vn -1 0 0
vn -1 0 0
vn -1 0 0
vn -1 0 0
f 109//109 111//111 112//112 110//110
usemtl Default
v 154.90625 40 1726.447021484375
v 154.90625 240 1726.447021484375
v 345.02841186523438 40 1726.447021484375
v 345.02841186523438 240 1726.447021484375
vn 0 0 1
vn 0 0 1
vn 0 0 1
vn 0 0 1
f 113//113 115//115 116//116 114//114
usemtl Default
v 622.79241943359375 40 1427.0946044921875
v 622.79241943359375 240 1427.0946044921875
v 860.67022705078125 40 1427.0946044921875
v 860.67022705078125 240 1427.0946044921875
vn 0 0 1
vn 0 0 1
vn 0 0 1
vn 0 0 1
f 117//117 119//119 120//120 118//118
usemtl Default
v 265.92449951171875 40 1236.4581298828125
v 265.92449951171875 240 1236.4581298828125
v 443.37060546875 40 1236.4581298828125
v 443.37060546875 240 1236.4581298828125
vn 0 0 1
vn 0 0 1
vn 0 0 1
vn 0 0 1
f 121//121 123//123 124//124 122//122
usemtl Default
v 245.57498168945312 40 989.37384033203125
v 245.57498168945312 240 989.37384033203125
v 245.57498168945312 40 776.80670166015625
v 245.57498168945312 240 776.80670166015625
vn 1 0 0
vn 1 0 0
vn 1 0 0
vn 1 0 0
f 125//125 127//127 128//128 126//126
usemtl Default
v 69.245689392089844 40 989.37384033203125
v 69.245689392089844 240 989.37384033203125
v 69.245689392089844 40 776.80670166015625
v 69.245689392089844 240 776.80670166015625
vn 1 0 0
vn 1 0 0
vn 1 0 0
vn 1 0 0
f 129//129 131//131 132//132 130//130
usemtl Default
v 69.245689392089844 40 560.79034423828125
v 69.245689392089844 240 560.79034423828125
v 69.245689392089844 40 343.42724609375
v 69.245689392089844 240 343.42724609375
vn 1 0 0
vn 1 0 0
vn 1 0 0
vn 1 0 0
f 133//133 135//135 136//136 134//134
usemtl Default
v 444.12164306640625 40 38.461475372314453
v 444.12164306640625 240 38.461475372314453
v 262.58468627929688 40 38.461475372314453
v 262.58468627929688 240 38.461475372314453
vn 0 0 -1
vn 0 0 -1
vn 0 0 -1
vn 0 0 -1
f 137//137 139//139 140//140 138//138
usemtl Default
v 614.6856689453125 40 -35.152557373046875
v 614.6856689453125 240 -35.152557373046875
v 842.479736328125 40 -35.152557373046875
v 842.479736328125 240 -35.152557373046875
vn 0 0 1
vn 0 0 1
vn 0 0 1
vn 0 0 1
f 141//141 143//143 144//144 142//142
usemtl Default
v 1187.9930295376173 40 2018.1534068935105
v 1187.9930295376173 40 1810.8829354543486
cstype bspline
deg 1
curv 0 207.27047143916184 145 146
parm u 0 0 207.27047143916184 207.27047143916184
end
usemtl Default
v 939.89629183051738 40 2038.1966072163214
v 1150.9969783950537 40 2038.1966072163214
cstype bspline
deg 1
curv 0 211.10068656453632 147 148
parm u 0 0 211.10068656453632 211.10068656453632
end
usemtl Default
v 860.67022404660304 40 1427.0946282285101
v 627.41034202626815 40 1427.0946282285101
cstype bspline
deg 1
curv 0 233.25988202033489 149 150
parm u 0 0 233.25988202033489 233.25988202033489
end
usemtl Default
v 857.82266221834652 40 991.87122781897233
v 1010.2570137864684 40 991.87122781897233
cstype bspline
deg 1
curv 0 152.43435156812188 151 152
parm u 0 0 152.43435156812188 152.43435156812188
end
usemtl Default
v 144.61842821576892 40 1738.1571909391021
v 144.61842821576892 40 1939.4610900693594
cstype bspline
deg 1
curv 0 201.30389913025738 153 154
parm u 0 0 201.30389913025738 201.30389913025738
end
usemtl Default
v 154.9062561019262 40 1726.4469696360566
v 345.02841638170975 40 1726.4469696360566
cstype bspline
deg 1
curv 0 190.12216027978354 155 156
parm u 0 0 190.12216027978354 190.12216027978354
end
usemtl Default
v 622.79239064974649 40 1427.0946282285101
v 860.67022404660304 40 1427.0946282285101
cstype bspline
deg 1
curv 0 237.87783339685654 157 158
parm u 0 0 237.87783339685654 237.87783339685654
end
usemtl Default
v 265.92449159658429 40 1236.4581115269132
v 443.37060615997416 40 1236.4581115269132
cstype bspline
deg 1
curv 0 177.44611456338987 159 160
parm u 0 0 177.44611456338987 177.44611456338987
end
usemtl Default
v 245.57497953807177 40 989.37381472142761
v 245.57497953807177 40 776.80667718639211
cstype bspline
deg 1
curv 0 212.5671375350355 161 162
parm u 0 0 212.5671375350355 212.5671375350355
end
usemtl Default
v 69.245691137913894 40 989.37381472142761
v 69.245691137913894 40 776.80667718639211
cstype bspline
deg 1
curv 0 212.5671375350355 163 164
parm u 0 0 212.5671375350355 212.5671375350355
end
usemtl Default
v 69.245691137913894 40 560.79035992479976
v 69.245691137913894 40 343.4272588674288
cstype bspline
deg 1
curv 0 217.36310105737095 165 166
parm u 0 0 217.36310105737095 217.36310105737095
end
usemtl Default
v 444.12163819029615 40 38.461474947589295
v 262.58468171064681 40 38.461474947589295
cstype bspline
deg 1
curv 0 181.53695647964935 167 168
parm u 0 0 181.53695647964935 181.53695647964935
end
usemtl Default
v 614.68569517854041 40 -35.152555688074756
v 842.47972841301885 40 -35.152555688074756
cstype bspline
deg 1
curv 0 227.79403323447843 169 170
parm u 0 0 227.79403323447843 227.79403323447843
end
